<svg width="20" height="16" viewBox="0 0 20 16" fill="none" xmlns="http://www.w3.org/2000/svg">
<path d="M13.25 16H0.75C0.34 16 0 15.66 0 15.25V6.75C0 3.03 3.03 0 6.75 0H13.25C16.97 0 20 3.03 20 6.75V9.25C20 12.97 16.97 16 13.25 16ZM1.5 14.5H13.25C16.14 14.5 18.5 12.14 18.5 9.25V6.75C18.5 3.85 16.14 1.5 13.25 1.5H6.75C3.86 1.5 1.5 3.85 1.5 6.75V14.5Z" fill="#333333"/>
<path d="M6 8.99995C5.74 8.99995 5.48 8.88995 5.29 8.70995C5.11 8.51995 5 8.25995 5 7.99995C5 7.72995 5.11 7.47995 5.29 7.28995C5.66 6.91995 6.34 6.91995 6.71 7.28995C6.75 7.33995 6.79 7.38995 6.83 7.43995C6.87 7.49995 6.9 7.55995 6.92 7.61995C6.95 7.67995 6.97 7.73995 6.98 7.79995C6.99 7.86995 7 7.93995 7 7.99995C7 8.05995 6.99 8.12995 6.98 8.19995C6.97 8.25995 6.95 8.31995 6.92 8.37995C6.9 8.43995 6.87 8.49995 6.83 8.54995C6.79 8.60995 6.75 8.65995 6.71 8.70995C6.52 8.88995 6.26 8.99995 6 8.99995Z" fill="#333333"/>
<path d="M10 9C9.87 9 9.74 8.97 9.62 8.92C9.49 8.87 9.39 8.8 9.29 8.71C9.11 8.52 9 8.26 9 8C9 7.87 9.03 7.74 9.08 7.62C9.13 7.49 9.2 7.39 9.29 7.29C9.39 7.2 9.49 7.13 9.62 7.08C9.8 7 10 6.98 10.19 7.02C10.26 7.03 10.32 7.05 10.38 7.08C10.44 7.1 10.5 7.13 10.55 7.17C10.61 7.2 10.66 7.25 10.71 7.29C10.8 7.39 10.87 7.49 10.92 7.62C10.97 7.74 11 7.87 11 8C11 8.26 10.89 8.52 10.71 8.71C10.66 8.75 10.61 8.8 10.55 8.83C10.5 8.87 10.44 8.9 10.38 8.92C10.32 8.95 10.26 8.97 10.19 8.98C10.13 8.99 10.06 9 10 9Z" fill="#333333"/>
<path d="M14 9.00001C13.94 9.00001 13.87 8.99001 13.81 8.98001C13.74 8.97001 13.68 8.95001 13.62 8.92001C13.56 8.90001 13.5 8.87001 13.44 8.83001C13.39 8.79001 13.34 8.75001 13.29 8.71001C13.11 8.52001 13 8.27001 13 8.00001C13 7.87001 13.03 7.74001 13.08 7.62001C13.13 7.50001 13.2 7.39001 13.29 7.29001C13.34 7.25001 13.39 7.21001 13.44 7.17001C13.5 7.13001 13.56 7.10001 13.62 7.08001C13.68 7.05001 13.74 7.03001 13.81 7.02001C14.13 6.96001 14.47 7.06001 14.71 7.29001C14.89 7.48001 15 7.74001 15 8.00001C15 8.06001 14.99 8.13001 14.98 8.20001C14.97 8.26001 14.95 8.32001 14.92 8.38001C14.9 8.44001 14.87 8.50001 14.83 8.56001C14.79 8.61001 14.75 8.66001 14.71 8.71001C14.52 8.89001 14.26 9.00001 14 9.00001Z" fill="#333333"/>
</svg>
