<svg width="350" height="350" viewBox="0 0 350 350" fill="none" xmlns="http://www.w3.org/2000/svg">
<path d="M74.9629 245.7L65.0999 245.91C61.7819 245.966 58.4359 246.022 55.0899 246.022H54.7749V245.7V237.867V237.517H55.1249L65.0509 237.559C68.3619 237.559 71.6729 237.643 74.9769 237.678H75.1729V237.86L74.9629 245.7ZM74.9629 245.7L74.7809 237.867L74.9629 238.056C71.6589 238.091 68.3479 238.168 65.0369 238.175L55.1109 238.217L55.4609 237.867V245.7L55.1459 245.392C58.4149 245.392 61.6909 245.448 64.9879 245.504L74.9629 245.7Z" fill="#EBEBEB"/>
<path d="M63.889 255.584L54.04 255.787C50.729 255.843 47.383 255.899 44.03 255.899H43.722V255.584L43.687 247.751V247.401H44.037L53.97 247.443C57.281 247.443 60.585 247.527 63.896 247.562H64.085V247.744L63.889 255.584ZM63.889 255.584L63.7 247.751L63.882 247.94C60.571 247.975 57.267 248.052 53.956 248.059L44.023 248.101L44.373 247.751V255.584L44.058 255.276C47.334 255.276 50.603 255.332 53.907 255.388L63.889 255.584Z" fill="#EBEBEB"/>
<path d="M238.511 192.64L228.669 192.836C225.351 192.892 222.005 192.948 218.659 192.955H218.344V192.64L218.309 184.8V184.45H218.666L228.592 184.492C231.903 184.492 235.207 184.576 238.518 184.611H238.7V184.8L238.511 192.64ZM238.511 192.64L238.329 184.8L238.511 184.982C235.2 185.024 231.896 185.094 228.585 185.101L218.659 185.15L219.002 184.8L218.967 192.633L218.659 192.318C221.928 192.318 225.197 192.381 228.501 192.437L238.511 192.64Z" fill="#EBEBEB"/>
<path d="M216.132 192.64L206.283 192.836C202.972 192.892 199.626 192.948 196.273 192.955H196V192.64L195.923 184.8V184.45H196.273L206.206 184.492C209.517 184.492 212.821 184.576 216.132 184.611H216.3V184.8L216.132 192.64ZM216.132 192.64L215.95 184.8L216.132 184.982C212.821 185.024 209.517 185.094 206.206 185.101L196.273 185.15L196.623 184.8L196.588 192.633L196.273 192.318C199.549 192.318 202.818 192.381 206.122 192.437L216.132 192.64Z" fill="#EBEBEB"/>
<path d="M227.346 202.517L217.497 202.713C214.179 202.769 210.84 202.825 207.487 202.832H207.2V202.517V194.684V194.334H207.55L217.483 194.376C220.787 194.376 224.098 194.46 227.409 194.495H227.598V194.677L227.346 202.517ZM227.346 202.517L227.157 194.684L227.346 194.866C224.035 194.908 220.724 194.978 217.42 194.985L207.487 195.034L207.837 194.684L207.802 202.517L207.487 202.202C210.763 202.202 214.032 202.265 217.336 202.321L227.346 202.517Z" fill="#EBEBEB"/>
<path d="M305.97 255.584L296.121 255.787C292.803 255.843 289.457 255.899 286.111 255.899H285.796V255.584V247.751V247.401H286.146L296.072 247.443C299.383 247.443 302.694 247.527 306.005 247.562H306.194V247.744L305.97 255.584ZM305.97 255.584L305.781 247.751L305.97 247.94C302.659 247.975 299.348 248.052 296.037 248.059L286.111 248.101L286.461 247.751L286.426 255.584L286.111 255.276C289.38 255.276 292.656 255.332 295.96 255.388L305.97 255.584Z" fill="#EBEBEB"/>
<path d="M294.889 56.903L285.047 57.099C281.729 57.155 278.383 57.211 275.037 57.211H274.722V56.896V49.07V48.713H275.079L285.005 48.755C288.316 48.755 291.62 48.839 294.931 48.874H295.12V49.063L294.889 56.903ZM294.889 56.903L294.7 49.07L294.882 49.252C291.571 49.252 288.267 49.364 284.956 49.371L275.03 49.413L275.373 49.07V56.896L275.065 56.588C278.334 56.588 281.603 56.644 284.907 56.7L294.889 56.903Z" fill="#EBEBEB"/>
<path d="M305.97 66.773L296.1 66.976C292.782 67.032 289.436 67.088 286.09 67.088H285.775V66.773V58.947V58.59H286.125L296.051 58.632C299.362 58.632 302.673 58.716 305.984 58.751H306.173V58.94L305.97 66.773ZM305.97 66.773L305.781 58.947L305.97 59.129C302.659 59.129 299.348 59.241 296.037 59.248L286.111 59.29L286.461 58.947L286.426 66.773L286.111 66.465C289.38 66.465 292.656 66.521 295.96 66.577L305.97 66.773Z" fill="#EBEBEB"/>
<path d="M63.889 56.903L54.04 57.099C50.729 57.155 47.383 57.211 44.03 57.211H43.722V56.896L43.687 49.07V48.713H44.037L53.97 48.755C57.281 48.755 60.585 48.839 63.896 48.874H64.085V49.063L63.889 56.903ZM63.889 56.903L63.7 49.07L63.882 49.252C60.571 49.252 57.267 49.364 53.956 49.371L44.023 49.413L44.373 49.07V56.896L44.058 56.588C47.334 56.588 50.603 56.644 53.907 56.7L63.889 56.903Z" fill="#EBEBEB"/>
<path d="M164.787 123.487L154.945 123.683C151.627 123.739 148.281 123.795 144.935 123.802H144.62V123.487V115.654V115.304H144.97L154.896 115.346C158.207 115.346 161.518 115.43 164.822 115.465H165.011V115.647L164.787 123.487ZM164.787 123.487L164.605 115.654L164.787 115.836C161.483 115.878 158.172 115.948 154.861 115.955L144.935 116.004L145.285 115.654L145.25 123.487L144.935 123.172C148.204 123.172 151.48 123.228 154.777 123.284L164.787 123.487Z" fill="#EBEBEB"/>
<path d="M74.06 0H73.36V97.027H74.06V0Z" fill="#C7C7C7"/>
<path d="M107.723 129.815L104.986 135.828H42.4271L39.7041 129.815L66.3321 111.377H81.0881L107.723 129.815Z" fill="#EBEBEB"/>
<path d="M82.9361 93.618L81.0881 111.377H66.3321L64.4841 93.618H82.9361Z" fill="#DBDBDB"/>
<path d="M107.716 129.815L104.979 135.828H42.427L39.697 129.815H107.716Z" fill="#DBDBDB"/>
<path d="M147.105 0H146.405V58.219H147.105V0Z" fill="#C7C7C7"/>
<path d="M180.761 91.007L178.031 97.02H115.472L112.749 91.007L139.377 72.569H154.133L180.761 91.007Z" fill="#EBEBEB"/>
<path d="M155.981 54.81L154.133 72.569H139.377L137.529 54.81H155.981Z" fill="#DBDBDB"/>
<path d="M180.761 91.007L178.024 97.02H115.472L112.742 91.007H180.761Z" fill="#DBDBDB"/>
<path d="M310.303 318.591L276.472 318.759L242.648 318.822L175 318.934L107.352 318.822L73.521 318.759L39.697 318.591L73.521 318.416L107.352 318.353L175 318.241L242.648 318.353L276.472 318.416L310.303 318.591Z" fill="#263238"/>
<path d="M164.64 318.584H97.2579C96.7049 316.414 96.1659 314.279 95.6269 312.179C95.0109 309.764 94.4019 307.405 93.8209 305.109C93.6949 304.598 93.5619 304.08 93.4289 303.576C92.9903 301.821 92.5563 300.109 92.1269 298.438L91.3639 295.435C91.0979 294.427 90.8529 293.433 90.6079 292.467C90.5379 292.215 90.4749 291.956 90.4119 291.711L90.2019 290.878L89.9499 289.884C89.8519 289.534 89.7679 289.184 89.6839 288.848C89.5089 288.197 89.3479 287.56 89.1939 286.937C88.9559 286.013 88.7249 285.11 88.4939 284.228C88.3959 283.843 88.2909 283.458 88.1999 283.087C88.0413 282.471 87.8873 281.869 87.7379 281.281C87.6399 280.889 87.5419 280.504 87.4509 280.126C87.0449 278.586 86.6809 277.13 86.3379 275.772L86.0649 274.722C85.9179 274.134 85.7779 273.574 85.6379 273.028C85.5469 272.685 85.4559 272.328 85.3789 272.027C85.0849 270.865 84.8119 269.808 84.5809 268.877C84.5109 268.625 84.4479 268.387 84.3919 268.177C84.2379 267.561 84.0909 267.015 83.9719 266.532C83.9229 266.336 83.8809 266.147 83.8249 265.972C83.7689 265.797 83.7339 265.601 83.6919 265.44C83.6499 265.279 83.6289 265.195 83.6079 265.097C83.5869 264.999 83.5239 264.768 83.4889 264.635C83.4539 264.502 83.4539 264.488 83.4329 264.432C83.3349 264.026 83.2789 263.823 83.2789 263.823H148.869C148.869 263.823 151.032 271.271 154.469 283.276C155.169 285.719 155.925 288.358 156.737 291.158C159.068 299.131 161.749 308.469 164.64 318.584Z" fill="#37474F"/>
<path d="M108.29 318.584H106.61C104.113 308.261 101.696 297.92 99.3579 287.56C98.7885 285.04 98.2309 282.518 97.6849 279.993C97.6359 279.755 97.5798 279.524 97.5308 279.293C97.5244 279.267 97.5284 279.24 97.5422 279.217C97.556 279.194 97.5784 279.177 97.6043 279.171C97.6303 279.164 97.6579 279.168 97.6808 279.182C97.7038 279.196 97.7204 279.218 97.7268 279.244C97.7268 279.321 97.7689 279.398 97.7969 279.475C98.5529 282.177 99.3159 284.893 100.058 287.609C102.886 297.899 105.63 308.224 108.29 318.584Z" fill="#263238"/>
<path d="M146.755 263.795L143.864 278.285L141.491 290.185L137.452 310.443L137.032 312.543L136.332 316.001L135.814 318.626H97.2438C96.6978 316.449 96.1449 314.314 95.6199 312.221C95.0039 309.806 94.3949 307.447 93.8139 305.151C93.6879 304.64 93.5549 304.122 93.4219 303.618C92.9832 301.863 92.5492 300.151 92.1199 298.48L91.3568 295.477C91.0908 294.469 90.8458 293.475 90.6008 292.509C90.5308 292.257 90.4678 291.998 90.4048 291.753L90.1949 290.92L89.9429 289.926C89.8449 289.576 89.7609 289.226 89.6769 288.89C89.5019 288.239 89.3409 287.602 89.1869 286.979C88.9489 286.055 88.7179 285.152 88.4869 284.27C88.3819 283.878 88.2838 283.5 88.1928 283.129C88.0342 282.513 87.8802 281.911 87.7309 281.323C87.6329 280.931 87.5348 280.546 87.4438 280.168C87.0378 278.628 86.6739 277.172 86.3309 275.814L86.0579 274.764C85.9109 274.176 85.7709 273.616 85.6309 273.07C85.5399 272.727 85.4489 272.37 85.3719 272.069C85.0779 270.907 84.8049 269.85 84.5739 268.919C84.5039 268.667 84.4409 268.429 84.3849 268.219C84.2309 267.603 84.0838 267.057 83.9648 266.574C83.9158 266.378 83.8738 266.189 83.8178 266.014C83.7618 265.839 83.7269 265.643 83.6849 265.482C83.6429 265.321 83.6219 265.237 83.6009 265.139C83.5799 265.041 83.5169 264.81 83.4819 264.677C83.4469 264.544 83.4469 264.53 83.4259 264.474C83.3279 264.068 83.2719 263.865 83.2719 263.865L146.755 263.795Z" fill="#263238"/>
<path d="M146.769 263.767C146.769 264.124 146.496 268.037 145.859 274.008C145.684 275.751 145.467 277.662 145.222 279.713C144.837 282.947 144.361 286.517 143.766 290.29C142.758 296.87 141.449 304.052 139.741 311.073C139.132 313.6 138.467 316.106 137.76 318.556H53.0598C54.0538 305.655 54.9708 293.986 55.6988 284.788C56.7488 271.901 57.3998 263.795 57.3998 263.795H134.197L146.769 263.767Z" fill="#37474F"/>
<path d="M146.587 271.551C146.496 274.582 146.363 277.606 146.167 280.616C145.964 283.885 145.663 287.147 145.236 290.416C145.229 290.538 145.215 290.66 145.194 290.78C144.797 293.832 144.331 296.879 143.794 299.922C143.304 302.757 142.947 305.816 141.694 308.434C141.22 309.449 140.546 310.359 139.713 311.108C138.95 311.807 138.015 312.29 137.004 312.508C136.839 312.55 136.67 312.578 136.5 312.592C136.458 312.592 136.409 312.592 136.353 312.592C136.385 312.608 136.411 312.634 136.428 312.665C136.446 312.696 136.453 312.731 136.451 312.767C136.416 313.782 136.451 314.818 136.332 315.826C136.329 315.868 136.329 315.91 136.332 315.952C136.234 316.834 136.066 317.702 135.905 318.577H134.456C134.456 318.577 134.456 318.542 134.456 318.521C134.715 317.569 134.925 316.603 135.156 315.637C135.387 314.671 135.737 313.691 135.968 312.69C135.981 312.653 136.006 312.621 136.038 312.599C135.117 312.641 134.205 312.401 133.424 311.911C132.644 311.421 132.031 310.703 131.67 309.855C131.18 308.56 131.404 307.209 131.6 305.879C131.866 304.143 132.118 302.379 132.384 300.678C132.881 297.493 133.518 294.343 134.085 291.172L134.337 289.73C135.478 283.283 136.661 276.836 138.089 270.452C138.138 270.186 138.201 269.92 138.257 269.654C138.313 269.388 138.586 269.528 138.565 269.696C138.523 270.123 138.481 270.557 138.432 270.984C138.18 273.441 137.893 275.884 137.55 278.313C137.137 281.176 136.85 284.053 136.458 286.909C136.318 287.889 136.185 288.862 136.038 289.835C135.38 294.539 134.701 299.243 133.896 303.933C133.518 306.11 132.16 310.009 135.296 310.688C136.006 310.839 136.746 310.745 137.396 310.422C138.78 309.588 139.815 308.279 140.308 306.74C141.197 304.248 141.512 301.497 141.974 298.9C142.485 296.03 142.933 293.16 143.339 290.283C143.852 286.694 144.387 283.106 144.942 279.517C145.222 277.69 145.516 275.863 145.803 274.036C145.943 273.189 146.076 272.342 146.216 271.495C146.3 271.32 146.587 271.369 146.587 271.551Z" fill="#263238"/>
<path d="M71.6659 294.056C75.1919 294.025 78.7002 293.555 82.1099 292.656C83.6849 292.257 85.2389 291.753 86.7789 291.256C88.3041 290.841 89.7316 290.127 90.9789 289.156C93.3589 287.112 94.4789 283.885 95.4939 281.022C96.6221 277.793 97.5364 274.494 98.2309 271.145C98.2659 270.977 98.5109 271.033 98.5109 271.187C98.6018 274.969 98.1299 278.744 97.1109 282.387C96.2639 285.488 95.1159 288.939 92.6169 291.109C89.9849 293.391 86.4079 294.196 83.0409 294.609C79.2585 295.048 75.4351 294.996 71.6659 294.455C71.613 294.455 71.5623 294.434 71.5249 294.397C71.4874 294.359 71.4664 294.308 71.4664 294.256C71.4664 294.203 71.4874 294.152 71.5249 294.114C71.5623 294.077 71.613 294.056 71.6659 294.056Z" fill="#263238"/>
<path d="M65.7999 271.208C65.6086 275.945 65.4079 280.686 65.1979 285.432C64.7313 296.487 64.1993 307.538 63.6019 318.584H62.0129C62.7409 307.51 63.5086 296.443 64.3159 285.383C64.6659 280.651 65.0159 275.933 65.3869 271.201C65.3966 271.153 65.4229 271.11 65.4612 271.079C65.4994 271.048 65.5473 271.032 65.5964 271.033C65.6454 271.033 65.6927 271.051 65.7299 271.083C65.7671 271.116 65.7919 271.16 65.7999 271.208Z" fill="#263238"/>
<path d="M127.4 180.236C140.777 200.417 173.523 237.538 190.036 242.907C199.556 246.008 239.736 239.113 249.039 236.46C253.981 235.06 235.158 194.705 229.838 196.063C224.385 197.463 199.227 202.664 195.132 202.853C191.037 203.042 158.991 179.242 142.296 168.427C121.24 154.791 116.452 163.709 127.4 180.236Z" fill="#D3766A"/>
<path d="M242.62 237.629C247.793 236.985 271.544 232.029 277.746 229.166C283.948 226.303 301.21 216.769 299.495 211.792C297.78 206.815 292.495 209.209 292.495 209.209C292.495 209.209 299.145 204.029 296.968 199.178C294.791 194.327 286.706 198.31 286.706 198.31C286.706 198.31 293.146 192.493 290.626 187.81C288.106 183.127 280.644 188.51 280.644 188.51C280.644 188.51 286.783 183.463 283.087 180.481C278.635 176.89 268.387 187.481 261.289 190.113C259.679 190.715 227.808 199.983 227.808 199.983L242.62 237.629Z" fill="#D3766A"/>
<path d="M281.309 188.055C273.742 195.811 269.094 197.904 258.72 200.389C258.517 200.438 258.538 200.746 258.72 200.718C269.108 199.206 275.317 197.428 281.673 188.398C282.016 187.957 281.673 187.684 281.309 188.055Z" fill="#263238"/>
<path d="M287.308 197.687C278.747 205.1 273.7 207.368 263.046 210.777C262.892 210.819 262.962 211.085 263.116 211.05C273.868 208.586 280.028 206.668 287.616 198.177C287.952 197.792 287.7 197.351 287.308 197.687Z" fill="#263238"/>
<path d="M291.963 209.363C283.157 215.908 277.753 218.673 266.966 220.647C266.919 220.66 266.878 220.689 266.85 220.73C266.823 220.77 266.811 220.819 266.817 220.868C266.823 220.916 266.846 220.961 266.883 220.994C266.919 221.027 266.966 221.045 267.015 221.046C278.215 220.108 284.977 216.699 292.131 209.65C292.6 209.174 292.516 208.95 291.963 209.363Z" fill="#263238"/>
<path d="M221.2 201.446C221.2 201.446 228.718 190.134 233.1 185.892C237.482 181.65 259.7 171.892 262.087 176.561C265.167 182.595 253.456 190.764 247.198 194.012C247.198 194.012 254.324 207.97 247.198 215.649C240.072 223.328 221.2 201.446 221.2 201.446Z" fill="#D3766A"/>
<path d="M262.367 178.5C261.205 186.032 252.714 189.77 246.876 193.375C246.788 193.424 246.712 193.494 246.657 193.578C246.602 193.663 246.568 193.76 246.558 193.86C246.548 193.961 246.563 194.062 246.602 194.156C246.64 194.249 246.701 194.332 246.778 194.397C249.375 200.452 251.272 209.741 247.597 215.642C247.576 215.676 247.569 215.717 247.577 215.757C247.585 215.796 247.608 215.831 247.64 215.855C247.673 215.878 247.713 215.889 247.753 215.885C247.793 215.88 247.829 215.861 247.856 215.831C252.651 210.042 251.531 200.76 248.262 194.313C254.303 190.708 262.654 186.613 262.444 178.507C262.444 178.458 262.374 178.444 262.367 178.5Z" fill="#263238"/>
<path d="M169.715 183.162L153.958 221.62C153.958 221.62 128.233 187.719 120.169 171.675C111.769 154.959 115.311 148.932 136.605 161.602C158.032 174.349 169.715 183.162 169.715 183.162Z" fill="#FFC727"/>
<path d="M169.715 183.162L162.232 201.425L153.958 221.62C153.958 221.62 128.24 187.719 120.169 171.675C115.899 163.198 114.716 157.472 117.369 155.54C120.022 153.608 126.133 155.358 136.626 161.602C158.032 174.356 169.715 183.162 169.715 183.162Z" fill="#FFC727"/>
<path d="M122.752 155.183C122.997 155.239 123.249 155.302 123.508 155.379L122.85 155.841C120.575 157.472 118.342 159.166 116.123 160.895C116.123 160.699 116.06 160.51 116.046 160.328C118.237 158.578 120.435 156.8 122.752 155.183ZM145.369 166.929C144.53 169.002 143.437 170.963 142.114 172.767C139.502 176.338 136.227 179.373 132.468 181.706C130.903 182.687 129.265 183.546 127.568 184.275C127.694 184.478 127.834 184.681 127.96 184.891C129.711 184.114 131.403 183.208 133.021 182.182C136.641 179.886 139.813 176.949 142.38 173.516C143.829 171.6 145.018 169.5 145.915 167.272L145.369 166.929ZM148.645 214.529L149.345 215.509C149.464 215.558 149.59 215.628 149.709 215.684C151.574 216.603 153.367 217.663 155.071 218.855L155.33 218.232C154.721 217.812 154.105 217.406 153.468 217.014C151.926 216.056 150.314 215.216 148.645 214.501V214.529ZM163.471 194.397C157.759 193.109 152.53 190.26 146.755 189.182C142.051 188.3 137.025 188.825 133.301 192.073C133.182 192.185 133.056 192.29 132.944 192.416C133.063 192.591 133.196 192.78 133.315 192.969C135.073 191.296 137.27 190.158 139.65 189.686C145.488 188.531 151.326 190.981 156.702 192.969C159.304 193.99 161.994 194.77 164.738 195.3L165.004 194.649C164.5 194.6 163.975 194.481 163.471 194.369V194.397Z" fill="white"/>
<path d="M162.036 183.043C161.553 183.911 161.196 184.856 160.797 185.766C160.398 186.676 159.978 187.635 159.565 188.566C158.732 190.456 157.934 192.367 157.143 194.278C155.561 198.1 153.965 201.915 152.453 205.765C152.033 206.822 151.62 207.865 151.235 208.95C150.85 210.035 150.493 211.232 150.087 212.345C150.087 212.415 150.164 212.45 150.192 212.38C150.612 211.449 151.109 210.546 151.536 209.58C151.963 208.614 152.39 207.662 152.803 206.689C153.608 204.785 154.406 202.874 155.183 200.963C156.709 197.183 158.249 193.417 159.698 189.609C160.104 188.545 160.496 187.509 160.902 186.417C161.308 185.325 161.819 184.191 162.134 183.05C162.155 183.029 162.064 182.987 162.036 183.043Z" fill="#263238"/>
<path opacity="0.1" d="M162.232 201.425L153.958 221.62C153.958 221.62 128.24 187.719 120.169 171.675C115.899 163.198 114.716 157.472 117.369 155.54C121.632 155.659 124.586 155.729 124.586 155.729L162.232 201.425Z" fill="black"/>
<path d="M158.984 290.087L50.3999 290.402C50.3999 290.402 59.8709 208.691 99.7499 160.419C108.976 149.219 123.837 155.323 130.102 161.252C145.992 176.309 159.292 289.695 158.984 290.087Z" fill="#FFC727"/>
<path d="M122.283 156.247C117.642 159.6 113.183 163.247 108.668 166.747C106.337 168.546 104.069 170.457 101.633 172.102C99.68 173.418 97.433 174.51 95.039 174.377C93.453 174.26 91.9431 173.651 90.72 172.634C90.797 172.508 90.888 172.375 90.972 172.249C91.4744 172.655 92.0244 172.998 92.61 173.271C95.011 174.37 97.622 173.824 99.855 172.571C102.326 171.213 104.503 169.288 106.729 167.566L114.016 161.91C116.529 159.964 119.021 157.864 121.632 155.96L122.283 156.247ZM106.183 212.205C108.584 208.768 109.753 204.155 108.283 200.123C106.932 196.518 103.705 194.145 100.044 193.263C96.2291 192.361 92.218 192.834 88.718 194.6C84.147 196.917 80.822 201.033 76.713 204.008C75.5542 204.841 74.3078 205.545 72.996 206.108C72.877 206.395 72.765 206.675 72.646 206.955C77.07 205.282 80.346 201.754 83.895 198.744C85.7438 197.064 87.8434 195.682 90.118 194.649C92.0396 193.869 94.0923 193.463 96.166 193.452C100.142 193.41 104.384 194.894 106.666 198.352C109.242 202.237 108.486 207.277 106.141 211.078C100.198 220.71 87.045 220.094 77.217 220.276C73.8427 220.294 70.4766 220.61 67.158 221.221C67.053 221.48 66.962 221.732 66.878 221.991C70.6555 221.297 74.4894 220.957 78.33 220.976C87.899 220.864 100.051 221.018 106.211 212.205H106.183ZM108.584 187.859C117.133 188.832 125.757 186.827 133 182.182C134.932 180.955 136.744 179.549 138.411 177.982C138.334 177.737 138.257 177.499 138.166 177.282C136.419 178.965 134.5 180.459 132.44 181.741C124.94 186.465 115.978 188.298 107.226 186.9C100.009 185.668 93.534 181.23 86.527 179.27C86.387 179.487 86.261 179.704 86.121 179.921C89.1584 180.864 92.1207 182.034 94.983 183.421C99.4 185.423 103.789 187.257 108.612 187.859H108.584ZM100.527 253.757C103.438 250.851 105.181 246.978 105.427 242.872C105.637 239.113 104.44 235.172 101.451 232.687C98.021 229.887 93.359 229.761 89.299 231.077C84.616 232.596 80.983 235.837 77.805 239.477C74.347 243.46 71.316 247.996 67.109 251.251C64.246 253.463 60.641 255.276 56.952 255.514C56.896 255.731 56.847 255.948 56.791 256.165C58.6866 256.063 60.5504 255.635 62.3 254.898C66.92 252.952 70.42 249.473 73.584 245.686C76.916 241.717 80.024 237.286 84.371 234.29C88.165 231.693 93.226 229.999 97.776 231.441C102.018 232.778 104.468 236.705 104.776 241.01C104.902 243.141 104.595 245.276 103.873 247.285C103.151 249.294 102.03 251.136 100.576 252.7C97.195 256.382 92.624 258.671 87.976 260.4C82.5967 262.323 77.1056 263.917 71.533 265.174C65.604 266.574 58.471 267.764 53.501 271.551C53.431 271.922 53.354 272.251 53.291 272.629C58.268 268.464 65.891 267.225 72.051 265.776C77.6052 264.528 83.0759 262.933 88.431 261.002C92.841 259.329 97.202 257.152 100.555 253.757H100.527ZM93.527 271.726C88.746 271.404 84.672 274.393 81.97 278.075C79.17 281.897 77.504 286.391 74.914 290.332H75.698C76.755 288.673 77.665 286.909 78.547 285.208C80.843 280.763 83.363 275.779 88.081 273.476C90.3059 272.33 92.8741 272.041 95.298 272.664C96.3817 273.018 97.3755 273.603 98.2107 274.379C99.0459 275.155 99.7025 276.103 100.135 277.158C101.955 281.281 101.269 285.88 101.535 290.241H102.235C102.025 286.678 102.396 283.073 101.619 279.545C100.73 275.471 98 272.02 93.583 271.726H93.527ZM142.8 287.364C141.176 282.947 141.155 278.145 141.4 273.511C141.946 261.877 144.235 250.138 142.408 238.511C141.008 229.607 137.186 220.577 129.647 215.194C125.811 212.464 120.547 210.707 116.193 213.297C112.497 215.481 110.558 219.905 110.509 224.077C110.446 229.481 112.966 234.542 115.612 239.106C118.258 243.67 121.212 247.898 123.872 252.406C126.532 256.914 128.772 261.555 129.745 266.644C130.642 271.37 130.486 276.236 129.29 280.896C128.468 284.171 127.161 287.304 125.412 290.192H126.203C126.56 289.59 126.903 288.974 127.218 288.358C129.345 284.209 130.596 279.667 130.895 275.014C131.193 270.361 130.533 265.697 128.954 261.31C125.384 251.51 118.202 243.593 113.771 234.199C111.503 229.397 110.04 223.699 112.413 218.631C113.339 216.532 114.921 214.791 116.921 213.668C118.108 213.097 119.398 212.771 120.714 212.71C122.029 212.648 123.344 212.853 124.579 213.311C129.255 214.844 133.154 218.617 135.842 222.635C138.399 226.6 140.198 231.006 141.148 235.627C143.64 246.918 141.673 258.524 140.868 269.885C140.518 274.785 140.217 279.804 141.267 284.648C141.658 286.576 142.35 288.43 143.318 290.143H144.2C143.632 289.271 143.163 288.339 142.8 287.364ZM131.04 203.623C133.308 208.229 137.907 210.735 142.471 212.604C144.165 213.304 145.873 213.941 147.546 214.655C147.504 214.417 147.455 214.186 147.413 213.955C144.76 212.828 142.058 211.855 139.468 210.525C135.065 208.313 130.508 204.323 130.571 198.961C130.627 194.061 135.163 190.561 139.671 189.651C140.388 189.514 141.113 189.425 141.841 189.385C141.785 189.196 141.729 188.993 141.68 188.797C138.611 188.917 135.67 190.057 133.322 192.038C131.681 193.421 130.56 195.323 130.145 197.429C129.73 199.536 130.046 201.72 131.04 203.623Z" fill="white"/>
<path d="M95.5359 189.287C95.5359 215.936 103.999 271.971 119.336 284.179C139.468 300.202 181.447 303.17 194.74 303.492C200.536 303.632 203.749 265.174 199.234 260.925C194.719 256.676 146.391 247.933 142.212 245.931C138.033 243.929 124.495 204.834 113.673 185.157C100.023 160.335 95.5359 166.894 95.5359 189.287Z" fill="#D3766A"/>
<path d="M217.343 268.576C214.809 267.057 215.586 265.72 220.801 265.076C226.016 264.432 247.205 266.21 247.205 258.776C247.205 251.342 217.273 249.221 208.705 250.992C200.137 252.763 186.83 258.629 186.83 258.629C192.542 260.183 206.115 265.335 217.343 268.576Z" fill="#D3766A"/>
<path d="M179.9 301.917C196.245 305.774 216.349 311.563 234.444 305.956C236.469 305.387 238.243 304.154 239.484 302.456C247.639 300.083 248.969 295.526 248.969 295.526C255.892 290.99 256.613 286.139 256.613 286.139C256.613 286.139 266.154 283.255 265.37 277.193C264.509 270.396 251.272 275.793 242.186 274.288C221.361 270.872 192.724 260.19 186.816 258.608L179.9 301.917Z" fill="#D3766A"/>
<path d="M217.833 286.041C223.979 286.923 229.999 287.952 236.236 287.994C243.075 288.043 249.662 286.944 256.403 285.999C256.442 285.998 256.48 286.011 256.51 286.035C256.541 286.059 256.562 286.093 256.57 286.131C256.578 286.169 256.573 286.209 256.555 286.243C256.538 286.278 256.509 286.305 256.473 286.321C244.573 289.968 229.754 289.751 217.791 286.321C217.497 286.237 217.525 285.992 217.833 286.041Z" fill="#263238"/>
<path d="M213.948 298.305C219.975 298.83 230.58 299.705 248.913 295.316C248.969 295.316 249.018 295.4 248.955 295.428C237.426 299.852 225.981 300.678 213.955 298.592C213.549 298.529 213.542 298.27 213.948 298.305Z" fill="#263238"/>
<path d="M211.981 304.934C222.264 305.445 228.816 304.458 239.421 302.414C239.484 302.414 239.519 302.498 239.456 302.519C227.647 306.117 222.95 306.082 211.911 305.319C211.533 305.263 211.575 304.92 211.981 304.934Z" fill="#263238"/>
<path d="M129.199 215.362L95.41 239.561C95.41 239.561 91.6439 197.176 93.31 179.298C95.074 160.671 101.283 157.451 112.581 179.501C123.984 201.691 129.199 215.362 129.199 215.362Z" fill="#FFC727"/>
<path d="M102.949 234.171L102.354 234.591C101.179 233.105 99.5835 232.008 97.7759 231.441C96.7845 231.13 95.7554 230.956 94.7169 230.923L94.6749 230.279C97.1527 230.298 99.5529 231.145 101.493 232.687C102.03 233.128 102.518 233.626 102.949 234.171ZM101.633 172.095C103.159 171.059 104.629 169.925 106.078 168.77C105.98 168.623 105.861 168.49 105.756 168.35C103.912 169.925 101.938 171.342 99.8549 172.585C98.1242 173.633 96.0792 174.037 94.0799 173.726C94.0799 173.887 94.0169 174.055 93.9889 174.223C94.3351 174.296 94.6859 174.346 95.0389 174.37C97.4399 174.503 99.6799 173.411 101.633 172.095ZM100.037 193.263C97.6951 192.71 95.261 192.674 92.9039 193.158C92.9039 193.389 92.9039 193.613 92.9039 193.858C93.974 193.63 95.0648 193.513 96.1589 193.508C100.135 193.466 104.377 194.95 106.659 198.408C109.235 202.293 108.479 207.333 106.134 211.134C103.334 215.705 98.8609 217.966 93.9189 219.107L93.9609 219.807C98.8119 218.701 103.222 216.538 106.218 212.254C108.619 208.817 109.788 204.204 108.318 200.172C106.925 196.518 103.698 194.145 100.037 193.263ZM116.487 187.201C113.401 187.523 110.285 187.425 107.226 186.907C102.326 186.067 97.7619 183.75 93.1419 181.741L93.0999 182.588L94.9829 183.435C99.3719 185.423 103.789 187.257 108.612 187.859C111.341 188.189 114.098 188.201 116.83 187.894L116.487 187.201ZM128.961 214.739C125.209 212.282 120.302 210.868 116.2 213.339C112.504 215.523 110.565 219.947 110.516 224.119C110.506 225.57 110.663 227.016 110.985 228.431L111.615 227.99C110.845 224.871 111.128 221.586 112.42 218.645C113.346 216.546 114.928 214.805 116.928 213.682C118.115 213.111 119.405 212.785 120.721 212.724C122.036 212.662 123.351 212.867 124.586 213.325C126.152 213.847 127.635 214.592 128.989 215.537L129.199 215.39C129.199 215.39 129.122 215.152 128.961 214.739Z" fill="white"/>
<path d="M122.759 211.176C121.891 211.659 121.079 212.268 120.26 212.828L117.726 214.55C116.011 215.712 114.324 216.902 112.637 218.106C109.263 220.5 105.889 222.887 102.557 225.337C101.64 226.037 100.73 226.688 99.8339 227.388C98.9379 228.088 97.9999 228.928 97.0339 229.656C96.9709 229.698 97.0339 229.782 97.1039 229.74C97.9579 229.173 98.8609 228.676 99.7149 228.109C100.569 227.542 101.465 226.94 102.326 226.338C104.02 225.153 105.707 223.956 107.387 222.747C110.684 220.36 113.995 217.987 117.243 215.537L119.959 213.437C120.911 212.737 121.919 212.037 122.759 211.239C122.864 211.232 122.815 211.148 122.759 211.176Z" fill="#263238"/>
<path d="M119.287 189C119.287 188.916 119.133 188.958 119.147 189.042C119.391 190.638 119.759 192.213 120.246 193.753C119.924 193.088 119.616 192.416 119.287 191.751C118.23 189.609 117.138 187.481 116.088 185.339C116.079 185.325 116.065 185.315 116.049 185.311C116.033 185.306 116.016 185.307 116.001 185.314C115.986 185.321 115.974 185.333 115.967 185.347C115.96 185.362 115.958 185.379 115.962 185.395C117.537 189.252 118.958 193.186 120.652 197.001C122.346 200.816 124.033 204.624 125.783 208.411C126.749 210.511 128.1 213.003 129.073 215.089C128.198 215.929 126.91 216.776 125.951 217.665C125.867 217.742 126 217.868 126.098 217.805C127.211 217.014 128.695 216.272 129.787 215.327C129.927 215.208 123.963 201.572 120.925 195.181C120.435 193.074 119.903 191.002 119.287 189Z" fill="#263238"/>
<path d="M100.66 236.124C99.6983 236.548 98.7632 237.029 97.8599 237.566C97.1109 238.007 96.4109 238.511 95.6969 238.966C95.6969 237.762 95.5499 236.551 95.4729 235.354C95.3749 233.926 95.2792 232.498 95.1859 231.07C94.9969 228.214 94.8009 225.358 94.6259 222.502C94.4509 219.646 94.2479 216.79 94.0799 213.927C93.9119 211.064 93.7859 208.208 93.5549 205.352C93.2959 202.139 93.0579 198.919 92.8129 195.706C92.8129 195.676 92.8011 195.648 92.7801 195.627C92.7591 195.606 92.7306 195.594 92.7009 195.594C92.6712 195.594 92.6427 195.606 92.6217 195.627C92.6007 195.648 92.5889 195.676 92.5889 195.706C92.5515 198.674 92.5515 201.642 92.5889 204.61C92.1549 202.909 91.5809 201.236 91.2309 199.514C91.2262 199.486 91.2107 199.461 91.1877 199.445C91.1648 199.428 91.1362 199.422 91.1084 199.426C91.0805 199.431 91.0556 199.447 91.0392 199.47C91.0228 199.493 91.0162 199.521 91.0209 199.549C91.1679 201.768 91.4969 204.141 92.6239 206.094C92.6799 208.411 92.7499 210.735 92.8689 213.059C93.1559 218.778 93.5059 224.49 93.9959 230.202C94.1359 231.805 94.2759 233.408 94.4299 235.018C94.5839 236.628 94.6679 238.196 94.9689 239.743C94.9874 239.803 95.0214 239.858 95.0674 239.901C95.1135 239.945 95.17 239.975 95.2315 239.99C95.2929 240.005 95.3572 240.003 95.4179 239.986C95.4787 239.968 95.5338 239.935 95.5779 239.89C96.3729 239.187 97.2149 238.539 98.0979 237.951C98.9379 237.349 99.7989 236.775 100.667 236.215C100.8 236.208 100.73 236.096 100.66 236.124Z" fill="#263238"/>
<path d="M133.462 164.633C133.525 166.362 133.497 168.094 133.378 169.82C133.319 171.378 133.113 172.928 132.762 174.447C132.062 177.198 130.389 179.865 127.428 180.957C126.052 181.405 124.6 181.574 123.157 181.454C121.715 181.334 120.311 180.927 119.028 180.257C116.291 178.913 114.023 176.799 111.93 174.734C110.635 173.453 109.389 172.123 108.213 170.744C107.618 170.044 107.023 169.344 106.463 168.644C105.903 167.944 105.378 167.167 104.776 166.474C104.727 166.418 104.608 166.474 104.65 166.544C105.854 168.203 109.55 173.474 110.691 174.748C112.791 177.065 115.101 179.417 117.957 180.971C120.708 182.567 123.974 183.025 127.057 182.245C128.525 181.823 129.861 181.034 130.938 179.951C132.015 178.868 132.797 177.527 133.21 176.057C133.688 174.299 133.905 172.481 133.854 170.66C133.854 168.658 133.735 166.656 133.567 164.675C133.504 164.605 133.462 164.612 133.462 164.633Z" fill="#263238"/>
<path d="M124.348 176.33C117.677 176.988 107.919 165.634 104.615 157.059C104.391 156.471 109.613 134.862 110.215 130.459C110.327 129.563 136.878 140.854 136.878 140.854C136.878 140.854 132.93 149.688 131.978 157.346C131.866 158.004 130.788 175.7 124.348 176.33Z" fill="#D3766A"/>
<path d="M136.871 140.868C136.871 140.868 132.923 149.702 131.936 157.36C131.936 157.514 131.845 158.62 131.663 160.223C118.727 157.255 111.475 148.099 107.863 141.729C108.955 136.829 109.963 132.258 110.187 130.48C110.327 129.577 136.871 140.868 136.871 140.868Z" fill="#263238"/>
<path d="M135.856 87.542C137.459 87.346 146.286 97.986 147.154 103.551C148.022 109.116 147.658 120.505 146.048 120.939C144.438 121.373 134.617 87.696 135.856 87.542Z" fill="#263238"/>
<path d="M100.597 103.369C97.8459 113.288 103.803 141.589 110.978 147.749C121.387 156.667 138.047 157.108 145.551 144.697C152.817 132.671 144.41 95.921 136.451 90.37C124.67 82.187 104.657 88.704 100.597 103.369Z" fill="#D3766A"/>
<path d="M124.803 114.058C124.045 114.459 123.267 114.821 122.472 115.143C121.569 115.556 120.897 115.976 119.882 115.808C119.599 115.73 119.35 115.561 119.174 115.327C118.998 115.092 118.905 114.806 118.909 114.513C119 113.26 119.973 112.483 121.009 111.944C122.062 111.367 123.293 111.205 124.46 111.489C124.729 111.559 124.971 111.708 125.155 111.916C125.339 112.124 125.457 112.383 125.494 112.658C125.531 112.934 125.485 113.214 125.362 113.463C125.239 113.713 125.044 113.92 124.803 114.058Z" fill="#263238"/>
<path d="M125.888 120.351C125.888 120.288 125.762 120.477 125.79 120.554C126.322 122.437 126.623 124.67 125.09 125.734C125.041 125.734 125.09 125.86 125.132 125.832C127.12 125.013 126.7 122.045 125.888 120.351Z" fill="#263238"/>
<path d="M123.704 118.804C120.603 119.336 121.898 125.496 124.775 125.006C127.652 124.516 126.301 118.356 123.704 118.804Z" fill="#263238"/>
<path d="M136.822 117.775C136.822 117.698 136.99 117.831 137.004 117.908C137.347 119.833 138.061 121.975 139.923 122.248C139.979 122.248 139.993 122.353 139.923 122.353C137.76 122.5 136.836 119.651 136.822 117.775Z" fill="#263238"/>
<path d="M138.11 115.423C141.127 114.541 142.667 120.652 139.867 121.464C137.067 122.276 135.576 116.158 138.11 115.423Z" fill="#263238"/>
<path d="M139.65 111.3C138.787 111.306 137.925 111.266 137.067 111.181C136.073 111.118 135.282 111.181 134.456 110.551C134.242 110.35 134.1 110.084 134.053 109.794C134.007 109.504 134.057 109.206 134.197 108.948C134.862 107.877 136.087 107.646 137.284 107.66C138.49 107.646 139.659 108.077 140.567 108.871C140.772 109.06 140.916 109.306 140.98 109.578C141.045 109.849 141.026 110.134 140.928 110.395C140.829 110.656 140.655 110.881 140.427 111.043C140.2 111.204 139.929 111.294 139.65 111.3Z" fill="#263238"/>
<path d="M128.009 137.9C128.555 138.25 129.143 138.768 129.85 138.677C130.555 138.513 131.218 138.203 131.796 137.767C131.808 137.758 131.823 137.754 131.838 137.754C131.853 137.755 131.868 137.76 131.88 137.77C131.892 137.779 131.9 137.792 131.904 137.807C131.908 137.821 131.907 137.837 131.901 137.851C131.705 138.283 131.398 138.654 131.01 138.926C130.622 139.198 130.168 139.361 129.696 139.398C129.283 139.373 128.887 139.227 128.557 138.978C128.227 138.729 127.978 138.388 127.841 137.998C127.785 137.949 127.925 137.9 128.009 137.9Z" fill="#263238"/>
<path d="M128.8 131.789C129.444 132.442 130.216 132.955 131.068 133.296C131.919 133.637 132.832 133.798 133.749 133.77C134.55 133.754 135.344 133.624 136.108 133.385C136.26 133.352 136.408 133.303 136.549 133.238L136.948 133.084C137.046 133.044 137.128 132.974 137.181 132.882C137.234 132.791 137.256 132.685 137.242 132.58C137.227 132.513 137.206 132.447 137.179 132.384L137.137 132.216C136.871 130.739 136.255 128.534 136.255 128.534C136.85 128.695 139.846 129.346 139.643 128.59C137.928 122.29 136.017 115.332 132.986 109.452C132.968 109.41 132.934 109.376 132.892 109.357C132.85 109.339 132.803 109.337 132.759 109.352C132.716 109.367 132.679 109.398 132.658 109.439C132.636 109.479 132.631 109.527 132.643 109.571C134.043 115.668 136.528 121.471 138.047 127.582C137.102 127.428 135.548 127.12 134.785 127.295C134.589 127.4 136.045 131.537 136.108 132.195C136.111 132.218 136.111 132.242 136.108 132.265C133.7 133.105 131.684 132.748 128.94 131.565C128.8 131.502 128.66 131.663 128.8 131.789Z" fill="#263238"/>
<path d="M135.1 132.818C134.516 134.039 133.626 135.088 132.517 135.863C131.894 136.268 131.16 136.469 130.417 136.437C128.807 136.36 128.478 134.967 128.506 133.714C128.523 133.044 128.622 132.379 128.8 131.733C130.729 132.76 132.938 133.141 135.1 132.818Z" fill="#263238"/>
<path d="M132.51 135.863C131.887 136.268 131.153 136.469 130.41 136.437C128.8 136.36 128.471 134.967 128.499 133.714C130.2 133.532 132.034 134.302 132.51 135.863Z" fill="#FF97B8"/>
<path d="M104.517 128.016C109.655 127.645 111.23 121.618 111.692 113.456C111.965 108.689 109.263 99.722 109.263 99.722C109.263 99.722 123.179 103.691 130.41 101.822C137.641 99.953 142.884 92.659 141.61 86.961C140.525 82.061 131.166 76.993 120.134 78.302C112.434 79.212 100.534 87.402 96.1659 96.565C96.1659 96.565 87.2969 102.711 89.9009 109.746C92.5049 116.781 98.6999 128.436 104.517 128.016Z" fill="#263238"/>
<path d="M104.783 127.4C111.678 127.736 113.582 117.124 112.903 111.867C112.203 106.407 109.214 101.248 107.415 96.096C107.415 96.096 107.415 96.054 107.457 96.096C110.754 102.165 114.506 109.914 113.407 116.998C112.707 121.457 110.733 128.968 104.762 127.799C104.559 127.715 104.566 127.4 104.783 127.4Z" fill="#263238"/>
<path d="M88.0949 107.8C88.3119 103.18 92.6939 97.944 96.8029 96.201C96.8379 96.201 96.8659 96.25 96.8029 96.271C91.9939 98.966 87.0029 105.826 89.5369 111.3C91.5529 115.675 94.7309 121.359 98.4479 124.488C98.5459 124.572 98.4479 124.705 98.3219 124.635C95.4659 122.577 93.8699 119.546 92.0709 116.585C90.5309 114.03 87.9479 111.02 88.0949 107.8Z" fill="#263238"/>
<path d="M95.3119 97.426C99.9319 87.801 111.363 75.866 122.913 76.72V76.776C110.824 76.888 101.801 88.676 95.7669 97.727C95.5849 98 95.1999 97.699 95.3119 97.426Z" fill="#263238"/>
<path d="M107.8 127.799C107.8 127.799 101.017 118.846 96.9219 121.296C92.8269 123.746 98.1749 136.892 103.145 138.53C103.768 138.784 104.435 138.91 105.108 138.899C105.78 138.889 106.444 138.743 107.059 138.469C107.673 138.196 108.226 137.801 108.684 137.309C109.143 136.817 109.496 136.237 109.725 135.604L107.8 127.799Z" fill="#D3766A"/>
<path d="M98.5389 125.027C98.4619 125.027 98.4549 125.132 98.5389 125.16C102.039 126.42 103.964 129.535 105.35 132.79C104.286 131.558 102.865 130.914 101.206 132.195C101.115 132.265 101.206 132.398 101.304 132.377C101.9 132.16 102.549 132.133 103.162 132.301C103.774 132.469 104.318 132.824 104.72 133.315C105.388 134.14 105.965 135.034 106.442 135.982C106.61 136.283 107.142 136.101 107.03 135.751C107.03 135.751 107.03 135.695 107.03 135.674C106.904 131.292 103.264 125.3 98.5389 125.027Z" fill="#263238"/>
<path d="M315.7 250.859C306.446 263.396 296.8 277.942 294.441 293.664C294.441 293.902 294.798 293.979 294.854 293.748C295.916 289.456 297.282 285.246 298.942 281.148C305.032 279.475 311.003 278.103 314.202 272.048C317.457 265.839 317.044 257.74 316.428 250.978C316.351 250.635 315.854 250.6 315.7 250.859Z" fill="#FFC727"/>
<path d="M299.005 281.043C303.163 271.705 308.497 262.339 315.287 254.667C315.329 254.611 315.399 254.667 315.357 254.737C310.919 260.204 307.538 266.154 304.241 272.237C307.307 269.129 310.667 266.343 313.572 263.039C313.628 262.976 313.719 263.039 313.663 263.137C310.779 266.595 307.629 270.354 303.863 272.937C302.855 274.804 301.838 276.67 300.811 278.537C301.063 278.397 301.322 278.271 301.581 278.138C301.63 278.138 301.665 278.187 301.623 278.208C301.336 278.355 301.049 278.509 300.755 278.628C300.272 279.51 299.789 280.399 299.285 281.274C299.187 281.4 298.9 281.239 299.005 281.043Z" fill="#263238"/>
<path d="M302.099 277.781C304.587 276.389 306.963 274.804 309.204 273.042C309.26 272.993 309.351 273.077 309.288 273.126C307.118 275.003 304.739 276.624 302.197 277.956C302.174 277.969 302.146 277.972 302.121 277.965C302.095 277.958 302.074 277.941 302.061 277.918C302.048 277.894 302.044 277.867 302.051 277.841C302.059 277.816 302.076 277.794 302.099 277.781Z" fill="#263238"/>
<path d="M293.335 291.333C293.343 291.373 293.365 291.408 293.396 291.434C293.427 291.459 293.466 291.473 293.507 291.473C293.547 291.473 293.586 291.459 293.617 291.434C293.649 291.408 293.67 291.373 293.678 291.333C293.727 286.16 293.678 280.959 293.755 275.758C295.085 273.077 297.955 271.6 299.908 269.458C301.334 267.894 302.574 266.17 303.604 264.32C305.989 259.898 307.446 255.037 307.888 250.033C308.434 244.496 306.334 226.233 303.996 226.856C302.785 227.185 298.872 236.236 297.829 239.232C296.146 244.167 294.913 249.244 294.147 254.401C292.257 266.56 292.411 279.069 293.335 291.333Z" fill="#FFC727"/>
<path d="M293.3 268.996C293.587 262.444 295.064 255.829 296.443 249.473C297.934 242.627 299.67 236.173 303.191 230.076C303.208 230.059 303.229 230.048 303.253 230.046C303.276 230.043 303.3 230.048 303.32 230.06C303.34 230.072 303.356 230.09 303.364 230.112C303.372 230.134 303.373 230.159 303.366 230.181C301.018 234.93 299.201 239.923 297.948 245.07C298.179 244.699 298.466 244.37 298.711 243.999C298.809 243.866 299.04 243.999 298.942 244.132C298.629 244.686 298.261 245.206 297.843 245.686C297.827 245.691 297.81 245.691 297.794 245.686C296.583 250.586 295.694 255.584 294.994 260.575L295.162 260.386C295.17 260.379 295.181 260.375 295.192 260.374C295.203 260.374 295.214 260.377 295.223 260.384C295.231 260.39 295.238 260.399 295.241 260.41C295.244 260.421 295.243 260.432 295.239 260.442C295.148 260.61 295.043 260.771 294.938 260.939C294.567 263.473 294.238 266 293.867 268.506C298.382 264.649 302.232 260.106 304.409 254.506C304.409 254.506 304.458 254.506 304.451 254.506C302.316 260.316 298.963 265.475 293.797 269.003C293.699 269.703 293.608 270.354 293.51 271.026C293.51 271.166 293.272 271.124 293.272 270.991C293.272 270.396 293.272 269.794 293.321 269.199C293.306 269.187 293.293 269.173 293.284 269.156C293.274 269.139 293.269 269.121 293.267 269.102C293.265 269.083 293.267 269.064 293.272 269.046C293.278 269.027 293.288 269.01 293.3 268.996Z" fill="#263238"/>
<path d="M295.4 259.504C298.844 254.359 302.064 249.361 304.591 243.67C304.591 243.607 304.724 243.67 304.703 243.719C302.603 249.368 299.6 255.094 295.568 259.637C295.519 259.7 295.358 259.609 295.4 259.504Z" fill="#263238"/>
<path d="M300.006 242.403C301.406 239.876 302.939 237.412 304.283 234.836C304.325 234.766 304.423 234.836 304.395 234.899C303.278 237.588 301.869 240.147 300.195 242.529C300.132 242.662 299.922 242.55 300.006 242.403Z" fill="#263238"/>
<path d="M289.835 276.353C289.762 279.786 289.357 283.204 288.624 286.559C288.68 286.923 288.729 287.294 288.785 287.672C289.84 283.968 290.451 280.152 290.605 276.304C290.636 276.251 290.653 276.191 290.653 276.129C290.653 276.067 290.636 276.007 290.605 275.954C290.754 270.795 290.369 265.634 289.457 260.554C287.854 251.041 284.354 241.906 277.718 234.78C277.664 234.738 277.602 234.709 277.536 234.693C277.469 234.678 277.401 234.677 277.334 234.691C277.267 234.705 277.205 234.734 277.15 234.774C277.096 234.815 277.05 234.867 277.018 234.927C274.344 241.738 275.275 249.865 277.557 256.627C278.787 260.308 280.554 263.787 282.8 266.952C285.082 270.151 287.987 272.86 289.835 276.353Z" fill="#FFC727"/>
<path d="M278.523 237.944C284.823 248.15 289.191 260.253 289.723 272.307C289.723 272.524 289.373 272.58 289.345 272.363C289.191 271.278 289.03 270.2 288.855 269.136C286.251 266.644 283.577 264.019 281.715 260.904C281.68 260.848 281.764 260.785 281.806 260.834C283.965 263.482 286.279 266 288.736 268.373C288.288 265.713 287.756 263.088 287.119 260.505L286.622 259.917C286.517 259.791 286.699 259.602 286.811 259.728L286.958 259.896C286.075 256.354 284.978 252.869 283.675 249.459C282.072 247.548 280.28 245.896 279.118 243.6C279.118 243.544 279.16 243.502 279.202 243.551C280.14 244.867 281.043 246.19 282.107 247.408C282.534 247.898 282.996 248.353 283.437 248.808C281.986 245.109 280.264 241.523 278.285 238.077C278.276 238.047 278.278 238.014 278.29 237.985C278.302 237.956 278.324 237.932 278.351 237.916C278.379 237.901 278.411 237.895 278.442 237.9C278.473 237.905 278.502 237.921 278.523 237.944Z" fill="#263238"/>
<path d="M279.797 250.537C281.827 253.267 284.144 255.878 286.034 258.706C286.09 258.79 285.971 258.874 285.901 258.811C283.5 256.529 281.4 253.4 279.657 250.6C279.601 250.523 279.734 250.453 279.797 250.537Z" fill="#263238"/>
<path d="M286.3 259.343L286.384 259.427C286.447 259.49 286.384 259.581 286.293 259.518L286.202 259.434C286.195 259.421 286.194 259.405 286.196 259.391C286.199 259.376 286.206 259.363 286.217 259.352C286.228 259.342 286.242 259.336 286.257 259.334C286.272 259.332 286.287 259.336 286.3 259.343Z" fill="#263238"/>
<path d="M268.667 257.6C269.178 262.85 271.936 269.122 275.303 273.168C276.784 274.928 278.618 276.359 280.686 277.368C283.017 278.523 285.46 279.853 287.868 280.798C289.015 283.716 289.868 286.741 290.416 289.828C290.493 289.569 290.57 289.296 290.647 289.03C289.1 275.73 280.497 264.369 269.493 257.075C269.406 257.019 269.306 256.99 269.203 256.989C269.1 256.989 268.999 257.018 268.912 257.073C268.825 257.129 268.756 257.207 268.713 257.301C268.669 257.394 268.653 257.498 268.667 257.6Z" fill="#FFC727"/>
<path d="M272.475 261.492C272.398 261.422 272.475 261.282 272.587 261.345C278.623 265.847 283.436 271.789 286.587 278.628C286.664 278.81 286.419 278.971 286.314 278.789C285.803 277.893 285.278 277.018 284.746 276.164C282.233 275.695 279.846 273.924 277.991 272.244C277.942 272.202 277.991 272.125 278.068 272.174C279.036 273.045 280.108 273.793 281.26 274.4C282.282 274.918 283.36 275.247 284.452 275.66C283.521 274.183 282.548 272.769 281.54 271.39C278.825 270.361 276.279 268.931 273.987 267.148C273.917 267.099 273.987 266.98 274.057 267.029C276.323 268.401 278.66 269.653 281.057 270.781C279.524 268.757 277.869 266.828 276.101 265.006C275.247 264.551 274.379 264.096 273.553 263.606C273.49 263.564 273.553 263.452 273.609 263.473C274.295 263.717 274.95 264.039 275.562 264.432C274.589 263.452 273.567 262.458 272.475 261.492Z" fill="#263238"/>
<path d="M272.706 266.084C272.854 266.172 272.995 266.273 273.126 266.385C273.168 266.42 273.126 266.476 273.077 266.455C272.923 266.385 272.775 266.3 272.636 266.203C272.559 266.154 272.629 266.035 272.706 266.084Z" fill="#263238"/>
<path d="M307.818 318.591H277.669L280.098 291.123L280.637 285.068H304.85L305.389 291.123L307.818 318.591Z" fill="#455A64"/>
<path d="M305.389 291.123H280.098L280.637 285.068H304.85L305.389 291.123Z" fill="#263238"/>
<path d="M306.299 280.833H279.195V286.825H306.299V280.833Z" fill="#455A64"/>
<path d="M245.952 61.11C245.664 58.8974 245.505 56.67 245.476 54.439C245.42 52.2104 245.497 49.9804 245.707 47.761C245.996 49.9734 246.152 52.201 246.176 54.432C246.23 56.6604 246.156 58.8902 245.952 61.11Z" fill="#A6A6A6"/>
<path d="M215.481 69.608C214.124 67.8379 212.874 65.989 211.736 64.071C210.577 62.169 209.53 60.201 208.6 58.177C209.956 59.941 211.204 61.7854 212.338 63.7C213.503 65.6047 214.552 67.5776 215.481 69.608Z" fill="#A6A6A6"/>
<path d="M193.347 92.204C191.287 91.3501 189.279 90.3754 187.334 89.285C185.375 88.2193 183.481 87.0365 181.664 85.743C183.723 86.6008 185.731 87.5778 187.677 88.669C189.635 89.7348 191.528 90.9152 193.347 92.204Z" fill="#A6A6A6"/>
<path d="M185.5 122.843C183.29 123.131 181.065 123.29 178.836 123.319C176.607 123.375 174.377 123.298 172.158 123.088C176.585 122.545 181.056 122.462 185.5 122.843Z" fill="#A6A6A6"/>
<path d="M193.977 153.3C192.206 154.653 190.357 155.901 188.44 157.038C186.538 158.204 184.568 159.253 182.539 160.181C184.309 158.826 186.158 157.578 188.076 156.443C189.978 155.277 191.948 154.228 193.977 153.3Z" fill="#A6A6A6"/>
<path d="M299.81 152.222C303.925 153.954 307.844 156.12 311.5 158.683C307.393 156.939 303.478 154.774 299.817 152.222H299.81Z" fill="#A6A6A6"/>
<path d="M307.685 121.583C309.895 121.294 312.12 121.138 314.349 121.114C316.577 121.052 318.808 121.127 321.027 121.338C318.817 121.627 316.592 121.783 314.363 121.807C312.134 121.869 309.904 121.794 307.685 121.583Z" fill="#A6A6A6"/>
<path d="M299.187 91.112C300.955 89.7577 302.801 88.5095 304.717 87.374C306.619 86.2083 308.589 85.1587 310.618 84.231C308.849 85.5876 307 86.8359 305.081 87.969C303.181 89.1333 301.213 90.1828 299.187 91.112Z" fill="#A6A6A6"/>
<path d="M276.584 68.978C277.444 66.931 278.421 64.935 279.51 63C280.574 61.0412 281.755 59.1478 283.045 57.33C282.191 59.3877 281.216 61.3932 280.126 63.336C279.057 65.2844 277.874 67.1683 276.584 68.978Z" fill="#A6A6A6"/>
<path d="M185.598 81.529L191.443 80.444L192.752 74.284L194.061 80.444L199.906 81.529L194.082 82.957L192.752 88.774L191.422 82.957L185.598 81.529Z" fill="#FFC727"/>
<path d="M279.818 184.009L285.663 182.931L286.972 176.764L288.274 182.931L294.126 184.016L288.302 185.437L286.972 191.261L285.642 185.437L279.818 184.009Z" fill="#FFC727"/>
<path d="M202.363 171.08L205.632 170.478L206.36 167.034L207.095 170.478L210.364 171.08L207.109 171.878L206.36 175.133L205.618 171.878L202.363 171.08Z" fill="#FFC727"/>
<path d="M220.15 65.611L223.412 65.002L224.147 61.558L224.875 65.002L228.144 65.611L224.889 66.402L224.147 69.657L223.398 66.402L220.15 65.611Z" fill="#FFC727"/>
<path d="M206.36 187.187C206.597 187.167 206.819 187.058 206.98 186.882C207.141 186.707 207.23 186.477 207.23 186.238C207.23 186 207.141 185.77 206.98 185.595C206.819 185.419 206.597 185.31 206.36 185.29C206.122 185.31 205.901 185.419 205.74 185.595C205.579 185.77 205.49 186 205.49 186.238C205.49 186.477 205.579 186.707 205.74 186.882C205.901 187.058 206.122 187.167 206.36 187.187Z" fill="#FFC727"/>
<path d="M298.571 175.133C298.716 175.091 298.844 175.002 298.935 174.881C299.026 174.76 299.075 174.612 299.075 174.461C299.075 174.31 299.026 174.162 298.935 174.041C298.844 173.92 298.716 173.831 298.571 173.789C298.426 173.831 298.298 173.92 298.207 174.041C298.116 174.162 298.067 174.31 298.067 174.461C298.067 174.612 298.116 174.76 298.207 174.881C298.298 175.002 298.426 175.091 298.571 175.133Z" fill="#FFC727"/>
<path d="M202.811 87.626C202.954 87.5817 203.078 87.4929 203.167 87.3726C203.256 87.2523 203.303 87.1069 203.303 86.9575C203.303 86.8081 203.256 86.6627 203.167 86.5424C203.078 86.4221 202.954 86.3333 202.811 86.289C202.668 86.3333 202.544 86.4221 202.455 86.5424C202.366 86.6627 202.319 86.8081 202.319 86.9575C202.319 87.1069 202.366 87.2523 202.455 87.3726C202.544 87.4929 202.668 87.5817 202.811 87.626Z" fill="#FFC727"/>
<path d="M312.151 97.818C312.296 97.7756 312.424 97.6872 312.515 97.566C312.606 97.4448 312.655 97.2974 312.655 97.146C312.655 96.9945 312.606 96.8472 312.515 96.726C312.424 96.6048 312.296 96.5164 312.151 96.474C312.006 96.5164 311.878 96.6048 311.787 96.726C311.696 96.8472 311.647 96.9945 311.647 97.146C311.647 97.2974 311.696 97.4448 311.787 97.566C311.878 97.6872 312.006 97.7756 312.151 97.818Z" fill="#FFC727"/>
<path d="M303.569 103.978C305.907 103.978 305.907 100.345 303.569 100.345C301.231 100.345 301.224 103.978 303.569 103.978Z" fill="#FFC727"/>
<g opacity="0.5">
<path opacity="0.5" d="M298.438 125.3C295.862 157.5 269.038 167.209 269.038 167.209C267.064 172.109 264.495 184.562 264.495 184.562H228.669C228.669 184.562 226.1 172.109 224.126 167.209C224.126 167.209 197.295 157.5 194.726 125.3C192.941 102.9 208.873 69.839 246.386 69.832H246.771C284.284 69.867 300.223 102.949 298.438 125.3Z" fill="#FFC727"/>
</g>
<g opacity="0.7">
<path opacity="0.7" d="M294 125.489C291.655 154.945 267.113 163.8 267.113 163.8C265.307 168.28 262.962 184.569 262.962 184.569H230.202C230.202 184.569 227.85 168.28 226.044 163.8C226.044 163.8 201.502 154.924 199.15 125.468C197.519 105 212.1 74.767 246.4 74.76H246.757C281.064 74.767 295.645 105 294 125.489Z" fill="#FFC727"/>
</g>
<path d="M228.383 131.03L226.319 131.416L236.851 187.806L238.916 187.42L228.383 131.03Z" fill="white"/>
<path d="M264.765 131.033L254.272 187.43L256.336 187.814L266.829 131.417L264.765 131.033Z" fill="white"/>
<path d="M246.582 149.884C243.376 149.884 240.436 146.888 238.371 143.059C238.018 143.547 237.564 143.954 237.039 144.251C236.515 144.548 235.933 144.729 235.333 144.781C230.104 144.781 227.99 133.917 227.899 133.455L228.599 133.329C228.599 133.434 230.699 144.081 235.34 144.081C236.264 144.081 237.195 143.437 238.042 142.401C236.434 139.285 235.531 135.853 235.396 132.349C235.396 129.346 236.509 127.624 238.462 127.624C240.737 127.624 242.039 129.458 242.039 132.65C241.926 136.15 240.827 139.547 238.868 142.45C240.821 146.202 243.607 149.191 246.568 149.191C248.808 149.191 251.048 147.441 252.868 144.291C253.029 144.004 253.19 143.71 253.344 143.409C251.244 141.155 250.075 137.459 250.075 133.938C250.075 130.067 251.517 127.638 253.834 127.638C254.28 127.637 254.717 127.761 255.096 127.994C255.476 128.228 255.783 128.563 255.983 128.961C257.551 131.67 256.683 138.18 254.184 143.276C255.158 144.259 256.482 144.815 257.866 144.823C261.856 144.823 264.866 134.113 264.908 134.008L265.608 134.197C265.475 134.659 262.409 145.523 257.908 145.523C256.418 145.509 254.989 144.928 253.911 143.899L253.512 144.599C252.112 147 249.788 149.884 246.582 149.884ZM253.869 128.324C251.608 128.324 250.81 131.327 250.81 133.924C250.81 136.724 251.748 140.462 253.701 142.737C255.976 137.914 256.83 131.768 255.416 129.318C255.28 129.022 255.063 128.77 254.788 128.594C254.514 128.418 254.195 128.324 253.869 128.324ZM238.469 128.324C236.411 128.324 236.103 130.844 236.103 132.349C236.239 135.621 237.067 138.828 238.532 141.757C240.277 139.036 241.246 135.889 241.332 132.657C241.332 131.033 240.954 128.324 238.455 128.324H238.469Z" fill="white"/>
<path d="M269.017 184.632H224.147V209.328H269.017V184.632Z" fill="#455A64"/>
<path d="M263.9 209.3C261.261 213.983 256.2 218.169 246.554 218.169C236.908 218.169 231.854 213.969 229.201 209.3H263.9Z" fill="#455A64"/>
<path d="M263.9 209.3C263.116 210.699 262.135 211.979 260.988 213.101L230.104 210.728C229.779 210.277 229.478 209.81 229.201 209.328L263.9 209.3Z" fill="#37474F"/>
<path d="M270.326 189.343L222.831 193.732V191.576L270.326 187.187V189.343Z" fill="#37474F"/>
<path d="M270.326 195.86L222.831 200.249V198.1L270.326 193.704V195.86Z" fill="#37474F"/>
<path d="M270.326 202.377L222.831 206.766V204.617L270.326 200.221V202.377Z" fill="#37474F"/>
<g opacity="0.5">
<path opacity="0.5" d="M206.024 117.803C207.669 118.076 209.804 109.585 218.932 99.757C222.985 95.396 238.371 89.957 237.265 84.896C236.159 79.835 222.432 85.036 215.523 93.037C204.4 105.91 204.512 117.544 206.024 117.803Z" fill="white"/>
<path opacity="0.5" d="M287 119.567C290.024 119.567 290.031 114.863 287 114.863C283.969 114.863 283.941 119.567 287 119.567Z" fill="white"/>
<path opacity="0.5" d="M272.167 154.931C273.819 156.198 281.848 148.785 285.467 139.944C288.477 132.608 288.967 123.333 286.972 122.794C284.977 122.255 283.64 134.981 281.211 139.671C278.145 145.6 270.396 153.587 272.167 154.931Z" fill="white"/>
</g>
</svg>
