<svg width="19" height="17" viewBox="0 0 19 17" fill="none" xmlns="http://www.w3.org/2000/svg">
<path d="M17.2361 17H1.65278C0.746112 17 0 16.2539 0 15.3472V4.95834C0 4.05167 0.746112 3.30556 1.65278 3.30556H4.02334L4.76945 1.57722C5.17556 0.613889 6.11056 0 7.14945 0H11.8906C12.9861 0 13.9683 0.689445 14.3367 1.71889L14.9033 3.30556H17.2361C18.1428 3.30556 18.8889 4.05167 18.8889 4.95834V15.3472C18.8889 16.2539 18.1428 17 17.2361 17ZM1.65278 4.72223C1.52056 4.72223 1.41667 4.82611 1.41667 4.95834V15.3472C1.41667 15.4795 1.52056 15.5833 1.65278 15.5833H17.2361C17.3683 15.5833 17.4722 15.4795 17.4722 15.3472V4.95834C17.4722 4.82611 17.3683 4.72223 17.2361 4.72223H14.4028C14.1006 4.72223 13.8361 4.53334 13.7322 4.25L12.9956 2.20056C12.8256 1.72833 12.3817 1.41667 11.8811 1.41667H7.14945C6.67723 1.41667 6.25223 1.7 6.06334 2.13445L5.13778 4.29723C5.02445 4.55223 4.76945 4.72223 4.48612 4.72223H1.65278Z" fill="#BDBDBD"/>
<path d="M9.44451 14.1667C7.10229 14.1667 5.19451 12.2589 5.19451 9.91667C5.19451 7.57445 7.10229 5.66667 9.44451 5.66667C11.7867 5.66667 13.6945 7.57445 13.6945 9.91667C13.6945 12.2589 11.7867 14.1667 9.44451 14.1667ZM9.44451 7.08333C7.88618 7.08333 6.61118 8.35834 6.61118 9.91667C6.61118 11.475 7.88618 12.75 9.44451 12.75C11.0028 12.75 12.2778 11.475 12.2778 9.91667C12.2778 8.35834 11.0028 7.08333 9.44451 7.08333Z" fill="#BDBDBD"/>
<path d="M15.1112 7.55575C14.8657 7.55575 14.6201 7.45186 14.4407 7.28186C14.3557 7.18741 14.2895 7.09297 14.2423 6.97019C14.1951 6.85686 14.1668 6.73408 14.1668 6.6113C14.1668 6.48852 14.1951 6.36574 14.2423 6.25241C14.2895 6.12963 14.3557 6.03519 14.4407 5.94074C14.7051 5.68574 15.1207 5.5913 15.4701 5.74241C15.5929 5.78963 15.6873 5.85574 15.7818 5.94074C15.8668 6.03519 15.9329 6.12963 15.9801 6.25241C16.0273 6.36574 16.0557 6.48852 16.0557 6.6113C16.0557 6.73408 16.0273 6.85686 15.9801 6.97019C15.9329 7.09297 15.8668 7.18741 15.7818 7.28186C15.6023 7.45186 15.3568 7.55575 15.1112 7.55575Z" fill="#BDBDBD"/>
</svg>
