<svg width="15" height="19" viewBox="0 0 15 19" fill="none" xmlns="http://www.w3.org/2000/svg">
<path d="M14.9253 13.988L13.2471 10.6317C13.1721 10.4629 13.1252 10.2848 13.1252 10.1066V7.50029C13.1252 4.63143 10.9783 2.26884 8.20315 1.92195V0.703152C8.20315 0.318762 7.88438 0 7.49999 0C7.1156 0 6.79684 0.318762 6.79684 0.703152V1.92195C4.02173 2.26884 1.87478 4.63143 1.87478 7.50029V10.1066C1.87478 10.2848 1.8279 10.4629 1.7529 10.6317L0.0747064 13.988C-0.037798 14.2037 -0.0190471 14.4568 0.102833 14.6631C0.234088 14.8787 0.459096 15.0006 0.702856 15.0006H4.68738V15.9381C4.68738 17.4851 5.95306 18.7507 7.49999 18.7507C9.04693 18.7507 10.3126 17.4851 10.3126 15.9381V15.0006H14.2971C14.5409 15.0006 14.7659 14.8787 14.8972 14.6631C15.019 14.4568 15.0378 14.2037 14.9253 13.988ZM8.9063 15.9381C8.9063 16.7163 8.27815 17.3444 7.49999 17.3444C6.72184 17.3444 6.09369 16.7163 6.09369 15.9381V15.0006H8.9063V15.9381ZM1.83727 13.5943L3.0092 11.2598C3.18733 10.9035 3.28108 10.5004 3.28108 10.1066V7.50029C3.28108 5.1752 5.1749 3.28138 7.49999 3.28138C9.82508 3.28138 11.7189 5.1752 11.7189 7.50029V10.1066C11.7189 10.5004 11.8127 10.9035 11.9908 11.2598L13.1627 13.5943H1.83727Z" fill="#121331"/>
</svg>
