<svg width="18" height="19" viewBox="0 0 18 19" fill="none" xmlns="http://www.w3.org/2000/svg">
<path d="M16.25 18.035H13.25C11.73 18.035 10.5 16.805 10.5 15.285V11.785C10.5 11.645 10.39 11.535 10.25 11.535H7.75C7.61 11.535 7.5 11.645 7.5 11.785V15.285C7.5 16.805 6.27 18.035 4.75 18.035H1.75C0.79 18.035 0 17.245 0 16.285V6.805C0 6.235 0.28 5.695 0.75 5.375L8 0.315C8.6 -0.105 9.4 -0.105 10 0.315L17.25 5.365C17.72 5.695 18 6.235 18 6.805V16.285C18 17.245 17.21 18.035 16.25 18.035ZM7.75 10.035H10.25C11.21 10.035 12 10.825 12 11.785V15.285C12 15.975 12.56 16.535 13.25 16.535H16.25C16.39 16.535 16.5 16.425 16.5 16.285V6.805C16.5 6.725 16.46 6.645 16.39 6.595L9.14 1.545C9.05 1.485 8.94 1.485 8.85 1.545L1.61 6.605C1.54 6.645 1.5 6.725 1.5 6.805V16.285C1.5 16.425 1.61 16.535 1.75 16.535H4.75C5.44 16.535 6 15.975 6 15.285V11.785C6 10.825 6.79 10.035 7.75 10.035Z" fill="#BDBDBD"/>
</svg>
