<svg width="22" height="22" viewBox="0 0 22 22" fill="none" xmlns="http://www.w3.org/2000/svg">
<g clip-path="url(#clip0_301_2901)">
<path d="M16.7018 19.25C16.5827 19.25 16.4635 19.2408 16.3535 19.2225C9.33184 18.2508 3.74935 12.6683 2.77768 5.64666C2.67685 4.91333 2.89685 4.18 3.38268 3.62083C3.85935 3.07083 4.55601 2.75 5.28935 2.75H8.31434C9.10268 2.75 9.76268 3.30916 9.90018 4.07916L10.2577 6.08666C10.4318 7.04916 10.0193 8.02999 9.23101 8.59833L8.92851 8.80916C10.0377 10.4958 11.4952 11.9442 13.2002 13.0533L13.3927 12.7875C13.9518 11.99 14.9418 11.5867 15.9043 11.7517L17.9118 12.1092C18.6818 12.2467 19.241 12.9158 19.241 13.695V16.72C19.241 17.4533 18.9202 18.15 18.3702 18.6358C17.9118 19.03 17.316 19.25 16.7018 19.25ZM5.28935 4.125C4.95018 4.125 4.63851 4.2625 4.40935 4.52833C4.18935 4.78499 4.08851 5.12416 4.13435 5.46333C5.02351 11.8708 10.1293 16.9767 16.5368 17.8658C16.876 17.9117 17.2152 17.8108 17.4718 17.5908C17.7285 17.3617 17.8752 17.0592 17.8752 16.7108V13.6858C17.8752 13.5667 17.7927 13.475 17.6827 13.4567L15.6752 13.0992C15.226 13.0258 14.786 13.2092 14.5293 13.5758L13.961 14.3733C13.7502 14.6667 13.356 14.7492 13.0443 14.5658C10.7252 13.2 8.77268 11.2658 7.41601 8.97416C7.23268 8.66249 7.31518 8.26833 7.60851 8.06666L8.42434 7.48916C8.79101 7.23249 8.97434 6.78333 8.90101 6.34333L8.54351 4.3175C8.52518 4.2075 8.42434 4.125 8.31434 4.125H5.28935Z" fill="#121331"/>
</g>
<defs>
<clipPath id="clip0_301_2901">
<rect width="21.7852" height="21.7852" fill="white" transform="scale(1.00986)"/>
</clipPath>
</defs>
</svg>
