<svg width="18" height="18" viewBox="0 0 18 18" fill="none" xmlns="http://www.w3.org/2000/svg">
<path d="M14.5 11C13.41 11 12.43 11.5 11.78 12.3L6.89 9.85C6.96 9.58 7 9.29 7 9C7 8.71 6.96 8.42 6.89 8.15L11.78 5.7C12.43 6.5 13.41 7 14.5 7C16.43 7 18 5.43 18 3.5C18 1.57 16.43 0 14.5 0C12.57 0 11 1.57 11 3.5C11 3.79 11.04 4.08 11.11 4.35L6.22 6.8C5.57 6 4.59 5.5 3.5 5.5C1.57 5.5 0 7.07 0 9C0 10.93 1.57 12.5 3.5 12.5C4.59 12.5 5.57 12 6.22 11.2L11.11 13.65C11.04 13.92 11 14.21 11 14.5C11 16.43 12.57 18 14.5 18C16.43 18 18 16.43 18 14.5C18 12.57 16.43 11 14.5 11ZM14.5 1.5C15.6 1.5 16.5 2.4 16.5 3.5C16.5 4.6 15.6 5.5 14.5 5.5C13.72 5.5 13.04 5.05 12.71 4.39C12.57 4.12 12.5 3.82 12.5 3.5C12.5 2.4 13.4 1.5 14.5 1.5ZM3.5 11C2.4 11 1.5 10.1 1.5 9C1.5 7.9 2.4 7 3.5 7C4.28 7 4.96 7.45 5.29 8.11C5.43 8.38 5.5 8.68 5.5 9C5.5 9.32 5.42 9.63 5.29 9.9C4.95 10.55 4.28 11 3.5 11ZM14.5 16.5C13.4 16.5 12.5 15.6 12.5 14.5C12.5 14.18 12.58 13.87 12.71 13.6C13.05 12.95 13.72 12.5 14.5 12.5C15.6 12.5 16.5 13.4 16.5 14.5C16.5 15.6 15.6 16.5 14.5 16.5Z" fill="#333333"/>
</svg>
