<svg width="376" height="19" viewBox="0 0 376 19" fill="none" xmlns="http://www.w3.org/2000/svg">
<path d="M55.628 17.2732H52.9034C51.5229 17.2732 50.4058 16.1561 50.4058 14.7756V11.5968C50.4058 11.4697 50.3059 11.3698 50.1787 11.3698H47.9082C47.7811 11.3698 47.6812 11.4697 47.6812 11.5968V14.7756C47.6812 16.1561 46.5641 17.2732 45.1836 17.2732H42.4589C41.5871 17.2732 40.8696 16.5557 40.8696 15.6838V7.07394C40.8696 6.55626 41.1239 6.06583 41.5507 5.7752L48.1353 1.17964C48.6802 0.798193 49.4068 0.798193 49.9517 1.17964L56.5362 5.76612C56.9631 6.06583 57.2174 6.55626 57.2174 7.07394V15.6838C57.2174 16.5557 56.4999 17.2732 55.628 17.2732ZM47.9082 10.0075H50.1787C51.0506 10.0075 51.7681 10.725 51.7681 11.5968V14.7756C51.7681 15.4022 52.2767 15.9108 52.9034 15.9108H55.628C55.7552 15.9108 55.8551 15.8109 55.8551 15.6838V7.07394C55.8551 7.00128 55.8187 6.92863 55.7552 6.88322L49.1706 2.29674C49.0889 2.24225 48.989 2.24225 48.9072 2.29674L42.3318 6.8923C42.2682 6.92863 42.2319 7.00128 42.2319 7.07394V15.6838C42.2319 15.8109 42.3318 15.9108 42.4589 15.9108H45.1836C45.8102 15.9108 46.3188 15.4022 46.3188 14.7756V11.5968C46.3188 10.725 47.0363 10.0075 47.9082 10.0075Z" fill="#BDBDBD"/>
<path d="M146.146 16.8031H134.793C133.413 16.8031 132.295 15.686 132.295 14.3055V10.2185C132.295 9.84618 132.604 9.53738 132.977 9.53738C133.349 9.53738 133.658 9.84618 133.658 10.2185V14.3055C133.658 14.9322 134.166 15.4408 134.793 15.4408H146.146C146.772 15.4408 147.281 14.9322 147.281 14.3055V10.2185C147.281 9.84618 147.59 9.53738 147.962 9.53738C148.334 9.53738 148.643 9.84618 148.643 10.2185V14.3055C148.643 15.686 147.526 16.8031 146.146 16.8031Z" fill="#333333"/>
<path d="M144.811 5.42319L140.951 1.56328C140.887 1.49971 140.814 1.4543 140.733 1.41797C140.651 1.38164 140.56 1.36348 140.469 1.36348C140.378 1.36348 140.288 1.38164 140.206 1.41797C140.124 1.4543 140.051 1.49971 139.988 1.56328L136.128 5.42319C135.865 5.68657 135.865 6.12251 136.128 6.38589C136.391 6.64927 136.827 6.64927 137.091 6.38589L139.788 3.6885V12.4891C139.788 12.8614 140.097 13.1702 140.469 13.1702C140.842 13.1702 141.15 12.8614 141.15 12.4891V3.6885L143.848 6.38589C144.111 6.64927 144.547 6.64927 144.811 6.38589C145.074 6.12251 145.074 5.68657 144.811 5.42319Z" fill="#333333"/>
<path d="M235.755 16.349H224.403C224.03 16.349 223.721 16.0402 223.721 15.6678V7.94802C223.721 4.56947 226.473 1.81758 229.852 1.81758H235.755C239.134 1.81758 241.886 4.56947 241.886 7.94802V10.2185C241.886 13.5971 239.134 16.349 235.755 16.349ZM225.084 14.9867H235.755C238.38 14.9867 240.523 12.8433 240.523 10.2185V7.94802C240.523 5.3142 238.38 3.1799 235.755 3.1799H229.852C227.227 3.1799 225.084 5.3142 225.084 7.94802V14.9867Z" fill="#BDBDBD"/>
<path d="M229.171 9.99156C228.935 9.99156 228.698 9.89166 228.526 9.72818C228.362 9.55562 228.263 9.31948 228.263 9.08335C228.263 8.83813 228.362 8.61108 228.526 8.43852C228.862 8.10248 229.48 8.10248 229.816 8.43852C229.852 8.48393 229.888 8.52934 229.925 8.57475C229.961 8.62924 229.988 8.68373 230.006 8.73823C230.034 8.79272 230.052 8.84721 230.061 8.9017C230.07 8.96528 230.079 9.02885 230.079 9.08335C230.079 9.13784 230.07 9.20141 230.061 9.26499C230.052 9.31948 230.034 9.37397 230.006 9.42847C229.988 9.48296 229.961 9.53745 229.925 9.58286C229.888 9.63736 229.852 9.68277 229.816 9.72818C229.643 9.89166 229.407 9.99156 229.171 9.99156Z" fill="#BDBDBD"/>
<path d="M232.804 9.99149C232.686 9.99149 232.567 9.96425 232.458 9.91883C232.34 9.87342 232.25 9.80985 232.159 9.72811C231.995 9.55555 231.895 9.31941 231.895 9.08328C231.895 8.96521 231.923 8.84714 231.968 8.73816C232.013 8.62009 232.077 8.52927 232.159 8.43845C232.25 8.35671 232.34 8.29313 232.458 8.24772C232.622 8.17507 232.804 8.1569 232.976 8.19323C233.04 8.20231 233.094 8.22048 233.149 8.24772C233.203 8.26589 233.258 8.29313 233.303 8.32946C233.358 8.35671 233.403 8.40212 233.448 8.43845C233.53 8.52927 233.594 8.62009 233.639 8.73816C233.685 8.84714 233.712 8.96521 233.712 9.08328C233.712 9.31941 233.612 9.55555 233.448 9.72811C233.403 9.76444 233.358 9.80985 233.303 9.8371C233.258 9.87342 233.203 9.90067 233.149 9.91883C233.094 9.94608 233.04 9.96424 232.976 9.97333C232.922 9.98241 232.858 9.99149 232.804 9.99149Z" fill="#BDBDBD"/>
<path d="M236.436 9.99152C236.382 9.99152 236.318 9.98244 236.264 9.97336C236.2 9.96428 236.146 9.94611 236.091 9.91887C236.037 9.9007 235.982 9.87346 235.928 9.83713C235.882 9.8008 235.837 9.76447 235.792 9.72814C235.628 9.55558 235.528 9.32853 235.528 9.08331C235.528 8.96524 235.555 8.84718 235.601 8.73819C235.646 8.62921 235.71 8.5293 235.792 8.43848C235.837 8.40215 235.882 8.36582 235.928 8.3295C235.982 8.29317 236.037 8.26592 236.091 8.24776C236.146 8.22051 236.2 8.20235 236.264 8.19326C236.555 8.13877 236.863 8.22959 237.081 8.43848C237.245 8.61104 237.345 8.84718 237.345 9.08331C237.345 9.13781 237.336 9.20138 237.327 9.26495C237.317 9.31945 237.299 9.37394 237.272 9.42843C237.254 9.48293 237.227 9.53742 237.19 9.59191C237.154 9.63732 237.118 9.68273 237.081 9.72814C236.909 9.89162 236.673 9.99152 236.436 9.99152Z" fill="#BDBDBD"/>
<path d="M332.315 2.50903C330.553 0.837917 328.255 -0.052131 325.83 0.0023618C323.405 0.0659367 321.144 1.06497 319.473 2.81782C317.802 4.57975 316.912 6.87753 316.966 9.30246C317.03 11.7274 318.029 13.9888 319.782 15.6599C319.854 15.7326 319.927 15.7962 320.009 15.8598C321.68 17.3583 323.796 18.1666 326.039 18.1666H326.266C328.437 18.1121 330.48 17.3038 332.088 15.8598C332.269 15.7054 332.451 15.5328 332.624 15.3512C334.249 13.6437 335.13 11.4277 335.13 9.07541V8.86652C335.067 6.44159 334.068 4.18014 332.315 2.50903ZM326.239 16.8043C324.404 16.8406 322.652 16.2503 321.244 15.115C321.652 13.9707 322.77 13.1805 324.005 13.1805H328.092C329.327 13.1805 330.444 13.9707 330.853 15.115C329.545 16.1776 327.946 16.7589 326.239 16.8043ZM331.897 14.1069C331.161 12.7355 329.708 11.8182 328.092 11.8182H324.005C322.388 11.8182 320.926 12.7355 320.199 14.116C319.028 12.7718 318.374 11.0826 318.328 9.27521C318.283 7.21357 319.037 5.25183 320.463 3.76236C321.88 2.26381 323.796 1.41917 325.857 1.36468H326.057C328.046 1.36468 329.926 2.1185 331.37 3.49898C332.115 4.20739 332.705 5.04294 333.114 5.95115C333.514 6.86845 333.741 7.86748 333.768 8.89376C333.813 10.8192 333.16 12.6628 331.897 14.1069Z" fill="#BDBDBD"/>
<path d="M328.546 10.4468H325.821C324.196 10.4468 322.87 9.12083 322.87 7.49513V5.67871C322.87 4.05301 324.196 2.72702 325.821 2.72702H326.275C327.901 2.72702 329.227 4.05301 329.227 5.67871V9.76566C329.227 10.138 328.918 10.4468 328.546 10.4468ZM325.821 4.08934C324.949 4.08934 324.232 4.80682 324.232 5.67871V7.49513C324.232 8.36702 324.949 9.0845 325.821 9.0845H327.865V5.67871C327.865 4.80682 327.147 4.08934 326.275 4.08934H325.821Z" fill="#BDBDBD"/>
</svg>
