<svg id="svg" version="1.1" xmlns="http://www.w3.org/2000/svg" xmlns:xlink="http://www.w3.org/1999/xlink" width="400" height="400" viewBox="0, 0, 400,400"><g id="svgg"><path id="path0" d="M188.800 85.594 C 185.830 85.777,182.050 86.222,180.400 86.583 C 176.354 87.469,172.096 88.226,168.000 88.787 C 162.340 89.563,158.833 90.394,156.254 91.572 C 153.540 92.810,151.005 93.575,146.200 94.604 C 142.637 95.368,142.249 95.528,139.400 97.417 C 138.300 98.146,135.750 99.228,133.734 99.823 C 130.899 100.658,129.585 101.300,127.935 102.653 C 126.762 103.616,125.171 104.603,124.401 104.846 C 122.449 105.463,119.625 107.094,118.200 108.427 C 117.540 109.045,115.847 110.120,114.438 110.817 C 113.029 111.514,111.049 112.845,110.038 113.775 C 109.027 114.706,107.390 116.018,106.400 116.691 C 105.410 117.364,104.150 118.400,103.600 118.992 C 103.050 119.584,101.406 120.955,99.947 122.038 C 97.211 124.067,90.990 130.803,88.238 134.713 C 87.380 135.934,86.082 137.455,85.354 138.094 C 84.627 138.732,83.504 140.367,82.858 141.727 C 82.212 143.087,81.199 144.650,80.605 145.200 C 79.226 146.479,79.038 146.844,77.387 151.464 C 76.632 153.577,75.550 155.914,74.983 156.658 C 73.487 158.620,72.211 161.746,71.417 165.400 C 71.034 167.160,70.106 170.009,69.355 171.732 C 65.576 180.398,65.361 206.873,68.994 216.200 C 70.476 220.005,71.502 223.143,72.439 226.741 C 73.020 228.968,73.750 230.659,74.629 231.810 C 76.326 234.034,76.911 235.189,78.175 238.806 C 78.931 240.969,79.653 242.200,80.860 243.383 C 81.768 244.272,82.926 245.926,83.432 247.058 C 83.938 248.189,84.962 249.719,85.708 250.458 C 86.453 251.196,87.670 252.700,88.412 253.800 C 89.154 254.900,92.470 258.467,95.781 261.726 C 104.691 270.497,105.315 271.057,107.862 272.564 C 109.148 273.326,110.700 274.587,111.312 275.367 C 112.025 276.278,113.459 277.268,115.312 278.130 C 116.900 278.868,119.010 280.155,120.000 280.989 C 120.990 281.823,122.970 283.077,124.400 283.775 C 125.830 284.473,127.800 285.624,128.777 286.334 C 129.798 287.075,132.205 288.137,134.434 288.830 C 136.921 289.603,138.940 290.522,140.057 291.389 C 141.488 292.500,142.832 292.995,147.567 294.153 C 150.803 294.945,154.578 296.167,156.167 296.939 C 160.033 298.814,167.732 300.171,180.355 301.199 C 183.301 301.439,186.991 301.802,188.555 302.006 C 192.233 302.484,207.364 302.484,211.041 302.006 C 212.604 301.803,217.284 301.356,221.441 301.014 C 225.598 300.671,231.790 299.900,235.200 299.299 C 242.525 298.010,244.888 298.026,252.800 299.416 C 261.576 300.959,263.804 301.509,266.560 302.810 C 269.421 304.162,272.116 304.836,279.000 305.922 C 281.846 306.371,284.858 307.129,286.400 307.784 C 289.896 309.270,294.450 310.540,300.000 311.576 C 302.530 312.048,305.567 312.877,306.748 313.417 C 308.288 314.122,309.594 314.400,311.358 314.400 L 313.819 314.400 316.937 311.263 C 320.023 308.160,320.060 308.097,320.488 305.335 L 320.920 302.544 319.468 299.949 C 318.344 297.938,317.875 296.458,317.386 293.377 C 316.251 286.231,315.276 282.107,314.065 279.330 C 313.410 277.829,312.483 274.890,312.005 272.800 C 311.527 270.710,310.881 267.887,310.570 266.528 C 310.259 265.168,309.830 262.821,309.616 261.311 L 309.227 258.568 311.032 255.090 C 312.152 252.932,313.358 251.215,314.209 250.566 C 314.963 249.991,316.066 248.528,316.659 247.316 C 317.252 246.103,318.349 244.379,319.097 243.484 C 320.757 241.497,321.623 239.811,322.759 236.357 C 323.237 234.903,324.162 232.870,324.815 231.840 C 326.977 228.431,327.972 226.104,328.620 222.934 C 328.973 221.210,329.716 218.720,330.270 217.400 C 334.699 206.859,334.867 182.758,330.591 171.497 C 329.819 169.464,328.728 166.011,328.167 163.825 C 326.939 159.035,326.522 158.015,324.691 155.317 C 323.913 154.171,322.806 151.819,322.230 150.090 C 321.433 147.697,320.796 146.570,319.565 145.373 C 318.675 144.508,317.303 142.577,316.515 141.083 C 315.727 139.588,314.750 138.187,314.342 137.969 C 313.935 137.751,312.927 136.516,312.101 135.224 C 309.301 130.843,295.945 117.809,292.405 116.002 C 291.548 115.565,290.354 114.562,289.752 113.773 C 289.084 112.896,287.558 111.786,285.829 110.918 C 284.273 110.136,282.405 108.977,281.678 108.341 C 280.951 107.706,278.791 106.399,276.878 105.438 C 274.965 104.476,273.040 103.291,272.601 102.804 C 271.480 101.562,270.003 100.868,266.040 99.724 C 263.637 99.030,261.981 98.255,260.549 97.154 C 258.694 95.729,257.945 95.461,252.749 94.366 C 248.881 93.550,246.066 92.699,244.146 91.765 C 240.952 90.211,238.113 89.538,230.800 88.602 C 228.050 88.250,224.270 87.614,222.400 87.189 C 220.530 86.763,217.830 86.235,216.400 86.014 C 212.797 85.457,195.337 85.191,188.800 85.594 M211.400 104.386 C 227.154 105.981,232.283 106.839,236.953 108.661 C 238.907 109.424,242.419 110.480,244.756 111.008 C 249.909 112.171,252.010 112.888,253.506 113.994 C 254.131 114.456,256.342 115.516,258.421 116.349 C 260.499 117.183,263.426 118.706,264.925 119.733 C 266.424 120.760,267.867 121.600,268.131 121.600 C 269.050 121.600,271.810 123.287,273.400 124.821 C 274.280 125.669,276.388 127.004,278.086 127.787 C 280.247 128.784,281.558 129.692,282.463 130.819 C 283.174 131.704,284.615 132.956,285.664 133.601 C 286.714 134.247,288.043 135.487,288.618 136.356 C 289.193 137.225,290.348 138.389,291.184 138.942 C 292.019 139.495,293.400 140.805,294.252 141.853 C 295.103 142.901,296.476 144.375,297.303 145.129 C 298.130 145.882,299.337 147.602,299.986 148.949 C 300.635 150.297,301.986 152.390,302.987 153.600 C 303.989 154.810,305.103 156.610,305.464 157.600 C 306.439 160.277,307.462 162.355,308.960 164.700 C 309.718 165.887,310.673 168.235,311.154 170.100 C 312.025 173.469,313.333 178.241,314.854 183.600 C 316.667 189.984,316.097 201.525,313.591 209.189 C 312.978 211.065,311.986 214.580,311.388 217.000 C 310.226 221.700,309.439 223.580,307.828 225.494 C 307.272 226.154,306.197 228.167,305.438 229.967 C 304.679 231.767,303.439 233.924,302.683 234.761 C 301.926 235.598,300.709 237.524,299.977 239.042 C 299.086 240.890,297.781 242.664,296.023 244.420 C 287.925 252.507,287.452 254.732,291.400 266.182 C 292.610 269.691,293.970 274.551,294.422 276.981 C 294.874 279.412,295.625 282.600,296.090 284.067 C 297.615 288.872,294.983 290.832,288.800 289.495 C 287.150 289.138,284.061 288.570,281.935 288.233 C 279.809 287.896,277.019 287.148,275.735 286.571 C 272.037 284.908,269.583 284.137,267.000 283.826 C 263.036 283.348,257.960 281.958,255.200 280.592 C 249.358 277.701,239.430 277.630,233.923 280.439 C 223.732 285.639,176.537 285.486,166.017 280.220 C 165.018 279.719,162.940 279.087,161.400 278.813 C 155.415 277.752,150.572 276.336,148.267 274.973 C 146.983 274.215,145.003 273.311,143.867 272.965 C 139.589 271.663,138.320 271.080,136.066 269.386 C 134.792 268.428,132.681 267.247,131.375 266.760 C 129.837 266.187,128.391 265.259,127.273 264.129 C 126.323 263.168,124.297 261.754,122.770 260.985 C 121.243 260.216,119.034 258.717,117.860 257.655 C 116.687 256.592,115.023 255.324,114.163 254.838 C 113.303 254.352,112.089 253.199,111.465 252.277 C 110.841 251.355,109.620 250.066,108.751 249.412 C 107.882 248.759,106.640 247.409,105.991 246.412 C 105.341 245.416,104.083 244.001,103.194 243.268 C 102.188 242.439,101.036 240.854,100.141 239.068 C 99.351 237.491,97.857 235.299,96.822 234.198 C 95.531 232.824,94.680 231.428,94.115 229.754 C 93.661 228.411,92.656 226.390,91.881 225.263 C 90.278 222.933,89.784 221.645,88.023 215.200 C 87.332 212.670,86.320 209.082,85.775 207.227 C 83.449 199.313,83.536 188.693,85.993 180.400 C 86.678 178.090,87.686 174.580,88.234 172.600 C 88.782 170.620,89.492 168.090,89.811 166.978 C 90.131 165.865,91.090 164.020,91.943 162.877 C 92.796 161.734,93.886 159.721,94.366 158.405 C 94.846 157.088,95.856 155.244,96.609 154.306 C 97.363 153.368,98.659 151.357,99.490 149.838 C 100.969 147.132,103.509 144.207,109.600 138.194 C 110.590 137.217,112.030 135.778,112.800 134.997 C 116.004 131.746,119.144 129.223,121.400 128.085 C 122.720 127.419,124.890 125.996,126.221 124.922 C 127.553 123.848,129.533 122.633,130.621 122.223 C 131.710 121.812,133.384 120.919,134.342 120.238 C 137.563 117.948,138.187 117.612,141.894 116.175 C 143.926 115.387,145.693 114.573,145.821 114.365 C 146.393 113.440,149.709 112.251,155.200 111.000 C 158.466 110.256,161.894 109.262,162.818 108.791 C 165.279 107.535,172.109 106.125,179.400 105.367 C 182.920 105.001,187.060 104.570,188.600 104.410 C 192.716 103.980,207.240 103.965,211.400 104.386 M143.148 177.181 C 137.876 178.146,134.355 181.288,131.230 187.814 C 128.401 193.723,128.408 195.292,131.282 200.690 C 135.935 209.426,141.155 212.415,150.245 211.547 C 157.685 210.836,165.582 202.086,165.595 194.541 C 165.613 183.428,154.781 175.051,143.148 177.181 M193.861 177.519 C 189.641 178.470,183.937 184.139,183.254 188.060 C 182.330 193.366,182.960 201.780,184.440 203.893 C 186.616 207.000,191.210 210.322,194.273 211.003 C 200.470 212.382,207.983 211.315,210.348 208.720 C 211.147 207.844,212.635 206.286,213.656 205.257 C 216.495 202.393,217.678 196.338,216.747 189.425 L 216.266 185.850 212.508 182.055 L 208.750 178.260 205.475 177.540 C 201.576 176.682,197.608 176.675,193.861 177.519 M248.200 177.168 C 244.815 177.601,241.967 178.850,240.416 180.580 C 239.637 181.449,238.070 183.069,236.934 184.180 C 234.072 186.978,232.821 195.081,234.596 199.329 C 235.655 201.863,241.137 208.753,242.732 209.554 C 247.622 212.011,257.200 212.471,259.868 210.377 C 267.768 204.174,272.322 194.782,269.462 190.589 C 269.166 190.155,268.445 188.535,267.861 186.988 C 264.990 179.396,258.016 175.913,248.200 177.168 " stroke="none" fill="#382f29" fill-rule="evenodd"></path><path id="path1" d="M0.000 200.000 L 0.000 400.000 200.000 400.000 L 400.000 400.000 400.000 200.000 L 400.000 0.000 200.000 0.000 L 0.000 0.000 0.000 200.000 M216.400 86.014 C 217.830 86.235,220.530 86.763,222.400 87.189 C 224.270 87.614,228.050 88.250,230.800 88.602 C 238.113 89.538,240.952 90.211,244.146 91.765 C 246.066 92.699,248.881 93.550,252.749 94.366 C 257.945 95.461,258.694 95.729,260.549 97.154 C 261.981 98.255,263.637 99.030,266.040 99.724 C 270.003 100.868,271.480 101.562,272.601 102.804 C 273.040 103.291,274.965 104.476,276.878 105.438 C 278.791 106.399,280.951 107.706,281.678 108.341 C 282.405 108.977,284.273 110.136,285.829 110.918 C 287.558 111.786,289.084 112.896,289.752 113.773 C 290.354 114.562,291.548 115.565,292.405 116.002 C 295.945 117.809,309.301 130.843,312.101 135.224 C 312.927 136.516,313.935 137.751,314.342 137.969 C 314.750 138.187,315.727 139.588,316.515 141.083 C 317.303 142.577,318.675 144.508,319.565 145.373 C 320.796 146.570,321.433 147.697,322.230 150.090 C 322.806 151.819,323.913 154.171,324.691 155.317 C 326.522 158.015,326.939 159.035,328.167 163.825 C 328.728 166.011,329.819 169.464,330.591 171.497 C 334.867 182.758,334.699 206.859,330.270 217.400 C 329.716 218.720,328.973 221.210,328.620 222.934 C 327.972 226.104,326.977 228.431,324.815 231.840 C 324.162 232.870,323.237 234.903,322.759 236.357 C 321.623 239.811,320.757 241.497,319.097 243.484 C 318.349 244.379,317.252 246.103,316.659 247.316 C 316.066 248.528,314.963 249.991,314.209 250.566 C 313.358 251.215,312.152 252.932,311.032 255.090 L 309.227 258.568 309.616 261.311 C 309.830 262.821,310.259 265.168,310.570 266.528 C 310.881 267.887,311.527 270.710,312.005 272.800 C 312.483 274.890,313.410 277.829,314.065 279.330 C 315.276 282.107,316.251 286.231,317.386 293.377 C 317.875 296.458,318.344 297.938,319.468 299.949 L 320.920 302.544 320.488 305.335 C 320.060 308.097,320.023 308.160,316.937 311.263 L 313.819 314.400 311.358 314.400 C 309.594 314.400,308.288 314.122,306.748 313.417 C 305.567 312.877,302.530 312.048,300.000 311.576 C 294.450 310.540,289.896 309.270,286.400 307.784 C 284.858 307.129,281.846 306.371,279.000 305.922 C 272.116 304.836,269.421 304.162,266.560 302.810 C 263.804 301.509,261.576 300.959,252.800 299.416 C 244.888 298.026,242.525 298.010,235.200 299.299 C 231.790 299.900,225.598 300.671,221.441 301.014 C 217.284 301.356,212.604 301.803,211.041 302.006 C 207.364 302.484,192.233 302.484,188.555 302.006 C 186.991 301.802,183.301 301.439,180.355 301.199 C 167.732 300.171,160.033 298.814,156.167 296.939 C 154.578 296.167,150.803 294.945,147.567 294.153 C 142.832 292.995,141.488 292.500,140.057 291.389 C 138.940 290.522,136.921 289.603,134.434 288.830 C 132.205 288.137,129.798 287.075,128.777 286.334 C 127.800 285.624,125.830 284.473,124.400 283.775 C 122.970 283.077,120.990 281.823,120.000 280.989 C 119.010 280.155,116.900 278.868,115.312 278.130 C 113.459 277.268,112.025 276.278,111.312 275.367 C 110.700 274.587,109.148 273.326,107.862 272.564 C 105.315 271.057,104.691 270.497,95.781 261.726 C 92.470 258.467,89.154 254.900,88.412 253.800 C 87.670 252.700,86.453 251.196,85.708 250.458 C 84.962 249.719,83.938 248.189,83.432 247.058 C 82.926 245.926,81.768 244.272,80.860 243.383 C 79.653 242.200,78.931 240.969,78.175 238.806 C 76.911 235.189,76.326 234.034,74.629 231.810 C 73.750 230.659,73.020 228.968,72.439 226.741 C 71.502 223.143,70.476 220.005,68.994 216.200 C 65.361 206.873,65.576 180.398,69.355 171.732 C 70.106 170.009,71.034 167.160,71.417 165.400 C 72.211 161.746,73.487 158.620,74.983 156.658 C 75.550 155.914,76.632 153.577,77.387 151.464 C 79.038 146.844,79.226 146.479,80.605 145.200 C 81.199 144.650,82.212 143.087,82.858 141.727 C 83.504 140.367,84.627 138.732,85.354 138.094 C 86.082 137.455,87.380 135.934,88.238 134.713 C 90.990 130.803,97.211 124.067,99.947 122.038 C 101.406 120.955,103.050 119.584,103.600 118.992 C 104.150 118.400,105.410 117.364,106.400 116.691 C 107.390 116.018,109.027 114.706,110.038 113.775 C 111.049 112.845,113.029 111.514,114.438 110.817 C 115.847 110.120,117.540 109.045,118.200 108.427 C 119.625 107.094,122.449 105.463,124.401 104.846 C 125.171 104.603,126.762 103.616,127.935 102.653 C 129.585 101.300,130.899 100.658,133.734 99.823 C 135.750 99.228,138.300 98.146,139.400 97.417 C 142.249 95.528,142.637 95.368,146.200 94.604 C 151.005 93.575,153.540 92.810,156.254 91.572 C 158.833 90.394,162.340 89.563,168.000 88.787 C 172.096 88.226,176.354 87.469,180.400 86.583 C 186.337 85.283,209.323 84.919,216.400 86.014 M188.600 104.410 C 187.060 104.570,182.920 105.001,179.400 105.367 C 172.109 106.125,165.279 107.535,162.818 108.791 C 161.894 109.262,158.466 110.256,155.200 111.000 C 149.709 112.251,146.393 113.440,145.821 114.365 C 145.693 114.573,143.926 115.387,141.894 116.175 C 138.187 117.612,137.563 117.948,134.342 120.238 C 133.384 120.919,131.710 121.812,130.621 122.223 C 129.533 122.633,127.553 123.848,126.221 124.922 C 124.890 125.996,122.720 127.419,121.400 128.085 C 119.144 129.223,116.004 131.746,112.800 134.997 C 112.030 135.778,110.590 137.217,109.600 138.194 C 103.509 144.207,100.969 147.132,99.490 149.838 C 98.659 151.357,97.363 153.368,96.609 154.306 C 95.856 155.244,94.846 157.088,94.366 158.405 C 93.886 159.721,92.796 161.734,91.943 162.877 C 91.090 164.020,90.131 165.865,89.811 166.978 C 89.492 168.090,88.782 170.620,88.234 172.600 C 87.686 174.580,86.678 178.090,85.993 180.400 C 83.536 188.693,83.449 199.313,85.775 207.227 C 86.320 209.082,87.332 212.670,88.023 215.200 C 89.784 221.645,90.278 222.933,91.881 225.263 C 92.656 226.390,93.661 228.411,94.115 229.754 C 94.680 231.428,95.531 232.824,96.822 234.198 C 97.857 235.299,99.351 237.491,100.141 239.068 C 101.036 240.854,102.188 242.439,103.194 243.268 C 104.083 244.001,105.341 245.416,105.991 246.412 C 106.640 247.409,107.882 248.759,108.751 249.412 C 109.620 250.066,110.841 251.355,111.465 252.277 C 112.089 253.199,113.303 254.352,114.163 254.838 C 115.023 255.324,116.687 256.592,117.860 257.655 C 119.034 258.717,121.243 260.216,122.770 260.985 C 124.297 261.754,126.323 263.168,127.273 264.129 C 128.391 265.259,129.837 266.187,131.375 266.760 C 132.681 267.247,134.792 268.428,136.066 269.386 C 138.320 271.080,139.589 271.663,143.867 272.965 C 145.003 273.311,146.983 274.215,148.267 274.973 C 150.572 276.336,155.415 277.752,161.400 278.813 C 162.940 279.087,165.018 279.719,166.017 280.220 C 176.537 285.486,223.732 285.639,233.923 280.439 C 239.430 277.630,249.358 277.701,255.200 280.592 C 257.960 281.958,263.036 283.348,267.000 283.826 C 269.583 284.137,272.037 284.908,275.735 286.571 C 277.019 287.148,279.809 287.896,281.935 288.233 C 284.061 288.570,287.150 289.138,288.800 289.495 C 294.983 290.832,297.615 288.872,296.090 284.067 C 295.625 282.600,294.874 279.412,294.422 276.981 C 293.970 274.551,292.610 269.691,291.400 266.182 C 287.452 254.732,287.925 252.507,296.023 244.420 C 297.781 242.664,299.086 240.890,299.977 239.042 C 300.709 237.524,301.926 235.598,302.683 234.761 C 303.439 233.924,304.679 231.767,305.438 229.967 C 306.197 228.167,307.272 226.154,307.828 225.494 C 309.439 223.580,310.226 221.700,311.388 217.000 C 311.986 214.580,312.978 211.065,313.591 209.189 C 316.097 201.525,316.667 189.984,314.854 183.600 C 313.333 178.241,312.025 173.469,311.154 170.100 C 310.673 168.235,309.718 165.887,308.960 164.700 C 307.462 162.355,306.439 160.277,305.464 157.600 C 305.103 156.610,303.989 154.810,302.987 153.600 C 301.986 152.390,300.635 150.297,299.986 148.949 C 299.337 147.602,298.130 145.882,297.303 145.129 C 296.476 144.375,295.103 142.901,294.252 141.853 C 293.400 140.805,292.019 139.495,291.184 138.942 C 290.348 138.389,289.193 137.225,288.618 136.356 C 288.043 135.487,286.714 134.247,285.664 133.601 C 284.615 132.956,283.174 131.704,282.463 130.819 C 281.558 129.692,280.247 128.784,278.086 127.787 C 276.388 127.004,274.280 125.669,273.400 124.821 C 271.810 123.287,269.050 121.600,268.131 121.600 C 267.867 121.600,266.424 120.760,264.925 119.733 C 263.426 118.706,260.499 117.183,258.421 116.349 C 256.342 115.516,254.131 114.456,253.506 113.994 C 252.010 112.888,249.909 112.171,244.756 111.008 C 242.419 110.480,238.907 109.424,236.953 108.661 C 232.283 106.839,227.154 105.981,211.400 104.386 C 207.240 103.965,192.716 103.980,188.600 104.410 M154.708 178.069 C 160.132 180.085,165.605 188.365,165.595 194.541 C 165.582 202.086,157.685 210.836,150.245 211.547 C 141.155 212.415,135.935 209.426,131.282 200.690 C 128.408 195.292,128.401 193.723,131.230 187.814 C 135.931 177.997,144.710 174.353,154.708 178.069 M205.475 177.540 L 208.750 178.260 212.508 182.055 L 216.266 185.850 216.747 189.425 C 217.678 196.338,216.495 202.393,213.656 205.257 C 212.635 206.286,211.147 207.844,210.348 208.720 C 206.194 213.277,193.700 212.596,188.097 207.507 C 183.459 203.294,182.841 201.765,182.814 194.433 C 182.786 187.007,183.151 186.004,187.415 181.796 C 192.415 176.860,197.230 175.725,205.475 177.540 M256.123 177.210 C 261.172 177.939,265.942 181.914,267.861 186.988 C 268.445 188.535,269.166 190.155,269.462 190.589 C 272.322 194.782,267.768 204.174,259.868 210.377 C 257.200 212.471,247.622 212.011,242.732 209.554 C 241.137 208.753,235.655 201.863,234.596 199.329 C 232.821 195.081,234.072 186.978,236.934 184.180 C 238.070 183.069,239.637 181.449,240.416 180.580 C 243.102 177.583,249.384 176.235,256.123 177.210 " stroke="none" fill="#fbfbfb" fill-rule="evenodd"></path></g></svg>