<svg width="350" height="350" viewBox="0 0 350 350" fill="none" xmlns="http://www.w3.org/2000/svg">
<path d="M68.551 263.459H43.939V271.292H68.551V263.459Z" fill="#EBEBEB"/>
<path d="M291.242 189.126H266.63V196.959H291.242V189.126Z" fill="#EBEBEB"/>
<path d="M54.824 281.169C50.722 281.239 40.383 281.414 36.421 281.463H30.212H29.897V281.141V273.308V273H30.247L42.553 273.049C45.612 273.049 51.793 273.147 54.859 273.189H55.027V273.35L54.866 281.183L54.824 281.169ZM54.824 281.169L54.656 273.336L54.824 273.504C51.751 273.546 45.584 273.616 42.518 273.644L30.212 273.7L30.562 273.35V281.183L30.24 280.868H36.337C40.236 280.917 50.813 281.092 54.852 281.155L54.824 281.169Z" fill="#EBEBEB"/>
<path d="M135.45 132.174C131.348 132.244 121.009 132.419 117.047 132.468H110.838H110.523V132.146V124.313V123.963H110.873L123.179 124.005C126.245 124.005 132.419 124.103 135.485 124.145H135.653V124.306L135.485 132.139L135.45 132.174ZM135.45 132.174L135.282 124.341L135.45 124.509C132.377 124.551 126.217 124.621 123.144 124.649L110.838 124.691L111.188 124.341V132.174L110.866 131.859H116.963C120.869 131.908 131.446 132.083 135.478 132.146L135.45 132.174Z" fill="#EBEBEB"/>
<path d="M121.723 142.051C117.621 142.121 107.282 142.296 103.32 142.345H97.111H96.796V142.023L96.761 134.19V133.84H97.111L109.417 133.882C112.483 133.882 118.657 133.98 121.723 134.022H121.891V134.183L121.723 142.016V142.051ZM121.723 142.051L121.555 134.218L121.723 134.386C118.65 134.428 112.483 134.498 109.417 134.526L97.111 134.568L97.461 134.218V142.051L97.139 141.736H103.236C107.135 141.785 117.712 141.96 121.751 142.023L121.723 142.051Z" fill="#EBEBEB"/>
<path d="M108.052 124.341H83.4399V132.174H108.052V124.341Z" fill="#EBEBEB"/>
<path d="M319.788 273.336H295.176V281.169H319.788V273.336Z" fill="#EBEBEB"/>
<path d="M306.061 31.451H281.449V39.284H306.061V31.451Z" fill="#EBEBEB"/>
<path d="M319.788 49.161C315.686 49.231 305.347 49.406 301.385 49.455H295.176H294.861V49.133L294.826 41.3V40.95H295.176L307.482 40.999C310.548 40.999 316.722 41.09 319.788 41.139H319.956V41.3L319.788 49.133V49.161ZM319.788 49.161L319.62 41.3L319.788 41.468C316.715 41.51 310.555 41.58 307.482 41.601L295.176 41.65L295.526 41.3V49.133L295.204 48.818H301.301C305.207 48.86 315.784 49.042 319.816 49.105L319.788 49.161Z" fill="#EBEBEB"/>
<path d="M68.551 39.284C64.449 39.354 54.11 39.529 50.148 39.578H43.939H43.624V39.256V31.423V31.073H43.974L56.28 31.122C59.346 31.122 65.52 31.213 68.586 31.262H68.754V31.423L68.586 39.256L68.551 39.284ZM68.551 39.284L68.383 31.451L68.551 31.619C65.478 31.661 59.311 31.731 56.245 31.752L43.939 31.801L44.289 31.451V39.284L43.967 38.969H50.064C53.963 39.011 64.54 39.193 68.579 39.256L68.551 39.284Z" fill="#EBEBEB"/>
<path d="M130.487 186.795H28.203V193.039H130.487V186.795Z" fill="#EBEBEB"/>
<path d="M121.366 193.039H37.324V210.266H121.366V193.039Z" fill="#EBEBEB"/>
<path d="M121.366 196.448L37.324 198.114V193.039H121.366V196.448Z" fill="#C7C7C7"/>
<path d="M108.703 207.018H49.9871V196.301H108.703V207.018ZM50.6871 206.318H108.003V197.001H50.6871V206.318Z" fill="#DBDBDB"/>
<path d="M88.9139 200.214H69.783V203.105H88.9139V200.214Z" fill="#DBDBDB"/>
<path d="M36.645 309.358H33.859L41.958 210.273H49.056L36.645 309.358Z" fill="#EBEBEB"/>
<path d="M49.056 210.273L48.2229 216.902H41.4189L41.9579 210.273H49.056Z" fill="#C7C7C7"/>
<path d="M122.045 309.358H124.831L116.732 210.273H109.634L122.045 309.358Z" fill="#EBEBEB"/>
<path d="M109.634 210.273L110.467 216.902H117.271L116.732 210.273H109.634Z" fill="#C7C7C7"/>
<path fill-rule="evenodd" clip-rule="evenodd" d="M285.348 145.6C284.508 144.795 283.85 143.738 282.548 143.591C282.037 143.535 282.233 143.143 282.289 142.891C283.297 138.019 284.307 133.149 285.32 128.282C285.397 127.925 285.474 127.638 285.901 127.526C290.01 126.427 292.39 123.074 295.33 120.393C296.826 119.068 298.039 117.456 298.898 115.652C299.757 113.848 300.243 111.889 300.328 109.893C300.398 108.766 301.028 108.381 302.043 108.36C303.289 108.36 304.402 108.913 304.64 109.816C305.295 112.028 305.565 114.337 305.438 116.641C305.27 118.531 304.227 120.19 303.618 121.968C303.17 123.27 302.582 124.53 302.05 125.825C302.323 126.133 302.75 126.091 303.079 126.168L315.42 128.744C317.149 129.101 317.898 129.773 317.898 130.977C317.883 131.713 317.627 132.423 317.169 133C316.711 133.576 316.077 133.987 315.364 134.169C315.021 134.26 314.496 134.008 314.356 134.477C314.216 134.946 314.804 135.03 315.056 135.289C316.33 136.619 315.616 138.67 313.656 139.524C313.187 139.734 312.41 139.433 312.256 140.035C312.144 140.518 312.9 140.665 313.166 141.078C314.118 142.52 313.061 144.578 311.066 145.131C310.802 145.157 310.54 145.202 310.282 145.264C310.051 145.355 309.82 145.467 310.156 145.831C311.675 147.476 311.269 149.24 309.204 150.157L308.588 150.43C307.855 150.68 307.06 150.68 306.327 150.43C299.873 149.1 293.421 147.758 286.972 146.405C286.661 146.386 286.358 146.305 286.079 146.166C285.8 146.028 285.552 145.836 285.348 145.6Z" fill="#EBEBEB"/>
<path fill-rule="evenodd" clip-rule="evenodd" d="M268.8 133.161C269.444 130.067 270.102 126.973 270.725 123.879C270.851 123.249 270.977 122.955 271.747 123.123C275.513 123.958 279.286 124.745 283.066 125.482C283.808 125.629 283.864 125.909 283.724 126.56C282.408 132.781 281.113 139.008 279.839 145.243C279.678 146.034 279.419 146.209 278.628 146.034C274.974 145.229 271.313 144.459 267.645 143.752C266.735 143.577 266.672 143.234 266.847 142.436C267.533 139.356 268.149 136.255 268.8 133.161Z" fill="#EBEBEB"/>
<path d="M60.683 0H59.983V79.597H60.683V0Z" fill="#C7C7C7"/>
<path d="M86.625 104.937L84.511 109.585H36.155L34.041 104.937L54.635 90.692H66.038L86.625 104.937Z" fill="#EBEBEB"/>
<path d="M67.466 76.958L66.0379 90.692H54.635L53.2 76.958H67.466Z" fill="#DBDBDB"/>
<path d="M86.625 104.937L84.511 109.592H36.148L34.041 104.937H86.625Z" fill="#DBDBDB"/>
<path d="M109.508 0H108.808V45.003H109.508V0Z" fill="#C7C7C7"/>
<path d="M135.45 70.343L133.336 74.991H84.973L82.866 70.343L103.453 56.091H114.863L135.45 70.343Z" fill="#EBEBEB"/>
<path d="M116.291 42.364L114.863 56.091H103.453L102.025 42.364H116.291Z" fill="#DBDBDB"/>
<path d="M135.45 70.343L133.336 74.991H84.973L82.866 70.343H135.45Z" fill="#DBDBDB"/>
<path d="M223.475 86.611H186.319V123.767H223.475V86.611Z" fill="white"/>
<path d="M225.4 84.7H184.387V125.72H225.4V84.7ZM186.305 123.788V86.611H223.468V123.767L186.305 123.788Z" fill="#DBDBDB"/>
<path d="M193.522 121.093H206.367V92.134H193.522V121.093Z" fill="#EBEBEB"/>
<path d="M197.477 112.609H212.317V97.769H197.477V112.609Z" fill="#C7C7C7"/>
<path d="M225.414 127.281V125.699H184.387V127.281H225.414Z" fill="#C7C7C7"/>
<path d="M223.475 34.307H186.319V71.463H223.475V34.307Z" fill="white"/>
<path d="M217.532 40.698H189.504V50.4H217.532V40.698Z" fill="#C7C7C7"/>
<path d="M225.4 32.375H184.387V73.402H225.4V32.375ZM186.319 71.47V34.3H223.482V71.47H186.319Z" fill="#DBDBDB"/>
<path d="M212.324 45.472H197.484V60.312H212.324V45.472Z" fill="#EBEBEB"/>
<path d="M225.414 74.984V73.402H184.387V74.984H225.414Z" fill="#C7C7C7"/>
<path d="M223.475 139.979H186.319V177.135H223.475V139.979Z" fill="white"/>
<path d="M218.414 144.102H206.227V164.493H218.414V144.102Z" fill="#EBEBEB"/>
<path d="M225.4 138.047H184.387V179.067H225.4V138.047ZM186.305 177.135V140H223.468V177.156L186.305 177.135Z" fill="#DBDBDB"/>
<path d="M212.324 151.137H197.484V165.977H212.324V151.137Z" fill="#C7C7C7"/>
<path d="M225.414 180.649V179.067H184.387V180.649H225.414Z" fill="#C7C7C7"/>
<path d="M264.46 262.815C258.356 263.032 251.426 261.135 247.814 255.815C244.818 251.419 245.049 245.637 247.261 240.961C248.422 238.519 250.113 236.367 252.21 234.661C254.779 232.561 257.81 231.049 260.729 229.544C266.287 226.702 272.685 223.167 274.554 216.72C276.199 211.05 273 205.212 268.338 202.02C265.03 199.827 261.101 198.764 257.138 198.989C257.047 198.667 256.949 198.359 256.837 198.051C255.017 193.263 250.495 189.889 245.735 188.391C240.22 186.694 234.29 186.941 228.935 189.091C227.625 189.622 226.365 190.269 225.169 191.023C224.784 191.268 225.134 191.891 225.519 191.646C230.293 188.665 235.952 187.428 241.535 188.146C246.617 188.846 251.622 191.149 254.639 195.412C255.42 196.499 256.016 197.708 256.403 198.989C255.018 199.114 253.653 199.403 252.336 199.85C249.97 200.648 246.365 202.251 246.624 205.275C246.776 206.365 247.299 207.369 248.105 208.119C248.91 208.869 249.95 209.318 251.048 209.391C253.68 209.517 255.885 207.375 256.844 205.1C257.547 203.371 257.71 201.47 257.313 199.647C261.076 199.456 264.802 200.474 267.946 202.552C272.587 205.674 275.646 211.54 273.693 217.084C272.636 220.052 270.396 222.467 267.946 224.371C265.357 226.261 262.596 227.904 259.7 229.278C256.825 230.631 254.109 232.298 251.601 234.248C249.618 235.896 247.997 237.936 246.841 240.24C244.671 244.573 244.083 249.858 246.141 254.338C248.64 259.742 254.436 262.577 260.092 263.326C261.542 263.516 263.006 263.584 264.467 263.529C264.915 263.515 264.922 262.794 264.46 262.815ZM256.76 202.034C256.676 204.533 255.43 207.151 253.099 208.292C252.576 208.565 251.999 208.719 251.409 208.742C250.82 208.765 250.233 208.657 249.69 208.425C248.717 207.989 247.943 207.205 247.52 206.227C246.302 203.259 250.047 201.481 252.287 200.69C253.662 200.209 255.092 199.904 256.543 199.78C256.715 200.519 256.792 201.276 256.774 202.034H256.76Z" fill="#EBEBEB"/>
<path d="M321.573 200.032C316.831 200.468 312.176 201.578 307.748 203.329C303.425 204.996 299.383 207.317 295.764 210.21C292.362 213.01 289.52 216.51 288.169 220.752C288.169 220.801 288.169 220.85 288.12 220.899C286.174 221.559 284.298 222.41 282.52 223.44C279.161 225.316 276.095 227.674 273.42 230.44C268.048 235.929 264.367 242.847 262.815 250.369C262.633 251.272 262.493 252.189 262.381 253.106C262.318 253.561 263.032 253.694 263.081 253.232C264 246.043 266.909 239.255 271.481 233.632C273.746 230.829 276.384 228.349 279.321 226.261C281.924 224.357 284.788 222.841 287.826 221.76C287.372 223.509 287.223 225.323 287.385 227.122C287.588 229.222 288.26 231.413 289.94 232.778C290.663 233.388 291.549 233.772 292.488 233.884C293.571 233.955 294.648 233.67 295.554 233.072C297.241 232.021 298.47 230.375 298.998 228.459C299.246 227.516 299.289 226.532 299.122 225.571C298.955 224.611 298.583 223.698 298.032 222.894C297.485 222.141 296.782 221.515 295.972 221.057C295.162 220.599 294.262 220.321 293.335 220.241C291.853 220.104 290.358 220.24 288.925 220.64C290.1 217.39 292.046 214.474 294.595 212.142C297.832 209.196 301.524 206.794 305.529 205.03C309.597 203.157 313.902 201.85 318.325 201.145C319.41 200.977 320.495 200.837 321.594 200.739C321.673 200.717 321.742 200.67 321.79 200.604C321.839 200.539 321.864 200.459 321.861 200.377C321.859 200.296 321.829 200.217 321.777 200.155C321.725 200.092 321.653 200.049 321.573 200.032ZM289.016 221.424C290.752 220.866 292.605 220.779 294.385 221.172C295.28 221.414 296.101 221.875 296.774 222.512C297.448 223.15 297.952 223.945 298.242 224.826C298.534 225.746 298.612 226.721 298.47 227.675C298.328 228.63 297.97 229.54 297.423 230.335C296.345 231.931 294.385 233.513 292.334 233.135C290.283 232.757 289.002 230.853 288.484 228.935C287.972 226.881 287.946 224.736 288.407 222.67C288.484 222.278 288.596 221.893 288.701 221.515L289.016 221.424Z" fill="#EBEBEB"/>
<path d="M208.25 300.503C206.521 291.823 205.667 282.66 208.019 274.008C209.888 267.134 214.074 260.708 220.164 256.872C223.181 254.977 226.62 253.859 230.174 253.617C233.954 253.344 237.748 253.75 241.521 253.435C245.084 253.134 248.521 252.035 251.188 249.648C253.692 247.34 255.406 244.304 256.088 240.968C257.558 233.968 254.107 226.877 248.57 222.663C243.173 218.561 235.235 216.986 229.152 220.563C228.486 220.965 227.862 221.435 227.29 221.963C224.547 220.375 221.478 219.434 218.316 219.212C211.197 218.722 204.316 222.467 200.424 228.389C199.502 229.807 198.767 231.339 198.24 232.946C198.065 233.478 198.94 233.646 199.087 233.149C200.188 229.94 202.106 227.074 204.652 224.831C207.197 222.589 210.283 221.048 213.605 220.36C218.08 219.544 222.7 220.337 226.646 222.6C223.3 226.1 221.991 231.7 224.217 236.103C225.694 239.043 229.117 241.528 232.4 239.806C233.794 239.027 234.855 237.765 235.382 236.257C235.921 234.558 235.879 232.728 235.263 231.056C234.115 227.612 231.434 224.714 228.473 222.705L228.053 222.439C228.357 222.184 228.677 221.951 229.012 221.739C234.696 217.966 242.522 219.338 247.772 223.216C253.183 227.213 256.669 234.073 255.241 240.835C254.579 244.081 252.887 247.027 250.418 249.235C247.73 251.587 244.286 252.483 240.786 252.7C237.286 252.917 233.611 252.574 230.034 252.847C226.727 253.072 223.512 254.029 220.619 255.647C214.865 258.895 210.581 264.474 208.222 270.578C205.261 278.278 205.254 286.79 206.367 294.847C206.64 296.849 206.99 298.844 207.389 300.832C207.522 301.308 208.355 301.049 208.25 300.503ZM232.323 227.395C234.374 230.069 236.005 233.94 234.017 237.097C233.624 237.773 233.073 238.344 232.411 238.761C231.749 239.178 230.996 239.429 230.216 239.491C228.354 239.533 226.716 238.189 225.666 236.74C222.712 232.575 223.944 226.513 227.423 222.999C229.305 224.161 230.964 225.65 232.323 227.395Z" fill="#EBEBEB"/>
<path d="M28.203 319.844C122.248 319.417 227.752 319.41 321.797 319.844C227.752 320.278 122.248 320.271 28.203 319.844Z" fill="#263238"/>
<path d="M259.175 317.912C261.576 317.107 259.441 310.163 256.767 308.014C255.913 307.314 252.756 305.732 248.794 303.814C240.079 299.614 227.542 294.014 227.542 294.014L238.224 248.773L194.712 249.011C194.712 249.011 182.812 291.501 182.896 294.14C182.896 294.301 182.896 294.469 182.896 294.63C183.267 306.621 183.862 316.435 184.849 317.03C187.502 318.738 256.753 318.724 259.175 317.912Z" fill="#EB9481"/>
<path d="M259.175 317.912C256.753 318.724 187.495 318.738 184.863 317.065C183.876 316.449 183.281 306.635 182.91 294.665C182.91 294.504 182.91 294.336 182.91 294.175C183.22 292.028 183.674 289.905 184.268 287.819H229.019L227.549 294.049C227.549 294.049 240.086 299.649 248.801 303.849C252.763 305.76 255.92 307.349 256.774 308.049C259.448 310.163 261.576 317.1 259.175 317.912Z" fill="#EBEBEB"/>
<path d="M259.952 318.297C257.488 319.13 186.977 319.046 184.296 317.338C183.26 316.701 182.679 306.432 182.322 293.993C182.322 293.86 182.322 293.734 182.322 293.601L227.822 293.146V293.923C227.822 293.923 254.793 306.026 257.551 308.217C260.309 310.408 262.416 317.485 259.952 318.297Z" fill="#FFC727"/>
<path d="M259.161 315.567C247.261 315.259 199.304 315.147 187.53 315.749C187.432 315.749 187.432 315.819 187.53 315.826C199.304 316.386 247.275 316.106 259.161 315.763C259.406 315.749 259.406 315.574 259.161 315.567Z" fill="#263238"/>
<path d="M232.876 293.3C228.193 292.418 222.474 293.132 218.876 296.457C218.736 296.59 218.925 296.779 219.072 296.737C223.545 295.299 228.158 294.344 232.834 293.888C232.903 293.879 232.966 293.846 233.013 293.796C233.061 293.745 233.089 293.68 233.094 293.611C233.099 293.542 233.08 293.473 233.041 293.417C233.001 293.36 232.943 293.319 232.876 293.3Z" fill="#263238"/>
<path d="M236.25 295.323C231.567 294.441 225.848 295.155 222.25 298.48C222.11 298.613 222.299 298.809 222.446 298.76C226.919 297.322 231.532 296.367 236.208 295.911C236.277 295.902 236.34 295.869 236.387 295.819C236.435 295.768 236.463 295.703 236.468 295.634C236.473 295.565 236.454 295.496 236.415 295.44C236.375 295.383 236.317 295.342 236.25 295.323Z" fill="#263238"/>
<path d="M239.624 297.36C234.941 296.485 229.222 297.192 225.624 300.524C225.484 300.65 225.673 300.846 225.82 300.797C230.293 299.359 234.906 298.404 239.582 297.948C239.651 297.939 239.714 297.906 239.761 297.856C239.809 297.805 239.838 297.74 239.842 297.671C239.847 297.602 239.828 297.533 239.789 297.477C239.749 297.42 239.691 297.379 239.624 297.36Z" fill="#263238"/>
<path d="M238.966 283.087C237.132 280.553 233.709 281.687 231.756 283.325C228.452 286.199 225.963 289.893 224.539 294.035C224.533 294.053 224.53 294.072 224.532 294.091C224.534 294.11 224.541 294.128 224.551 294.144C224.561 294.161 224.574 294.174 224.591 294.184C224.607 294.195 224.625 294.201 224.644 294.203C224.644 294.56 224.98 294.903 225.379 294.791C229.243 293.391 233.555 292.313 236.866 289.744C238.798 288.246 240.702 285.481 238.966 283.087ZM230.797 291.431C228.914 292.173 227.003 292.831 225.148 293.643C226.494 291.517 227.947 289.461 229.502 287.483C230.269 286.539 231.097 285.646 231.98 284.809C233.38 283.542 238.889 280.854 238.056 285.985C237.601 288.813 233.044 290.535 230.797 291.431Z" fill="#263238"/>
<path d="M212.653 292.796C216.503 294.448 220.934 294.371 225.036 294.77C225.127 294.771 225.217 294.75 225.298 294.709C225.38 294.669 225.451 294.61 225.505 294.537C225.56 294.464 225.596 294.379 225.612 294.29C225.628 294.2 225.622 294.108 225.596 294.021C225.615 294.015 225.633 294.004 225.647 293.99C225.661 293.976 225.672 293.959 225.678 293.939C225.685 293.92 225.686 293.9 225.683 293.88C225.679 293.86 225.671 293.841 225.659 293.825C223.231 290.183 219.89 287.241 215.971 285.292C213.661 284.207 210.063 283.976 208.929 286.888C207.858 289.646 210.399 291.837 212.653 292.796ZM210.553 289.464C208.453 284.704 214.466 285.915 216.153 286.783C217.221 287.365 218.248 288.02 219.226 288.743C221.23 290.263 223.156 291.884 224.994 293.601C222.992 293.286 220.983 293.139 218.974 292.901C216.545 292.6 211.701 292.082 210.539 289.464H210.553Z" fill="#263238"/>
<path d="M132.601 220.654C132.601 220.654 124.803 248.892 138.418 257.25C147.518 262.85 187.691 255.115 189.399 250.145C192.626 240.765 192.633 237.328 192.633 237.328L182.315 287.07L232.932 287.665C232.932 287.665 242.431 246.512 239.988 202.839C239.085 186.69 217.378 181.839 202.279 189.833C187.642 197.624 161.42 219.233 161.42 219.233L132.601 220.654Z" fill="#37474F"/>
<path d="M186.585 257.922C189.315 251.244 189.098 248.626 195.916 227.906C196.826 225.106 197.589 222.306 198.401 219.506C199.241 216.601 200.242 213.71 200.879 210.756C200.879 210.616 201.145 210.672 201.103 210.812C200.319 213.374 199.808 216.02 199.129 218.61C198.45 221.2 197.792 223.685 197.085 226.205C196.777 227.297 196.455 228.382 196.147 229.474L196.546 228.774C197.141 227.752 197.743 226.73 198.359 225.722C199.633 223.622 201.159 221.704 202.3 219.534C202.37 219.408 202.58 219.534 202.503 219.646C201.215 221.746 200.298 224.014 199.094 226.135C198.506 227.164 197.897 228.172 197.267 229.173C196.739 230.118 196.133 231.018 195.454 231.861C194.523 235.06 192.528 242.767 191.534 245.945C188.398 255.962 189.434 252.7 187.089 258.076C186.97 258.405 186.466 258.209 186.585 257.922Z" fill="#263238"/>
<path d="M209.643 278.852C202.02 278.768 194.418 278.334 186.795 278.194C186.655 278.194 186.634 277.963 186.795 277.963C194.39 277.921 201.971 277.62 209.566 277.711C217.161 277.802 224.791 278.18 232.407 278.411C232.596 278.411 232.631 278.719 232.407 278.719C224.819 278.761 217.238 278.929 209.643 278.852Z" fill="#263238"/>
<path d="M190.967 276.304C191.667 272.937 192.64 269.633 193.529 266.315C194.418 262.997 195.307 259.672 196.224 256.361C198.058 249.732 199.969 243.124 201.88 236.516C202.958 232.764 204.134 229.033 205.282 225.316C205.288 225.294 205.302 225.275 205.322 225.263C205.341 225.251 205.365 225.247 205.387 225.253C205.409 225.259 205.428 225.273 205.44 225.292C205.452 225.312 205.456 225.336 205.45 225.358C202.053 238.686 198.406 251.946 194.509 265.139C193.403 268.877 192.409 272.671 191.086 276.339C191.079 276.352 191.068 276.363 191.055 276.369C191.041 276.375 191.026 276.375 191.012 276.371C190.998 276.367 190.985 276.358 190.977 276.346C190.969 276.333 190.965 276.319 190.967 276.304Z" fill="#263238"/>
<path d="M138.418 257.243C124.803 248.892 132.601 220.654 132.601 220.654L156.884 219.464L189.952 248.5C189.777 249.018 189.595 249.564 189.399 250.131C187.691 255.115 147.511 262.829 138.418 257.243Z" fill="#263238"/>
<path d="M233.184 286.517C233.023 287.273 232.932 287.658 232.932 287.658L182.315 287.07L190.253 248.787L233.184 286.517Z" fill="#263238"/>
<path d="M28.9381 325.15C28.4831 327.642 35.6021 329.119 38.7381 327.803C39.7391 327.383 42.6721 325.395 46.2561 322.84C54.1241 317.24 65.0721 308.938 65.0721 308.938L102.263 311.185L123.018 272.93C123.018 272.93 88.8091 270.956 86.4641 269.745L86.1001 269.5C75.4111 264.054 66.5001 259.847 65.5061 260.4C62.7341 261.94 29.4001 322.637 28.9381 325.15Z" fill="#EB9481"/>
<path d="M93.023 270.732L73.458 309.442L65.1 308.938C65.1 308.938 54.159 317.219 46.284 322.84C42.707 325.388 39.781 327.383 38.773 327.803C35.602 329.119 28.483 327.642 28.973 325.143C29.463 322.644 62.734 261.94 65.471 260.4C66.479 259.84 75.383 264.04 86.058 269.5C86.212 269.57 86.352 269.654 86.492 269.724C87.073 270.046 89.6 270.389 93.023 270.732Z" fill="#EBEBEB"/>
<path d="M28.224 325.647C28.686 323.085 62.72 261.331 65.506 259.805C66.556 259.203 75.845 263.641 86.912 269.318L87.262 269.5L65.751 309.589L65.051 309.204C65.051 309.204 41.482 327.012 38.234 328.37C34.986 329.728 27.755 328.195 28.224 325.647Z" fill="#FFC727"/>
<path d="M31.003 326.263C36.995 315.994 60.2 274.008 65.338 263.403C65.38 263.319 65.338 263.284 65.275 263.368C59.115 273.413 36.253 315.588 30.835 326.172C30.716 326.396 30.877 326.48 31.003 326.263Z" fill="#263238"/>
<path d="M63.189 313.964C66.213 310.289 68.348 304.927 67.151 300.188C67.102 300.006 66.843 300.076 66.815 300.23C65.9207 304.842 64.5362 309.345 62.685 313.663C62.6503 313.73 62.6423 313.807 62.6627 313.879C62.6831 313.951 62.7304 314.013 62.7949 314.051C62.8593 314.09 62.936 314.102 63.0093 314.086C63.0826 314.07 63.1469 314.026 63.189 313.964Z" fill="#263238"/>
<path d="M59.78 315.938C62.804 312.263 64.932 306.908 63.742 302.169C63.693 301.98 63.434 302.05 63.399 302.204C62.5079 306.817 61.1233 311.32 59.269 315.637C59.2441 315.703 59.2433 315.776 59.2669 315.843C59.2905 315.91 59.3369 315.966 59.398 316.002C59.459 316.038 59.5308 316.052 59.6007 316.04C59.6706 316.028 59.7341 315.992 59.78 315.938Z" fill="#263238"/>
<path d="M56.3641 317.912C59.388 314.237 61.5231 308.882 60.3261 304.143C60.2841 303.961 60.025 304.024 59.99 304.185C59.098 308.795 57.7134 313.296 55.8601 317.611C55.8253 317.678 55.8173 317.755 55.8378 317.827C55.8582 317.899 55.9055 317.961 55.9699 318C56.0344 318.038 56.1111 318.05 56.1844 318.034C56.2577 318.018 56.3219 317.974 56.3641 317.912Z" fill="#263238"/>
<path d="M69.1881 324.212C72.2961 323.827 72.9471 320.278 72.4571 317.779C71.5283 313.501 69.4908 309.542 66.5491 306.299C66.5374 306.283 66.5221 306.27 66.5045 306.261C66.4868 306.252 66.4674 306.248 66.4476 306.248C66.4278 306.248 66.4083 306.252 66.3907 306.261C66.3731 306.27 66.3578 306.283 66.3461 306.299C66.2681 306.251 66.18 306.222 66.0888 306.215C65.9976 306.208 65.906 306.222 65.8214 306.257C65.7368 306.292 65.6616 306.346 65.602 306.415C65.5423 306.485 65.4999 306.567 65.4781 306.656C64.8691 310.744 63.7001 315 64.4001 319.2C64.7501 321.58 66.2551 324.583 69.1881 324.212ZM65.8141 313.012C66.0661 311.003 66.4161 309.022 66.5981 306.999C67.8104 309.203 68.9108 311.467 69.8951 313.782C70.3574 314.91 70.7432 316.067 71.0501 317.247C71.4841 319.074 71.1831 325.199 67.0881 322C64.8271 320.257 65.5131 315.434 65.8001 313.033L65.8141 313.012Z" fill="#263238"/>
<path d="M73.353 296.471C70.056 299.054 67.991 302.981 65.653 306.376C65.6081 306.456 65.5828 306.545 65.5791 306.637C65.5754 306.728 65.5934 306.82 65.6316 306.903C65.6698 306.986 65.7272 307.059 65.799 307.116C65.8709 307.173 65.9552 307.212 66.045 307.23C66.0418 307.249 66.0428 307.268 66.0482 307.286C66.0535 307.305 66.0629 307.322 66.0757 307.336C66.0886 307.35 66.1044 307.361 66.1221 307.368C66.1398 307.375 66.1589 307.378 66.178 307.377C70.5406 307.007 74.729 305.496 78.323 302.995C80.388 301.504 82.327 298.459 80.318 296.058C78.4 293.79 75.278 294.966 73.353 296.471ZM77.294 296.233C82.474 296.681 78.519 301.371 76.951 302.414C75.925 303.068 74.8563 303.653 73.752 304.164C71.4658 305.187 69.1295 306.093 66.752 306.88C67.998 305.284 69.09 303.59 70.252 301.98C71.659 299.985 74.438 295.988 77.294 296.233Z" fill="#263238"/>
<path d="M164.626 213.745C165.365 220.639 165.755 227.566 165.795 234.5C165.795 234.5 213.871 259.7 216.069 283.647C216.846 292.131 215.712 308.028 199.08 315.266C180.495 323.337 77.777 317.8 77.777 317.8L90.608 270.508H135.912C135.912 270.508 103.943 275.597 100.471 254.296C97.244 234.493 109.403 213.766 109.403 213.766L164.626 213.745Z" fill="#37474F"/>
<path d="M88.389 315.448C89.516 310.002 90.615 304.521 91.889 299.103C93.163 293.685 94.5 288.26 95.9 282.877C96.306 281.351 96.719 279.839 97.132 278.32C97.328 277.62 97.524 276.871 97.734 276.15C97.944 275.429 98.112 274.673 98.399 273.98C98.399 273.903 98.518 273.98 98.511 274.022C98.322 275.437 98.0485 276.84 97.692 278.222C97.405 279.538 97.132 280.854 96.845 282.17C96.257 284.872 95.6527 287.572 95.032 290.269C93.786 295.673 92.414 301.028 91.007 306.369C90.209 309.412 89.4064 312.445 88.599 315.469C88.571 315.7 88.347 315.63 88.389 315.448Z" fill="#263238"/>
<path d="M120.274 270.487C123.942 270.221 127.617 270.102 131.299 270.025C134.981 269.948 138.656 269.99 142.338 270.06C146.02 270.13 149.695 270.319 153.363 270.648C157.037 270.923 160.689 271.451 164.29 272.23L161.553 271.873L158.816 271.614C156.982 271.46 155.155 271.306 153.321 271.222C149.66 271.012 145.992 270.865 142.317 270.802C138.642 270.739 134.974 270.648 131.299 270.599L120.274 270.487Z" fill="#263238"/>
<path d="M119.469 217.623C117.827 221.836 116.402 226.13 115.199 230.489C113.966 234.829 113.09 239.264 112.581 243.747C112.335 245.976 112.288 248.223 112.441 250.46C112.552 252.673 113.107 254.842 114.072 256.837C114.562 257.805 115.226 258.673 116.032 259.399C116.862 260.123 117.765 260.759 118.727 261.296C120.69 262.349 122.763 263.183 124.908 263.781C129.255 264.938 133.689 265.741 138.166 266.182C142.646 266.707 147.154 267.071 151.662 267.526C156.195 267.913 160.695 268.615 165.13 269.626C167.384 270.133 169.561 270.936 171.605 272.013C173.616 273.127 175.495 274.466 177.205 276.003L178.22 276.906H176.82L140.189 276.416L121.87 276.269C115.766 276.269 109.662 276.234 103.551 276.395C109.655 276.045 115.759 275.947 121.87 275.835C127.981 275.723 134.085 275.716 140.189 275.702H158.515L176.834 275.87L176.477 276.759C174.816 275.286 172.994 274.007 171.045 272.944C169.075 271.917 166.978 271.157 164.808 270.683C160.422 269.718 155.98 269.031 151.508 268.625C147.021 268.142 142.513 267.757 138.005 267.225C133.477 266.754 128.994 265.918 124.6 264.726C122.385 264.103 120.251 263.22 118.244 262.094C117.242 261.511 116.304 260.826 115.444 260.05C114.581 259.251 113.869 258.303 113.344 257.25C112.359 255.148 111.804 252.87 111.713 250.551C111.589 248.271 111.669 245.985 111.951 243.719C112.531 239.21 113.501 234.76 114.849 230.419C116.144 226.069 117.686 221.797 119.469 217.623Z" fill="#263238"/>
<path d="M159.383 213.248C159.383 213.224 159.393 213.201 159.41 213.184C159.427 213.167 159.45 213.157 159.474 213.157C159.498 213.157 159.521 213.167 159.538 213.184C159.555 213.201 159.565 213.224 159.565 213.248C159.754 214.886 160.328 224.238 160.615 227.759C160.713 229.019 160.615 231.259 162.477 231.259C163.926 231.259 164.647 229.684 164.808 228.459C165.004 226.961 164.199 216.104 164.017 212.492C164.017 212.387 164.178 212.38 164.192 212.492C164.857 216.111 166.152 227.633 165.767 229.25C165.466 230.51 164.815 231.714 163.527 232.141C163.636 233.563 163.615 234.993 163.464 236.411C163.464 236.53 163.086 236.558 163.058 236.467C163.121 235.62 162.673 232.337 162.687 232.323C162.24 232.362 161.79 232.285 161.381 232.098C160.973 231.912 160.619 231.623 160.356 231.259C159.075 229.53 159.355 217.413 159.383 213.248Z" fill="#263238"/>
<path d="M154.189 240.989C155.505 240.086 156.856 239.267 158.221 238.455C159.586 237.643 160.972 236.887 162.372 236.138C163.772 235.389 165.172 234.682 166.635 234.038C168.098 233.394 169.526 232.729 171.031 232.204C170.331 232.617 169.631 232.988 168.931 233.394L166.831 234.549C165.431 235.326 164.031 236.068 162.631 236.81C161.231 237.552 159.831 238.28 158.431 238.973L156.331 240.016C155.638 240.331 154.924 240.681 154.189 240.989Z" fill="#263238"/>
<path d="M120.071 233.471C122.619 233.471 130.571 233.926 134.365 230.727C137.431 228.137 138.775 219.289 139.307 216.86C139.307 216.741 139.51 216.783 139.51 216.895C139.571 219.638 139.224 222.374 138.481 225.015C137.865 227.255 137.039 229.754 135.226 231.315C133.413 232.876 130.732 233.548 128.296 233.849C125.559 234.169 122.792 234.131 120.064 233.737C120.036 233.727 120.012 233.709 119.996 233.684C119.979 233.66 119.97 233.631 119.971 233.601C119.972 233.572 119.982 233.543 120 233.52C120.018 233.497 120.043 233.479 120.071 233.471Z" fill="#263238"/>
<path d="M162.785 165.557C170.856 177.555 182.063 199.402 194.551 201.782C206.451 204.05 227.962 177.793 234.15 168.973C236.397 165.781 212.821 150.332 209.867 152.992C204.302 158.004 193.543 172.27 191.667 172.025C189.791 171.78 182.693 165.655 167.867 154.917C158.9 148.4 153.699 152.033 162.785 165.557Z" fill="#EB9481"/>
<path d="M231.938 171.605C234.528 169.596 245.609 159.334 248.038 155.785C250.467 152.236 256.774 141.533 254.247 139.384C251.72 137.235 249.627 140.224 249.627 140.224C249.627 140.224 251.573 135.282 248.829 133.35C246.085 131.418 242.991 136.15 242.991 136.15C242.991 136.15 244.615 130.928 241.745 129.199C238.875 127.47 236.558 132.776 236.558 132.776C236.558 132.776 238.259 128.065 235.298 127.638C231.735 127.12 229.565 136.15 226.576 139.86C225.876 140.707 211.589 155.96 211.589 155.96L231.938 171.605Z" fill="#EB9481"/>
<path d="M236.775 132.349C235.172 138.992 233.317 141.617 228.487 146.293C228.396 146.384 228.487 146.545 228.62 146.461C233.758 142.31 236.558 139.349 237.104 132.412C237.132 132.076 236.852 132.034 236.775 132.349Z" fill="#263238"/>
<path d="M243.124 135.646C240.849 142.394 238.868 145.264 234.171 150.535C234.101 150.612 234.227 150.731 234.297 150.661C239.337 145.873 242.06 142.856 243.446 135.814C243.509 135.499 243.229 135.338 243.124 135.646Z" fill="#263238"/>
<path d="M249.396 140.483C246.722 146.86 244.685 150.094 239.47 154.63C239.443 154.65 239.425 154.681 239.421 154.714C239.416 154.748 239.425 154.782 239.446 154.808C239.466 154.835 239.496 154.853 239.53 154.858C239.563 154.862 239.597 154.853 239.624 154.833C245.392 150.724 247.968 146.706 249.578 140.588C249.69 140.168 249.564 140.084 249.396 140.483Z" fill="#263238"/>
<path d="M207.123 157.332C207.123 157.332 208.39 148.869 209.769 145.271C211.148 141.673 221.2 130.2 223.825 132.202C227.192 134.827 222.684 142.618 219.982 146.139C219.982 146.139 227.78 152.208 225.757 158.494C223.734 164.78 207.123 157.332 207.123 157.332Z" fill="#EB9481"/>
<path d="M224.511 133.231C225.855 137.837 222.005 142.24 219.611 145.831C219.574 145.883 219.55 145.943 219.541 146.007C219.532 146.07 219.538 146.135 219.559 146.195C219.581 146.256 219.616 146.31 219.663 146.354C219.71 146.398 219.766 146.43 219.828 146.447C222.929 149.205 226.492 154 225.967 158.347C225.961 158.373 225.966 158.4 225.981 158.422C225.995 158.445 226.018 158.46 226.044 158.466C226.07 158.472 226.097 158.467 226.12 158.452C226.142 158.438 226.157 158.415 226.163 158.389C227.36 153.804 224.238 148.806 220.654 145.999C223.139 142.331 226.807 137.746 224.525 133.196C224.539 133.189 224.504 133.196 224.511 133.231Z" fill="#263238"/>
<path d="M203.7 156.051L228.2 178.836C228.2 178.836 204.512 206.892 194.6 204.4C183.218 201.544 167.713 180.208 159.53 161.133C153.867 147.938 162.463 147.903 169.988 154.357C177.835 161.077 191.352 170.737 192.234 170.457C193.116 170.177 203.7 156.051 203.7 156.051Z" fill="#FFC727"/>
<path d="M172.291 156.261C172.11 156.439 171.969 156.654 171.878 156.891C171.719 157.232 171.684 157.619 171.78 157.983C171.836 158.326 171.878 158.648 171.955 158.97C172.044 158.645 172.114 158.316 172.165 157.983C172.194 157.692 172.29 157.412 172.445 157.164C172.557 156.995 172.7 156.848 172.865 156.73L172.291 156.261ZM157.787 155.218C157.791 155.236 157.791 155.256 157.787 155.274L157.85 155.169L157.787 155.218ZM209.727 187.6C209.438 187.568 209.16 187.469 208.915 187.313C208.69 187.17 208.507 186.971 208.384 186.735C208.262 186.499 208.203 186.235 208.215 185.969C208.2 185.564 208.067 185.171 207.834 184.84C207.6 184.508 207.275 184.251 206.899 184.1C206.539 184.002 206.16 184.002 205.8 184.1C205.458 184.147 205.119 184.215 204.785 184.303C205.128 184.387 205.45 184.422 205.8 184.492C206.093 184.515 206.378 184.604 206.633 184.751C206.858 184.887 207.044 185.078 207.175 185.305C207.306 185.533 207.377 185.79 207.382 186.053C207.381 186.456 207.5 186.849 207.723 187.184C207.946 187.52 208.263 187.781 208.635 187.936C208.981 188.084 209.364 188.126 209.734 188.055C210.077 187.978 210.434 187.936 210.728 187.852C210.4 187.745 210.066 187.661 209.727 187.6ZM179.578 173.362C179.283 173.334 178.999 173.241 178.745 173.089C178.525 172.942 178.345 172.742 178.223 172.507C178.1 172.272 178.039 172.01 178.045 171.745C178.038 171.338 177.908 170.942 177.674 170.609C177.439 170.275 177.11 170.02 176.729 169.876C176.376 169.753 175.997 169.726 175.63 169.799C175.287 169.876 174.93 169.918 174.636 170.002C174.963 170.089 175.295 170.155 175.63 170.198C175.925 170.219 176.21 170.31 176.463 170.464C176.692 170.597 176.884 170.787 177.02 171.014C177.156 171.242 177.232 171.501 177.24 171.766C177.232 172.174 177.348 172.574 177.573 172.914C177.798 173.254 178.122 173.518 178.5 173.67C178.852 173.817 179.24 173.854 179.613 173.775C179.945 173.735 180.275 173.677 180.6 173.6C180.229 173.495 179.9 173.453 179.578 173.383V173.362ZM220.381 171.262C220.337 170.927 220.272 170.595 220.185 170.268C220.108 170.569 220.066 170.863 219.996 171.178V171.262C219.98 171.555 219.896 171.84 219.751 172.095C219.62 172.322 219.431 172.511 219.204 172.643C218.976 172.774 218.719 172.844 218.456 172.844C218.051 172.848 217.656 172.969 217.318 173.193C216.98 173.416 216.714 173.733 216.552 174.104C216.42 174.455 216.386 174.835 216.454 175.203C216.499 175.543 216.564 175.879 216.65 176.211C216.741 175.88 216.809 175.543 216.853 175.203C216.878 174.91 216.977 174.628 217.14 174.384C217.281 174.16 217.48 173.977 217.714 173.854C217.949 173.731 218.212 173.673 218.477 173.684C218.882 173.669 219.275 173.536 219.606 173.303C219.938 173.069 220.195 172.744 220.346 172.368C220.438 172.115 220.472 171.845 220.444 171.577C220.429 171.487 220.408 171.398 220.381 171.311V171.262ZM188.643 183.82C188.601 183.485 188.535 183.152 188.447 182.826C188.37 183.148 188.321 183.47 188.244 183.82C188.225 184.112 188.141 184.397 187.999 184.653C187.864 184.879 187.674 185.067 187.446 185.198C187.218 185.329 186.96 185.399 186.697 185.402C186.293 185.405 185.898 185.525 185.56 185.748C185.222 185.97 184.956 186.285 184.793 186.655C184.663 187.006 184.629 187.385 184.695 187.754C184.74 188.096 184.805 188.435 184.891 188.769C184.981 188.435 185.051 188.096 185.101 187.754C185.125 187.464 185.221 187.185 185.381 186.942C185.524 186.719 185.722 186.537 185.956 186.414C186.191 186.291 186.453 186.232 186.718 186.242C187.123 186.227 187.516 186.094 187.847 185.861C188.179 185.627 188.436 185.302 188.587 184.926C188.704 184.586 188.724 184.22 188.643 183.869V183.82ZM200.928 197.82C200.714 198.015 200.45 198.146 200.165 198.198C199.907 198.261 199.637 198.253 199.383 198.175C199.13 198.098 198.902 197.953 198.723 197.757C198.425 197.482 198.053 197.299 197.653 197.231C197.253 197.162 196.842 197.212 196.469 197.372C196.13 197.521 195.841 197.764 195.636 198.072C195.454 198.359 195.23 198.625 195.069 198.926C195.37 198.744 195.636 198.534 195.923 198.359C196.14 198.159 196.405 198.019 196.693 197.953C196.946 197.881 197.214 197.877 197.47 197.941C197.725 198.004 197.959 198.134 198.149 198.317C198.428 198.608 198.789 198.807 199.184 198.89C199.578 198.972 199.989 198.934 200.361 198.779C200.715 198.636 201.019 198.393 201.236 198.079C201.418 197.799 201.621 197.533 201.782 197.225C201.481 197.47 201.215 197.666 200.9 197.855L200.928 197.82ZM203.028 169.484C202.81 169.679 202.544 169.812 202.258 169.869C201.999 169.928 201.73 169.918 201.477 169.839C201.224 169.76 200.996 169.616 200.816 169.421C200.521 169.142 200.15 168.957 199.75 168.89C199.35 168.823 198.939 168.876 198.569 169.043C198.228 169.192 197.937 169.434 197.729 169.743C197.554 170.023 197.33 170.289 197.162 170.597C197.47 170.408 197.729 170.205 198.016 170.023C198.234 169.822 198.502 169.684 198.793 169.624C199.046 169.552 199.314 169.548 199.57 169.612C199.825 169.675 200.059 169.805 200.249 169.988C200.453 170.203 200.702 170.369 200.979 170.475C201.256 170.581 201.552 170.623 201.847 170.6C202.143 170.576 202.429 170.487 202.685 170.339C202.941 170.191 203.161 169.987 203.329 169.743C203.518 169.456 203.714 169.19 203.882 168.889C203.567 169.134 203.308 169.33 203 169.519L203.028 169.484Z" fill="white"/>
<path d="M221.018 183.4C217.476 180.264 203.455 166.922 200.62 163.835C200.424 163.618 200.515 163.443 200.746 163.639C211.582 172.739 217.819 180.005 221.137 183.239C221.2 183.309 221.109 183.449 221.018 183.4Z" fill="#263238"/>
<path opacity="0.1" d="M192.969 203.868C181.769 199.514 167.356 179.305 159.558 161.168C156.443 153.902 157.647 150.626 160.615 150.227C170.289 165.06 183.029 186.9 192.969 203.868Z" fill="#000102"/>
<path d="M100.639 226.653L168.161 233.961C167.783 235.228 174.846 193.326 169.4 157.36C168.273 149.905 156.303 148.057 150.598 150.871C125.601 163.205 100.73 226.1 100.639 226.653Z" fill="#FFC727"/>
<path d="M156.373 212.023C156.141 212.211 155.868 212.341 155.575 212.401C155.318 212.455 155.052 212.442 154.801 212.365C154.55 212.288 154.323 212.149 154.14 211.96C153.85 211.671 153.478 211.479 153.075 211.409C152.672 211.339 152.257 211.394 151.886 211.568C151.547 211.734 151.26 211.988 151.053 212.303C150.871 212.569 150.675 212.828 150.486 213.129C150.783 212.962 151.069 212.775 151.34 212.569C151.574 212.393 151.834 212.254 152.11 212.156C152.367 212.094 152.636 212.097 152.892 212.166C153.147 212.234 153.381 212.366 153.573 212.548C153.855 212.835 154.215 213.032 154.609 213.114C155.003 213.196 155.412 213.16 155.785 213.01C156.136 212.866 156.438 212.623 156.653 212.31C156.835 212.03 157.038 211.764 157.199 211.456C156.913 211.629 156.637 211.818 156.373 212.023ZM113.218 215.691C113.004 215.891 112.737 216.025 112.448 216.076C112.189 216.138 111.919 216.131 111.663 216.056C111.408 215.981 111.176 215.841 110.992 215.649C110.703 215.366 110.336 215.176 109.938 215.103C109.54 215.031 109.129 215.08 108.759 215.243C108.427 215.403 108.141 215.644 107.926 215.943C107.717 216.215 107.525 216.501 107.352 216.797C107.65 216.629 107.936 216.44 108.206 216.23C108.425 216.033 108.69 215.894 108.976 215.824C109.229 215.76 109.495 215.762 109.747 215.829C109.999 215.897 110.23 216.027 110.418 216.209C110.621 216.426 110.87 216.595 111.147 216.703C111.424 216.811 111.722 216.856 112.019 216.833C112.315 216.81 112.603 216.721 112.86 216.571C113.118 216.422 113.338 216.217 113.505 215.971C113.68 215.684 113.911 215.418 114.072 215.117C113.771 215.306 113.505 215.509 113.218 215.691ZM132.881 183.757C132.663 183.952 132.397 184.085 132.111 184.142C131.853 184.2 131.584 184.19 131.331 184.113C131.079 184.036 130.85 183.894 130.669 183.701C130.375 183.422 130.004 183.236 129.604 183.168C129.204 183.099 128.793 183.151 128.422 183.316C128.083 183.465 127.794 183.708 127.589 184.016C127.407 184.296 127.183 184.562 127.015 184.87C127.323 184.681 127.589 184.478 127.869 184.296C128.087 184.095 128.355 183.957 128.646 183.897C128.899 183.825 129.167 183.821 129.423 183.885C129.678 183.948 129.912 184.078 130.102 184.261C130.382 184.551 130.742 184.75 131.137 184.832C131.531 184.915 131.942 184.877 132.314 184.723C132.664 184.573 132.966 184.331 133.189 184.023C133.371 183.736 133.567 183.47 133.735 183.169C133.434 183.4 133.168 183.575 132.881 183.757ZM157.003 155.757C156.781 155.949 156.514 156.082 156.226 156.142C155.969 156.202 155.701 156.193 155.449 156.115C155.197 156.038 154.97 155.895 154.791 155.701C154.493 155.426 154.121 155.243 153.721 155.175C153.321 155.106 152.91 155.156 152.537 155.316C152.2 155.467 151.911 155.71 151.704 156.016C151.522 156.303 151.298 156.569 151.137 156.87C151.438 156.688 151.704 156.485 151.991 156.303C152.207 156.106 152.47 155.966 152.754 155.897C153.008 155.824 153.277 155.82 153.534 155.884C153.791 155.948 154.026 156.078 154.217 156.261C154.422 156.475 154.673 156.64 154.949 156.745C155.226 156.85 155.523 156.893 155.819 156.869C156.114 156.846 156.4 156.757 156.657 156.609C156.914 156.462 157.135 156.259 157.304 156.016C157.493 155.729 157.689 155.47 157.857 155.162C157.549 155.358 157.283 155.561 157.003 155.736V155.757ZM160.587 174.307C160.51 173.978 160.468 173.656 160.384 173.313C160.286 173.656 160.244 173.978 160.181 174.307C160.158 174.607 160.07 174.899 159.922 175.161C159.789 175.388 159.598 175.576 159.37 175.708C159.142 175.839 158.883 175.909 158.62 175.91C158.216 175.907 157.821 176.026 157.485 176.25C157.149 176.475 156.889 176.795 156.737 177.17C156.578 177.511 156.543 177.898 156.639 178.262C156.695 178.605 156.737 178.962 156.814 179.256C156.904 178.93 156.972 178.598 157.017 178.262C157.053 177.974 157.151 177.697 157.304 177.45C157.447 177.227 157.645 177.045 157.879 176.922C158.114 176.799 158.377 176.74 158.641 176.75C159.047 176.734 159.44 176.601 159.772 176.366C160.104 176.131 160.36 175.805 160.51 175.427C160.627 175.063 160.653 174.676 160.587 174.3V174.307ZM130.9 198.954C130.854 198.619 130.788 198.287 130.704 197.96C130.62 198.282 130.578 198.611 130.494 198.954C130.478 199.247 130.395 199.532 130.249 199.787C130.118 200.014 129.929 200.203 129.702 200.335C129.474 200.466 129.217 200.536 128.954 200.536C128.549 200.54 128.154 200.661 127.816 200.885C127.478 201.108 127.212 201.425 127.05 201.796C126.918 202.146 126.881 202.526 126.945 202.895C126.996 203.234 127.064 203.571 127.148 203.903C127.239 203.572 127.307 203.235 127.351 202.895C127.376 202.602 127.475 202.32 127.638 202.076C127.78 201.852 127.978 201.669 128.212 201.546C128.447 201.423 128.71 201.365 128.975 201.376C129.379 201.359 129.77 201.226 130.1 200.993C130.431 200.759 130.686 200.435 130.837 200.06C130.962 199.705 130.984 199.321 130.9 198.954ZM170.1 194.159C169.871 194.35 169.607 194.495 169.323 194.586C169.066 194.648 168.797 194.644 168.542 194.576C168.286 194.507 168.052 194.376 167.86 194.194C167.578 193.91 167.218 193.715 166.827 193.633C166.435 193.551 166.028 193.585 165.655 193.732C165.301 193.872 164.999 194.116 164.787 194.432C164.598 194.719 164.395 194.985 164.213 195.286C164.521 195.104 164.787 194.901 165.067 194.719C165.293 194.537 165.556 194.406 165.837 194.334C166.098 194.284 166.368 194.298 166.623 194.374C166.878 194.451 167.11 194.589 167.3 194.775C167.595 195.056 167.966 195.243 168.368 195.313C168.769 195.383 169.182 195.332 169.554 195.167C169.89 194.998 170.177 194.745 170.387 194.432C170.562 194.152 170.772 193.893 170.926 193.585C170.66 193.774 170.401 193.977 170.1 194.159ZM149.1 194.817C148.813 194.788 148.536 194.697 148.288 194.551C148.065 194.408 147.884 194.209 147.761 193.975C147.638 193.741 147.579 193.478 147.588 193.214C147.572 192.808 147.439 192.415 147.204 192.083C146.969 191.752 146.643 191.495 146.265 191.345C145.915 191.21 145.532 191.183 145.166 191.268C144.823 191.345 144.501 191.387 144.158 191.464C144.489 191.557 144.826 191.628 145.166 191.674C145.461 191.689 145.749 191.773 146.006 191.919C146.236 192.047 146.428 192.233 146.566 192.457C146.703 192.681 146.78 192.937 146.79 193.2C146.794 193.605 146.915 194 147.139 194.338C147.362 194.676 147.679 194.942 148.05 195.104C148.398 195.245 148.78 195.281 149.149 195.209C149.492 195.146 149.849 195.104 150.164 195.006C149.8 194.936 149.492 194.894 149.149 194.817H149.1ZM135.009 221.053C134.715 221.025 134.43 220.932 134.176 220.78C133.956 220.632 133.777 220.432 133.655 220.197C133.532 219.962 133.471 219.701 133.476 219.436C133.474 219.139 133.406 218.846 133.277 218.579C133.148 218.312 132.961 218.076 132.73 217.89C132.499 217.704 132.229 217.571 131.941 217.502C131.652 217.433 131.352 217.429 131.061 217.49C130.718 217.567 130.396 217.609 130.067 217.693C130.394 217.78 130.726 217.845 131.061 217.889C131.356 217.91 131.641 218.001 131.894 218.155C132.125 218.287 132.318 218.476 132.454 218.704C132.59 218.932 132.665 219.191 132.671 219.457C132.665 219.859 132.779 220.254 133 220.589C133.221 220.925 133.538 221.187 133.91 221.34C134.262 221.488 134.65 221.525 135.023 221.445C135.358 221.395 135.69 221.327 136.017 221.242C135.702 221.2 135.38 221.123 135.058 221.053H135.009ZM157.171 232.253C156.877 232.224 156.594 232.126 156.345 231.966C156.123 231.82 155.943 231.62 155.82 231.385C155.698 231.15 155.637 230.887 155.645 230.622C155.639 230.215 155.51 229.819 155.276 229.487C155.041 229.155 154.711 228.901 154.329 228.76C153.977 228.643 153.6 228.621 153.237 228.697C152.915 228.76 152.572 228.802 152.243 228.886C152.57 228.971 152.902 229.036 153.237 229.082C153.528 229.112 153.809 229.203 154.063 229.348C154.293 229.479 154.485 229.667 154.621 229.894C154.757 230.121 154.833 230.379 154.84 230.643C154.831 231.046 154.945 231.443 155.166 231.78C155.387 232.118 155.706 232.38 156.079 232.533C156.261 232.615 156.455 232.664 156.653 232.68C156.832 232.701 157.013 232.701 157.192 232.68C157.514 232.596 157.836 232.554 158.193 232.47C157.864 232.4 157.542 232.351 157.22 232.288L157.171 232.253ZM143.696 170.443C143.405 170.412 143.124 170.313 142.877 170.156C142.652 170.013 142.469 169.814 142.347 169.578C142.224 169.342 142.165 169.078 142.177 168.812C142.16 168.408 142.027 168.017 141.794 167.687C141.56 167.357 141.236 167.101 140.861 166.95C140.507 166.832 140.127 166.81 139.762 166.887C139.419 166.95 139.097 166.992 138.747 167.09C139.097 167.174 139.447 167.209 139.762 167.279C140.055 167.306 140.339 167.394 140.595 167.538C140.82 167.674 141.006 167.865 141.137 168.093C141.268 168.32 141.339 168.577 141.344 168.84C141.345 169.244 141.464 169.639 141.689 169.975C141.913 170.312 142.231 170.574 142.604 170.73C142.952 170.872 143.333 170.913 143.703 170.849C144.046 170.765 144.403 170.73 144.697 170.639C144.383 170.566 144.065 170.512 143.745 170.478L143.696 170.443Z" fill="white"/>
<path d="M141.68 159.054C124.929 179.431 105.483 219.954 110.537 227.542C116.137 235.991 139.279 208.362 139.041 206.843C138.859 205.688 145.733 180.943 151.011 162.96C156.289 144.977 145.824 154 141.68 159.054Z" fill="#EB9481"/>
<path d="M139.216 206.85C139.769 204.225 149.205 171.591 151.816 161.308C154.427 151.025 150.885 148.232 141.673 158.277C132.461 168.322 113.582 199.255 110.026 215.894C106.603 231.924 114.261 232.75 124.201 224.602C132.349 217.931 139.216 206.85 139.216 206.85Z" fill="#FFC727"/>
<path d="M143.745 170.478C143.454 170.447 143.173 170.348 142.926 170.191C142.701 170.048 142.518 169.849 142.395 169.613C142.273 169.377 142.214 169.113 142.226 168.847C142.209 168.443 142.076 168.052 141.843 167.722C141.609 167.392 141.285 167.136 140.91 166.985C140.556 166.867 140.176 166.845 139.811 166.922C139.468 166.985 139.146 167.027 138.796 167.125C139.146 167.209 139.496 167.244 139.811 167.314C140.104 167.341 140.388 167.429 140.644 167.573C140.869 167.709 141.055 167.9 141.186 168.127C141.317 168.355 141.388 168.612 141.393 168.875C141.393 169.279 141.513 169.674 141.737 170.01C141.962 170.347 142.28 170.609 142.653 170.765C143.001 170.907 143.382 170.948 143.752 170.884C144.095 170.8 144.452 170.765 144.746 170.674C144.417 170.587 144.083 170.521 143.745 170.478ZM131.096 217.49C130.753 217.567 130.431 217.609 130.102 217.693C130.398 217.774 130.7 217.835 131.005 217.875L131.362 217.455C131.272 217.459 131.183 217.471 131.096 217.49ZM130.9 198.954C130.854 198.619 130.788 198.287 130.704 197.96C130.62 198.282 130.578 198.611 130.494 198.954C130.478 199.247 130.394 199.532 130.249 199.787C130.118 200.014 129.929 200.203 129.702 200.335C129.474 200.466 129.217 200.536 128.954 200.536C128.549 200.54 128.154 200.661 127.816 200.885C127.478 201.108 127.212 201.425 127.05 201.796C126.918 202.146 126.881 202.526 126.945 202.895C126.996 203.234 127.064 203.571 127.148 203.903C127.239 203.572 127.307 203.235 127.351 202.895C127.376 202.602 127.475 202.32 127.638 202.076C127.779 201.852 127.978 201.669 128.212 201.546C128.447 201.423 128.71 201.365 128.975 201.376C129.379 201.359 129.77 201.226 130.1 200.993C130.43 200.759 130.686 200.435 130.837 200.06C130.962 199.705 130.984 199.321 130.9 198.954ZM152.635 155.253L152.53 155.295C152.192 155.446 151.904 155.688 151.697 155.995C151.515 156.282 151.291 156.548 151.13 156.849C151.431 156.667 151.697 156.464 151.984 156.282C152.173 156.11 152.398 155.981 152.642 155.904C152.655 155.687 152.655 155.47 152.642 155.253H152.635ZM132.874 183.757C132.656 183.952 132.39 184.085 132.104 184.142C131.846 184.2 131.577 184.19 131.324 184.113C131.072 184.036 130.843 183.894 130.662 183.701C130.368 183.422 129.997 183.236 129.597 183.168C129.197 183.099 128.786 183.151 128.415 183.316C128.076 183.465 127.787 183.708 127.582 184.016C127.4 184.296 127.176 184.562 127.008 184.87C127.316 184.681 127.582 184.478 127.862 184.296C128.08 184.095 128.348 183.957 128.639 183.897C128.892 183.825 129.16 183.821 129.416 183.885C129.671 183.948 129.905 184.078 130.095 184.261C130.375 184.551 130.735 184.75 131.13 184.832C131.524 184.915 131.934 184.877 132.307 184.723C132.657 184.573 132.959 184.331 133.182 184.023C133.364 183.736 133.56 183.47 133.728 183.169C133.434 183.4 133.168 183.575 132.881 183.757H132.874ZM113.211 215.691C112.997 215.891 112.73 216.025 112.441 216.076C112.182 216.138 111.912 216.131 111.656 216.056C111.401 215.981 111.169 215.841 110.985 215.649C110.761 215.428 110.488 215.265 110.187 215.173C110.131 215.418 110.075 215.656 110.026 215.873C110.026 215.873 110.026 215.922 110.026 215.943C110.177 216.004 110.313 216.097 110.425 216.216C110.628 216.433 110.877 216.602 111.154 216.71C111.431 216.818 111.729 216.863 112.026 216.84C112.322 216.817 112.61 216.728 112.867 216.578C113.124 216.429 113.345 216.224 113.512 215.978C113.687 215.691 113.918 215.425 114.079 215.124C113.771 215.306 113.505 215.509 113.218 215.691H113.211Z" fill="white"/>
<path d="M138.012 211.071C138.81 207.788 139.657 204.519 140.518 201.271C141.379 198.023 142.268 194.754 143.143 191.471L145.88 181.72L147.28 176.82C147.763 175.203 148.239 173.579 148.736 171.969C148.344 173.607 147.917 175.245 147.511 176.869L146.237 181.769L143.605 191.569C142.695 194.817 141.799 198.072 140.868 201.32C139.937 204.568 139.006 207.844 138.012 211.071Z" fill="#263238"/>
<path d="M146.797 179.599C147.102 178.764 147.467 177.952 147.889 177.17C148.092 176.778 148.302 176.393 148.533 176.008C148.764 175.623 148.988 175.252 149.233 174.874C148.985 175.732 148.645 176.561 148.218 177.345C147.806 178.134 147.331 178.887 146.797 179.599Z" fill="#263238"/>
<path d="M110.6 227.5C115.22 233.478 125.797 234.402 155.4 238.742C159.502 239.344 172.396 211.043 168.056 210.175C162.582 209.083 141.113 206.031 139.517 206.01C126 205.8 107.429 223.447 110.6 227.5Z" fill="#EB9481"/>
<path d="M157.983 210.105C157.983 210.105 169.232 208.929 176.631 208.502C180.761 208.264 187.873 208.502 190.981 209.706C195.636 211.519 213.941 222.075 211.477 226.569C209.244 230.636 194.677 219.569 194.677 219.569C194.677 219.569 210.371 229.439 206.787 233.842C203.203 238.245 188.391 223.552 188.391 223.552C188.391 223.552 204.288 234.052 199.871 238.007C196.532 240.996 182.371 228.445 182.371 228.445C182.371 228.445 195.972 237.545 192.675 240.786C189.021 244.349 175.231 233.576 175.231 233.576C165.431 240.352 158.039 239.589 152.831 238.413C151.557 238.126 157.983 210.105 157.983 210.105Z" fill="#EB9481"/>
<path d="M189.462 215.81C191.345 216.902 193.263 217.994 195.062 219.247C196.861 220.5 198.562 221.83 200.242 223.244C202.447 225.049 204.434 227.105 206.164 229.369C202.797 225.582 196.483 220.969 194.705 219.73C192.927 218.491 191.205 217.133 189.434 215.873C189.364 215.845 189.413 215.782 189.462 215.81Z" fill="#263238"/>
<path d="M184.8 222.159C187.145 223.657 189.532 225.064 191.8 226.667C194.068 228.27 196.084 229.971 198.24 231.721C198.408 231.854 198.24 231.903 198.107 231.77C195.881 230.111 193.704 228.746 191.457 227.115C189.21 225.484 187.04 223.755 184.744 222.215C184.73 222.187 184.8 222.138 184.8 222.159Z" fill="#263238"/>
<path d="M179.83 226.891C183.487 229.098 186.905 231.679 190.029 234.591C190.19 234.731 190.029 234.766 189.847 234.633C186.508 232.008 183.904 229.922 179.76 227.01C179.697 226.975 179.753 226.849 179.83 226.891Z" fill="#263238"/>
<path d="M164.696 208.992L140.357 238.854C140.357 238.854 114.387 234.024 110.257 227.542C107.527 223.272 125.93 204.666 140.805 206.031L164.696 208.992Z" fill="#FFC727"/>
<path d="M136.402 234.794C136.169 234.982 135.896 235.113 135.604 235.179C135.347 235.229 135.082 235.216 134.831 235.139C134.581 235.062 134.353 234.924 134.169 234.738C133.879 234.448 133.508 234.255 133.104 234.185C132.701 234.115 132.285 234.171 131.915 234.346C131.576 234.512 131.289 234.766 131.082 235.081C130.9 235.347 130.704 235.599 130.515 235.907C130.811 235.738 131.096 235.551 131.369 235.347C131.6 235.166 131.86 235.026 132.139 234.934C132.396 234.872 132.665 234.875 132.921 234.944C133.176 235.012 133.41 235.144 133.602 235.326C133.888 235.606 134.249 235.798 134.641 235.88C135.033 235.962 135.44 235.93 135.814 235.788C136.164 235.642 136.465 235.399 136.682 235.088C136.864 234.801 137.067 234.535 137.228 234.234C136.942 234.405 136.666 234.592 136.402 234.794ZM156.373 212.023C156.141 212.211 155.868 212.341 155.575 212.401C155.318 212.455 155.052 212.442 154.801 212.365C154.55 212.288 154.323 212.149 154.14 211.96C153.85 211.671 153.478 211.479 153.075 211.409C152.672 211.339 152.257 211.394 151.886 211.568C151.547 211.734 151.26 211.988 151.053 212.303C150.871 212.569 150.675 212.828 150.486 213.129C150.783 212.962 151.069 212.775 151.34 212.569C151.574 212.393 151.834 212.254 152.11 212.156C152.367 212.094 152.636 212.097 152.892 212.166C153.147 212.234 153.381 212.366 153.573 212.548C153.855 212.835 154.215 213.032 154.609 213.114C155.003 213.196 155.412 213.16 155.785 213.01C156.136 212.866 156.438 212.623 156.653 212.31C156.835 212.03 157.038 211.764 157.199 211.456C156.913 211.629 156.637 211.818 156.373 212.023ZM117.782 230.545C117.705 230.202 117.663 229.845 117.579 229.558C117.489 229.882 117.421 230.212 117.376 230.545C117.361 230.843 117.27 231.133 117.11 231.385C116.966 231.628 116.758 231.827 116.508 231.959L117.292 232.309C117.476 232.12 117.617 231.893 117.705 231.644C117.823 231.29 117.85 230.912 117.782 230.545ZM135.058 221.053C134.764 221.025 134.479 220.932 134.225 220.78C134.005 220.632 133.826 220.432 133.704 220.197C133.581 219.962 133.52 219.701 133.525 219.436C133.523 219.139 133.455 218.846 133.326 218.579C133.197 218.312 133.01 218.076 132.779 217.89C132.548 217.704 132.278 217.571 131.99 217.502C131.701 217.433 131.401 217.429 131.11 217.49C130.767 217.567 130.445 217.609 130.116 217.693C130.443 217.78 130.775 217.845 131.11 217.889C131.405 217.91 131.69 218.001 131.943 218.155C132.174 218.287 132.367 218.476 132.503 218.704C132.639 218.932 132.714 219.191 132.72 219.457C132.714 219.859 132.828 220.254 133.049 220.589C133.27 220.925 133.587 221.187 133.959 221.34C134.311 221.488 134.699 221.525 135.072 221.445C135.407 221.395 135.739 221.327 136.066 221.242C135.702 221.2 135.38 221.123 135.058 221.053Z" fill="white"/>
<path d="M123.382 211.533C125.685 209.692 132.195 205.345 140.805 206.003C140.882 206.003 140.889 206.136 140.805 206.136C134.344 206.262 125.804 210.049 123.438 211.638C123.382 211.673 123.326 211.575 123.382 211.533Z" fill="#263238"/>
<path d="M133.098 234.402C135.597 230.972 138.278 227.682 140.966 224.399C143.654 221.116 146.342 217.826 149.114 214.599C150.682 212.779 152.243 210.952 153.874 209.188C153.916 209.146 154 209.188 153.965 209.258C151.466 212.681 148.799 215.985 146.132 219.275C143.465 222.565 140.756 225.862 138.019 229.11C136.479 230.944 134.897 232.757 133.266 234.514C133.189 234.612 133 234.5 133.098 234.402Z" fill="#263238"/>
<path d="M164.724 208.6C163.113 208.198 161.475 207.908 159.824 207.732C158.186 207.508 156.553 207.305 154.924 207.123C151.655 206.759 144.774 205.611 138.824 205.919C138.754 205.919 139.111 206.227 139.174 206.22C142.016 205.926 162.638 209.02 164.318 209.02C164.255 209.139 164.199 209.251 164.15 209.37C164.101 209.489 164.213 209.559 164.297 209.496C164.5 209.342 164.64 209.16 164.829 208.999C164.859 208.97 164.88 208.933 164.891 208.893C164.902 208.852 164.903 208.81 164.892 208.769C164.881 208.729 164.86 208.692 164.831 208.662C164.801 208.632 164.764 208.611 164.724 208.6Z" fill="#263238"/>
<path d="M131.264 172.284C125.076 182.924 104.475 216.643 110.264 227.682C109.608 226.586 109.2 225.361 109.067 224.091C107.744 209.944 123.27 184.226 131.236 172.291L131.264 172.284Z" fill="#263238"/>
<path d="M129.367 173.516C128.786 175.182 128.212 176.799 127.47 178.416C127.726 176.661 128.375 174.986 129.367 173.516Z" fill="#263238"/>
<path d="M163.933 161.224C160.706 161.924 154.098 157.969 151.907 153.321C151.76 153.006 152.432 149.786 153.062 145.838C153.44 143.437 153.797 140.756 153.944 138.285C153.979 137.781 169.204 142.996 169.204 142.996C168.123 146.028 167.418 149.18 167.104 152.383C167.088 152.724 167.104 153.067 167.153 153.405C167.153 153.454 167.153 153.51 167.153 153.573C167.377 155.519 167.391 160.489 163.933 161.224Z" fill="#EB9481"/>
<path d="M167.174 153.405C167.174 153.454 167.174 153.517 167.174 153.573C166.645 153.615 166.114 153.615 165.585 153.573C156.485 152.817 154.777 141.26 154.49 138.341C157.213 138.901 169.19 143.01 169.19 143.01C168.11 146.044 167.405 149.199 167.09 152.404C167.086 152.74 167.115 153.075 167.174 153.405Z" fill="#263238"/>
<path d="M171.213 111.482C172.081 111.37 176.869 117.145 177.338 120.169C177.807 123.193 177.611 129.367 176.743 129.605C175.875 129.843 170.541 111.566 171.213 111.482Z" fill="#263238"/>
<path d="M150.633 120.645C149.282 126.245 153.118 141.932 157.234 145.236C163.198 150.031 172.494 149.975 176.449 142.912C180.285 136.059 174.923 115.696 170.366 112.742C163.66 108.388 152.6 112.392 150.633 120.645Z" fill="#EB9481"/>
<path d="M172.9 128.177C172.9 128.135 172.991 128.177 173.005 128.254C173.18 129.332 173.565 130.529 174.601 130.69C174.601 130.69 174.643 130.753 174.601 130.753C173.369 130.823 172.9 129.227 172.9 128.177Z" fill="#263238"/>
<path d="M173.6 126.875C175.287 126.406 176.106 129.822 174.538 130.256C172.97 130.69 172.2 127.267 173.6 126.875Z" fill="#263238"/>
<path d="M166.901 129.577C166.901 129.542 166.831 129.647 166.845 129.689C167.118 130.746 167.258 131.999 166.376 132.566C166.376 132.566 166.376 132.636 166.376 132.622C167.538 132.195 167.335 130.529 166.901 129.577Z" fill="#263238"/>
<path d="M165.704 128.688C163.968 128.947 164.619 132.398 166.222 132.188C167.825 131.978 167.16 128.471 165.704 128.688Z" fill="#263238"/>
<path d="M164.304 126.518C164.759 126.322 165.144 126.07 165.578 125.818C166.012 125.566 166.474 125.384 166.733 124.866C166.791 124.713 166.796 124.545 166.75 124.388C166.703 124.232 166.606 124.095 166.474 123.998C166.183 123.847 165.856 123.778 165.529 123.796C165.201 123.815 164.885 123.921 164.612 124.103C164.002 124.387 163.519 124.885 163.254 125.503C163.197 125.648 163.184 125.807 163.218 125.96C163.251 126.113 163.328 126.252 163.441 126.361C163.553 126.469 163.695 126.542 163.849 126.57C164.002 126.598 164.161 126.58 164.304 126.518Z" fill="#263238"/>
<path d="M174.454 124.348C173.972 124.348 173.491 124.32 173.012 124.264C172.502 124.309 171.991 124.181 171.563 123.9C171.445 123.786 171.368 123.637 171.344 123.475C171.32 123.313 171.35 123.147 171.43 123.004C171.63 122.744 171.896 122.543 172.2 122.42C172.504 122.297 172.835 122.257 173.159 122.304C173.831 122.304 174.48 122.553 174.979 123.004C175.086 123.113 175.159 123.25 175.189 123.399C175.22 123.549 175.207 123.704 175.151 123.846C175.096 123.988 175 124.111 174.877 124.2C174.753 124.289 174.606 124.34 174.454 124.348Z" fill="#263238"/>
<path d="M167.692 139.426C167.972 139.657 168.259 139.986 168.651 139.993C169.055 139.952 169.446 139.828 169.799 139.629C169.799 139.629 169.869 139.629 169.848 139.678C169.71 139.904 169.514 140.089 169.28 140.212C169.046 140.335 168.782 140.393 168.518 140.378C168.292 140.337 168.083 140.23 167.918 140.07C167.752 139.911 167.637 139.706 167.587 139.482C167.566 139.419 167.65 139.391 167.692 139.426Z" fill="#263238"/>
<path d="M168.133 135.912C168.487 136.281 168.913 136.573 169.386 136.768C169.858 136.963 170.366 137.058 170.877 137.046C171.325 137.047 171.771 136.981 172.2 136.85L172.445 136.773L172.669 136.689C172.723 136.666 172.768 136.626 172.798 136.576C172.828 136.526 172.842 136.467 172.837 136.409C172.84 136.372 172.84 136.334 172.837 136.297V136.206C172.697 135.38 172.368 134.148 172.368 134.148C172.697 134.239 174.363 134.624 174.258 134.197C173.341 130.697 172.319 126.777 170.667 123.48C170.663 123.468 170.656 123.456 170.648 123.446C170.639 123.436 170.629 123.428 170.617 123.422C170.605 123.417 170.593 123.413 170.58 123.412C170.567 123.411 170.553 123.413 170.541 123.417C170.529 123.421 170.517 123.428 170.507 123.436C170.497 123.445 170.489 123.455 170.483 123.467C170.478 123.479 170.474 123.491 170.473 123.504C170.472 123.517 170.474 123.531 170.478 123.543C171.22 126.952 172.578 130.207 173.369 133.623C172.776 133.477 172.166 133.416 171.556 133.441C171.444 133.497 172.256 135.814 172.256 136.192V136.234C170.912 136.682 169.785 136.472 168.266 135.814C168.126 135.751 168.056 135.842 168.133 135.912Z" fill="#263238"/>
<path d="M171.689 136.731C171.335 137.369 170.824 137.906 170.205 138.292C169.862 138.491 169.465 138.576 169.071 138.537C168.21 138.446 168.07 137.683 168.126 137.011C168.157 136.654 168.23 136.301 168.343 135.961C169.348 136.567 170.52 136.836 171.689 136.731Z" fill="#263238"/>
<path d="M170.205 138.292C169.862 138.491 169.465 138.576 169.071 138.537C168.21 138.446 168.07 137.683 168.126 137.011C168.566 136.959 169.011 137.057 169.388 137.29C169.766 137.522 170.054 137.875 170.205 138.292Z" fill="#FF9BBC"/>
<path d="M153.867 134.561C156.667 134.19 157.332 130.837 157.318 126.35C157.318 123.732 155.533 118.902 155.533 118.902C155.533 118.902 163.289 120.617 167.188 119.378C171.087 118.139 173.719 113.946 172.837 110.866C172.081 108.22 166.789 105.749 160.79 106.827C156.59 107.583 150.346 112.476 148.26 117.621C148.26 117.621 143.598 121.289 145.257 125.055C146.916 128.821 150.682 134.981 153.867 134.561Z" fill="#263238"/>
<path d="M154 134.204C157.787 134.162 158.48 128.289 157.934 125.426C157.367 122.458 155.561 119.728 154.434 116.97C156.443 120.183 158.753 124.306 158.382 128.226C158.151 130.69 157.318 134.869 154.007 134.428C153.874 134.4 153.867 134.204 154 134.204Z" fill="#263238"/>
<path d="M144.2 124.04C144.165 121.499 146.398 118.482 148.589 117.397C146.041 119.028 143.542 122.955 145.089 125.867C146.335 128.205 148.267 131.208 150.402 132.804C150.458 132.846 150.402 132.923 150.339 132.888C148.708 131.852 147.735 130.242 146.65 128.688C145.74 127.358 144.2 125.797 144.2 124.04Z" fill="#263238"/>
<path d="M147.812 118.111C150.024 112.679 155.897 105.763 162.253 105.854C155.631 106.316 151.053 113.057 148.071 118.23C147.98 118.405 147.749 118.258 147.812 118.111Z" fill="#263238"/>
<path d="M155.925 133.518C155.925 133.518 151.942 128.681 149.716 130.144C147.49 131.607 150.773 138.817 153.587 139.615C153.94 139.74 154.315 139.792 154.689 139.769C155.062 139.747 155.428 139.649 155.763 139.483C156.099 139.316 156.398 139.084 156.642 138.801C156.886 138.517 157.071 138.187 157.185 137.83L155.925 133.518Z" fill="#EB9481"/>
<path d="M150.71 132.188C150.701 132.188 150.692 132.192 150.685 132.198C150.679 132.205 150.675 132.214 150.675 132.223C150.675 132.232 150.679 132.241 150.685 132.248C150.692 132.254 150.701 132.258 150.71 132.258C152.684 132.881 153.832 134.575 154.679 136.36C154.552 136.178 154.388 136.025 154.197 135.913C154.006 135.8 153.792 135.73 153.572 135.707C153.351 135.685 153.128 135.71 152.918 135.782C152.708 135.853 152.516 135.969 152.355 136.122C152.306 136.164 152.355 136.241 152.418 136.22C152.746 136.089 153.107 136.062 153.451 136.142C153.795 136.222 154.106 136.406 154.343 136.668C154.73 137.117 155.072 137.602 155.365 138.117C155.463 138.285 155.764 138.166 155.687 137.977V137.928C155.512 135.485 153.349 132.223 150.71 132.188Z" fill="#263238"/>
<path d="M168.483 154C168.472 154.966 168.409 155.931 168.294 156.891C168.212 157.768 168.048 158.635 167.804 159.481C167.564 160.319 167.131 161.09 166.541 161.732C165.95 162.374 165.218 162.868 164.402 163.177C162.73 163.724 160.913 163.622 159.313 162.89C157.772 162.136 156.368 161.128 155.162 159.908C154.415 159.213 153.701 158.489 153.02 157.738C152.684 157.353 152.32 156.975 152.019 156.576C151.718 156.177 151.403 155.771 151.06 155.393C151.06 155.393 150.955 155.393 150.976 155.435C151.676 156.345 153.741 159.229 154.42 159.929C155.613 161.287 157.035 162.427 158.62 163.296C160.308 164.149 162.249 164.358 164.08 163.884C164.973 163.644 165.795 163.194 166.477 162.57C167.159 161.946 167.682 161.168 168 160.3C168.331 159.33 168.508 158.315 168.525 157.29C168.581 156.17 168.525 155.057 168.525 153.951C168.504 153.951 168.483 153.958 168.483 154Z" fill="#263238"/>
<path d="M238.616 48.601C238.061 44.7024 237.988 40.7504 238.399 36.834C238.951 40.7328 239.024 44.6845 238.616 48.601Z" fill="#263238"/>
<path d="M211.757 56.091C209.33 52.9916 207.291 49.6064 205.688 46.011C208.116 49.1097 210.155 52.495 211.757 56.091Z" fill="#263238"/>
<path d="M192.241 76.013C188.59 74.5444 185.133 72.6305 181.951 70.315C185.601 71.7864 189.057 73.7 192.241 76.013Z" fill="#263238"/>
<path d="M185.304 103.019C181.407 103.571 177.458 103.643 173.544 103.236C177.44 102.681 181.39 102.608 185.304 103.019Z" fill="#263238"/>
<path d="M192.801 129.878C189.7 132.302 186.315 134.34 182.721 135.947C185.82 133.519 189.205 131.48 192.801 129.878Z" fill="#263238"/>
<path d="M286.097 128.912C289.748 130.381 293.205 132.294 296.387 134.61C292.738 133.137 289.282 131.223 286.097 128.912Z" fill="#263238"/>
<path d="M293.034 101.906C296.93 101.354 300.88 101.282 304.794 101.689C300.898 102.244 296.948 102.317 293.034 101.906Z" fill="#263238"/>
<path d="M285.537 75.047C288.638 72.6226 292.023 70.5847 295.617 68.978C292.518 71.4063 289.133 73.4446 285.537 75.047Z" fill="#263238"/>
<path d="M265.622 55.538C267.092 51.8866 269.003 48.4286 271.313 45.241C269.845 48.8937 267.934 52.3519 265.622 55.538Z" fill="#263238"/>
<g opacity="0.5">
<path opacity="0.5" d="M284.9 105.203C282.632 133.595 259 142.156 259 142.156C257.264 146.468 254.996 157.444 254.996 157.444H223.426C223.426 157.444 221.158 146.468 219.422 142.156C219.422 142.156 195.769 133.595 193.522 105.203C191.947 85.477 205.996 56.322 239.064 56.315H239.407C272.405 56.322 286.454 85.477 284.9 105.203Z" fill="#FFC727"/>
</g>
<g opacity="0.7">
<path opacity="0.7" d="M280.98 105.35C278.88 131.313 257.271 139.139 257.271 139.139C255.682 143.087 253.61 157.444 253.61 157.444H224.7C224.7 157.444 222.6 143.087 221.039 139.139C221.039 139.139 199.409 131.313 197.337 105.35C195.895 87.304 208.74 60.634 238.987 60.627H239.295C269.57 60.634 282.415 87.304 280.98 105.35Z" fill="#FFC727"/>
</g>
<path d="M223.255 110.208L221.19 110.593L230.475 160.302L232.539 159.916L223.255 110.208Z" fill="#263238"/>
<path d="M255.09 110.226L245.822 159.938L247.887 160.322L257.154 110.611L255.09 110.226Z" fill="#263238"/>
<path d="M239.169 126.896C236.369 126.896 233.758 124.271 231.931 120.911C231.615 121.334 231.214 121.685 230.753 121.942C230.292 122.199 229.782 122.355 229.257 122.402C224.609 122.402 222.74 112.791 222.663 112.378L223.363 112.252C223.363 112.343 225.197 121.702 229.264 121.702C229.999 121.702 230.818 121.177 231.588 120.239C230.18 117.496 229.39 114.479 229.271 111.398C229.271 108.724 230.272 107.198 232.015 107.198C232.529 107.182 233.037 107.309 233.484 107.563C233.931 107.818 234.3 108.19 234.549 108.64C235.949 111.069 234.92 116.109 233.086 119.294C232.869 119.665 232.645 119.994 232.386 120.316C234.101 123.599 236.537 126.203 239.141 126.203C241.521 126.203 243.607 124.026 245.098 121.135C243.257 119.14 242.214 115.885 242.214 112.777C242.214 109.333 243.495 107.177 245.567 107.177C247.233 107.177 248.185 108.857 248.192 111.776C248.08 114.976 247.31 118.119 245.931 121.009C246.781 121.85 247.927 122.325 249.123 122.332C252.014 122.332 254.555 115.472 255.29 112.826L255.99 113.015C255.878 113.421 253.19 123.032 249.151 123.032C247.851 123.017 246.603 122.518 245.651 121.632C244.09 124.6 241.885 126.896 239.169 126.896ZM245.595 107.884C243.635 107.884 242.942 110.516 242.942 112.784C242.942 115.255 243.754 118.482 245.448 120.484C246.74 117.762 247.455 114.802 247.548 111.79C247.513 110.6 247.331 107.884 245.595 107.884ZM232.008 107.884C230.23 107.884 229.964 110.082 229.964 111.384C230.085 114.233 230.8 117.025 232.064 119.581C232.204 119.378 232.344 119.154 232.477 118.923C234.185 115.969 235.207 111.153 233.94 108.969C233.755 108.623 233.474 108.338 233.132 108.147C232.789 107.956 232.399 107.867 232.008 107.891V107.884Z" fill="#263238"/>
<path d="M258.944 157.486H219.394V179.256H258.944V157.486Z" fill="#C7C7C7"/>
<path d="M254.464 179.249C252.133 183.372 247.674 187.061 239.169 187.061C230.664 187.061 226.205 183.372 223.881 179.249H254.464Z" fill="#C7C7C7"/>
<path d="M254.464 179.249C253.775 180.483 252.91 181.611 251.895 182.595L224.665 180.495C224.381 180.09 224.119 179.669 223.881 179.235L254.464 179.249Z" fill="#A6A6A6"/>
<path d="M260.099 161.637L218.239 165.508V163.604L260.099 159.733V161.637Z" fill="#A6A6A6"/>
<path d="M260.099 167.384L218.239 171.255V169.351L260.099 165.48V167.384Z" fill="#A6A6A6"/>
<path d="M260.099 173.124L218.239 176.995V175.098L260.099 171.227V173.124Z" fill="#A6A6A6"/>
<g opacity="0.5">
<path opacity="0.5" d="M203.42 98.574C204.876 98.812 206.752 91.329 214.795 82.67C218.372 78.82 231.931 74.011 230.958 69.566C229.985 65.121 217.882 69.692 211.792 76.741C201.999 88.088 202.09 98.35 203.42 98.574Z" fill="white"/>
<path opacity="0.5" d="M274.771 100.1C277.445 100.1 277.445 95.956 274.771 95.956C272.097 95.956 272.104 100.1 274.771 100.1Z" fill="white"/>
<path opacity="0.5" d="M261.723 131.306C263.179 132.419 270.256 125.888 273.448 118.097C276.101 111.629 276.556 103.446 274.771 102.97C272.986 102.494 271.838 113.722 269.696 117.852C266.994 123.067 260.162 130.116 261.723 131.306Z" fill="white"/>
</g>
<path d="M183.841 64.904L188.93 63.966L190.064 58.604L191.198 63.966L196.287 64.911L191.226 66.15L190.064 71.211L188.909 66.15L183.841 64.904Z" fill="#FFC727"/>
<path d="M265.811 154.063L270.893 153.125L272.034 147.763L273.168 153.125L278.257 154.063L273.189 155.302L272.034 160.37L270.872 155.302L265.811 154.063Z" fill="#FFC727"/>
<path d="M198.422 142.814L201.271 142.289L201.908 139.293L202.538 142.289L205.38 142.814L202.552 143.507L201.908 146.335L201.257 143.507L198.422 142.814Z" fill="#FFC727"/>
<path d="M213.899 51.058L216.741 50.533L217.378 47.53L218.008 50.533L220.85 51.058L218.022 51.751L217.378 54.579L216.727 51.751L213.899 51.058Z" fill="#FFC727"/>
<path d="M201.901 156.8C202.12 156.8 202.33 156.713 202.485 156.558C202.64 156.403 202.727 156.193 202.727 155.974C202.727 155.755 202.64 155.545 202.485 155.39C202.33 155.235 202.12 155.148 201.901 155.148C201.682 155.148 201.472 155.235 201.317 155.39C201.162 155.545 201.075 155.755 201.075 155.974C201.075 156.193 201.162 156.403 201.317 156.558C201.472 156.713 201.682 156.8 201.901 156.8Z" fill="#FFC727"/>
<path d="M282.1 146.335C282.254 146.335 282.402 146.274 282.511 146.165C282.62 146.056 282.681 145.908 282.681 145.754C282.681 145.6 282.62 145.452 282.511 145.343C282.402 145.234 282.254 145.173 282.1 145.173C281.946 145.173 281.798 145.234 281.689 145.343C281.58 145.452 281.519 145.6 281.519 145.754C281.519 145.908 281.58 146.056 281.689 146.165C281.798 146.274 281.946 146.335 282.1 146.335Z" fill="#FFC727"/>
<path d="M198.8 70.21C198.954 70.21 199.102 70.1488 199.211 70.0398C199.32 69.9309 199.381 69.7831 199.381 69.629C199.381 69.4749 199.32 69.3271 199.211 69.2182C199.102 69.1092 198.954 69.048 198.8 69.048C198.646 69.048 198.498 69.1092 198.389 69.2182C198.28 69.3271 198.219 69.4749 198.219 69.629C198.219 69.7831 198.28 69.9309 198.389 70.0398C198.498 70.1488 198.646 70.21 198.8 70.21Z" fill="#FFC727"/>
<path d="M293.937 79.1C294.081 79.0842 294.214 79.0158 294.311 78.908C294.407 78.8001 294.461 78.6604 294.461 78.5155C294.461 78.3706 294.407 78.2309 294.311 78.123C294.214 78.0152 294.081 77.9468 293.937 77.931C293.793 77.9468 293.66 78.0152 293.563 78.123C293.467 78.2309 293.413 78.3706 293.413 78.5155C293.413 78.6604 293.467 78.8001 293.563 78.908C293.66 79.0158 293.793 79.0842 293.937 79.1Z" fill="#FFC727"/>
<path d="M286.468 84.441C288.505 84.441 288.505 81.277 286.468 81.277C284.431 81.277 284.431 84.441 286.468 84.441Z" fill="#FFC727"/>
<path d="M306.628 247.534H171.703V319.837H306.628V247.534Z" fill="#FFC727"/>
<path opacity="0.2" d="M306.628 247.534H171.703V319.837H306.628V247.534Z" fill="black"/>
<path opacity="0.2" d="M171.717 319.844H222.789V247.534H171.717V319.844Z" fill="black"/>
<path d="M175.231 315.77C179.011 310.548 182.758 305.31 186.473 300.055L197.554 284.256L208.495 268.394C212.121 263.097 215.712 257.782 219.268 252.448C215.479 257.67 211.729 262.908 208.019 268.163L196.945 283.962L186.004 299.824C182.401 305.121 178.81 310.436 175.231 315.77Z" fill="#FFC727"/>
<path d="M175.231 252.448C178.787 257.777 182.378 263.093 186.004 268.394L196.945 284.256L208.019 300.055C211.752 305.314 215.502 310.553 219.268 315.77C215.712 310.436 212.121 305.121 208.495 299.824L197.554 283.962L186.473 268.163C182.763 262.908 179.016 257.67 175.231 252.448Z" fill="#FFC727"/>
<path d="M204.904 247.534H189.392V264.467H204.904V247.534Z" fill="#EBEBEB"/>
<path d="M283.157 301.14H282.324V312.893H283.157V301.14Z" fill="#263238"/>
<path d="M285.159 301.14H284.326V312.893H285.159V301.14Z" fill="#263238"/>
<path d="M287.154 301.14H286.321V312.893H287.154V301.14Z" fill="#263238"/>
<path d="M289.156 301.14H288.323V312.893H289.156V301.14Z" fill="#263238"/>
<path d="M291.151 301.14H290.318V312.893H291.151V301.14Z" fill="#263238"/>
<path d="M293.153 301.14H292.32V312.893H293.153V301.14Z" fill="#263238"/>
<path d="M295.155 301.14H294.322V312.893H295.155V301.14Z" fill="#263238"/>
<path d="M297.15 301.14H296.317V312.893H297.15V301.14Z" fill="#263238"/>
<path d="M299.152 301.14H298.319V312.893H299.152V301.14Z" fill="#263238"/>
<path d="M274.148 311.997L277.354 312.886H269.829L273.035 311.983V307.664C270.739 307.363 269.829 305.102 269.829 301.14H277.354C277.354 305.088 276.444 307.363 274.148 307.664V311.997Z" fill="#263238"/>
<path d="M268.072 307.132H266.112V312.886H261.079V307.132H259.105L263.592 301.14L268.072 307.132Z" fill="#263238"/>
<path opacity="0.1" d="M306.635 319.844V312.508L222.789 298.928V319.837L306.635 319.844Z" fill="black"/>
<path d="M156.541 229.453H207.62L222.789 247.534H171.703L156.541 229.453Z" fill="#FFC727"/>
<path opacity="0.2" d="M156.541 229.453H207.62L222.789 247.534H171.703L156.541 229.453Z" fill="black"/>
<path d="M321.797 229.453H270.718L255.549 247.534H306.635L321.797 229.453Z" fill="#FFC727"/>
<path opacity="0.1" d="M321.797 229.453H270.718L255.549 247.534H306.635L321.797 229.453Z" fill="black"/>
</svg>
