<svg width="19" height="19" viewBox="0 0 19 19" fill="none" xmlns="http://www.w3.org/2000/svg">
<path d="M16.0554 2.62413C14.2126 0.876356 11.8094 -0.0545224 9.27326 0.00247014C6.73709 0.0689615 4.3719 1.11383 2.62413 2.94709C0.876356 4.78985 -0.0545224 7.19303 0.00247014 9.7292C0.0689615 12.2654 1.11383 14.6306 2.94709 16.3783C3.02308 16.4543 3.09907 16.5208 3.18456 16.5873C4.93233 18.1546 7.14554 19 9.49173 19H9.7292C11.9994 18.943 14.1366 18.0976 15.8179 16.5873C16.0079 16.4258 16.1979 16.2454 16.3783 16.0554C18.0786 14.2696 19 11.9519 19 9.49173V9.27326C18.9335 6.73709 17.8886 4.3719 16.0554 2.62413ZM9.70071 17.5752C7.78196 17.6132 5.9487 16.9958 4.47639 15.8084C4.90383 14.6116 6.07218 13.7852 7.36401 13.7852H11.6385C12.9303 13.7852 14.0986 14.6116 14.5261 15.8084C13.1583 16.9198 11.4865 17.5277 9.70071 17.5752ZM15.6184 14.754C14.849 13.3197 13.3292 12.3604 11.6385 12.3604H7.36401C5.67323 12.3604 4.14393 13.3197 3.38403 14.7635C2.15869 13.3577 1.47478 11.591 1.42728 9.70071C1.37979 7.54449 2.16819 5.49275 3.65949 3.93496C5.1413 2.36766 7.14554 1.48428 9.30176 1.42728H9.51073C11.591 1.42728 13.5572 2.21568 15.0675 3.65949C15.8464 4.4004 16.4638 5.27428 16.8913 6.22416C17.3092 7.18353 17.5467 8.2284 17.5752 9.30176C17.6227 11.3155 16.9388 13.2437 15.6184 14.754Z" fill="#BDBDBD"/>
<path d="M12.1134 10.926H9.26375C7.56347 10.926 6.17665 9.53923 6.17665 7.83895V5.9392C6.17665 4.23892 7.56347 2.8521 9.26375 2.8521H9.73868C11.439 2.8521 12.8258 4.23892 12.8258 5.9392V10.2136C12.8258 10.6031 12.5028 10.926 12.1134 10.926ZM9.26375 4.27692C8.35187 4.27692 7.60146 5.02732 7.60146 5.9392V7.83895C7.60146 8.75083 8.35187 9.50123 9.26375 9.50123H11.401V5.9392C11.401 5.02732 10.6506 4.27692 9.73868 4.27692H9.26375Z" fill="#BDBDBD"/>
</svg>
