<svg width="19" height="9" viewBox="0 0 19 9" fill="none" xmlns="http://www.w3.org/2000/svg">
<path d="M0.206022 5.00267L3.93818 8.79167C4.08027 8.93375 4.26025 9.00006 4.44022 9.00006C4.6202 9.00006 4.80018 8.93375 4.94226 8.79167C5.22644 8.51696 5.22644 8.07176 4.95174 7.78758L2.40364 5.21107H18.2322C18.6205 5.21107 18.9426 4.889 18.9426 4.50063C18.9426 4.11226 18.6205 3.79019 18.2322 3.79019H2.40364L4.95174 1.21368C5.22644 0.929503 5.22644 0.484296 4.94226 0.209594C4.66756 -0.0745808 4.21288 -0.0651083 3.93818 0.209594L0.206022 3.99859C-0.0686814 4.28276 -0.0686814 4.7185 0.206022 5.00267Z" fill="#121331"/>
</svg>
