<svg width="24" height="24" viewBox="0 0 24 24" fill="none" xmlns="http://www.w3.org/2000/svg">
<g clip-path="url(#clip0_480_529)">
<path d="M12 16C11.66 16 11.31 15.96 10.97 15.87C10.7 15.79 10.33 15.67 9.98 15.45C9.39 15.12 8.88 14.61 8.53 13.99C8.33 13.67 8.21 13.3 8.14 13.06C8.04 12.69 8 12.34 8 12C8 11.66 8.04 11.31 8.13 10.97C8.21 10.7 8.33 10.33 8.55 9.97999C8.88 9.38999 9.39 8.87999 10.01 8.52999C10.24 8.37999 10.55 8.24999 10.94 8.12999C11.67 7.93999 12.34 7.94999 13.02 8.11999C13.44 8.23999 13.74 8.36999 14.01 8.53999C14.6 8.86999 15.11 9.37999 15.46 9.99999C15.66 10.31 15.78 10.68 15.85 10.93C15.96 11.31 16 11.66 16 12C16 12.34 15.96 12.69 15.87 13.03C15.79 13.3 15.67 13.67 15.45 14.02C15.12 14.61 14.61 15.12 13.99 15.47C13.67 15.67 13.3 15.79 13.06 15.86C12.69 15.96 12.34 16 12 16ZM12 9.49999C11.79 9.49999 11.57 9.52999 11.35 9.58999C11.11 9.65999 10.93 9.73999 10.78 9.82999C10.37 10.06 10.06 10.37 9.85 10.75C9.74 10.93 9.66 11.12 9.58 11.38C9.53 11.57 9.5 11.78 9.5 12C9.5 12.22 9.53 12.43 9.59 12.65C9.66 12.89 9.74 13.08 9.83 13.22C10.06 13.63 10.37 13.94 10.75 14.15C10.93 14.26 11.12 14.34 11.38 14.42C11.77 14.52 12.22 14.53 12.66 14.41C12.9 14.34 13.09 14.26 13.23 14.17C13.64 13.94 13.95 13.63 14.16 13.25C14.27 13.07 14.35 12.88 14.43 12.62C14.48 12.42 14.51 12.21 14.51 11.99C14.51 11.77 14.48 11.56 14.42 11.34C14.35 11.1 14.27 10.91 14.18 10.77C13.95 10.36 13.64 10.05 13.26 9.83999C13.08 9.72999 12.89 9.64999 12.63 9.56999C12.43 9.52999 12.21 9.49999 12 9.49999Z" fill="#121331"/>
<path d="M12 16C11.66 16 11.31 15.96 10.97 15.87C10.7 15.79 10.33 15.67 9.98 15.45C9.39 15.12 8.88 14.61 8.53 13.99C8.33 13.67 8.21 13.3 8.14 13.06C8.04 12.69 8 12.34 8 12C8 11.66 8.04 11.31 8.13 10.97C8.21 10.7 8.33 10.33 8.55 9.97999C8.88 9.38999 9.39 8.87999 10.01 8.52999C10.24 8.37999 10.55 8.24999 10.94 8.12999C11.67 7.93999 12.34 7.94999 13.02 8.11999C13.44 8.23999 13.74 8.36999 14.01 8.53999C14.6 8.86999 15.11 9.37999 15.46 9.99999C15.66 10.31 15.78 10.68 15.85 10.93C15.96 11.31 16 11.66 16 12C16 12.34 15.96 12.69 15.87 13.03C15.79 13.3 15.67 13.67 15.45 14.02C15.12 14.61 14.61 15.12 13.99 15.47C13.67 15.67 13.3 15.79 13.06 15.86C12.69 15.96 12.34 16 12 16ZM12 9.49999C11.79 9.49999 11.57 9.52999 11.35 9.58999C11.11 9.65999 10.93 9.73999 10.78 9.82999C10.37 10.06 10.06 10.37 9.85 10.75C9.74 10.93 9.66 11.12 9.58 11.38C9.53 11.57 9.5 11.78 9.5 12C9.5 12.22 9.53 12.43 9.59 12.65C9.66 12.89 9.74 13.08 9.83 13.22C10.06 13.63 10.37 13.94 10.75 14.15C10.93 14.26 11.12 14.34 11.38 14.42C11.77 14.52 12.22 14.53 12.66 14.41C12.9 14.34 13.09 14.26 13.23 14.17C13.64 13.94 13.95 13.63 14.16 13.25C14.27 13.07 14.35 12.88 14.43 12.62C14.48 12.42 14.51 12.21 14.51 11.99C14.51 11.77 14.48 11.56 14.42 11.34C14.35 11.1 14.27 10.91 14.18 10.77C13.95 10.36 13.64 10.05 13.26 9.83999C13.08 9.72999 12.89 9.64999 12.63 9.56999C12.43 9.52999 12.21 9.49999 12 9.49999Z" fill="#121331"/>
<path d="M13.75 22H10.25C9.56 22 9 21.44 9 20.75V19.41C8.32 19.14 7.68 18.77 7.09 18.3L5.93 18.97C5.33 19.32 4.56 19.12 4.22 18.52L2.47 15.49C2.3 15.18 2.27 14.85 2.35 14.54C2.44 14.21 2.66 13.94 2.95 13.78L4.08 13.13C4.03 12.76 4 12.39 4 12C4 11.61 4.03 11.24 4.08 10.88L2.93 10.21C2.65 10.06 2.44 9.78 2.35 9.46C2.26 9.15 2.29 8.82 2.45 8.53L4.21 5.48C4.38 5.19 4.65 4.98 4.98 4.9C5.3 4.82 5.64 4.86 5.93 5.03L7.09 5.7C7.68 5.23 8.32 4.86 9 4.59V3.25C9 2.56 9.56 2 10.25 2H13.75C14.44 2 15 2.56 15 3.25V4.59C15.68 4.86 16.32 5.23 16.91 5.71L18.07 5.04C18.36 4.87 18.69 4.83 19.02 4.91C19.35 4.99 19.62 5.2 19.79 5.49L21.54 8.52C21.71 8.82 21.74 9.16 21.66 9.47C21.57 9.8 21.35 10.07 21.06 10.23L19.93 10.89C19.97 11.24 20 11.61 20 12C20 12.39 19.97 12.76 19.92 13.12L21.07 13.78C21.36 13.94 21.57 14.21 21.66 14.54C21.75 14.86 21.71 15.19 21.55 15.47L19.79 18.52C19.44 19.12 18.67 19.32 18.07 18.97L16.91 18.3C16.32 18.77 15.68 19.14 15 19.41V20.75C15 21.44 14.44 22 13.75 22ZM10.5 20.5H13.5V18.88C13.5 18.55 13.71 18.26 14.03 18.16C14.87 17.9 15.64 17.45 16.32 16.82C16.56 16.6 16.92 16.56 17.2 16.72L18.61 17.54L20.11 14.95L18.71 14.14C18.42 13.97 18.28 13.64 18.35 13.32C18.44 12.91 18.49 12.46 18.49 11.99C18.49 11.51 18.44 11.07 18.35 10.66C18.28 10.34 18.42 10.01 18.71 9.84L20.11 9.03L18.61 6.44L17.2 7.26C16.92 7.42 16.56 7.39 16.32 7.16C15.64 6.53 14.87 6.08 14.03 5.82C13.72 5.72 13.5 5.43 13.5 5.1V3.5H10.5V5.12C10.5 5.45 10.29 5.74 9.97 5.84C9.13 6.1 8.36 6.55 7.68 7.17C7.44 7.39 7.08 7.43 6.8 7.27L5.38 6.45L3.88 9.04L5.28 9.85C5.57 10.01 5.71 10.35 5.64 10.67C5.55 11.08 5.5 11.52 5.5 12C5.5 12.48 5.55 12.92 5.64 13.33C5.71 13.65 5.57 13.98 5.28 14.15L3.88 14.96L5.38 17.55L6.79 16.73C7.08 16.56 7.43 16.61 7.67 16.83C8.35 17.46 9.13 17.91 9.96 18.17C10.27 18.27 10.49 18.56 10.49 18.89V20.5H10.5ZM3.69 15.07L3.68 15.08C3.68 15.08 3.68 15.08 3.69 15.07ZM20.33 8.92C20.32 8.92 20.32 8.92 20.33 8.92V8.92ZM12 16C11.66 16 11.31 15.96 10.97 15.87C10.7 15.79 10.33 15.67 9.98 15.45C9.39 15.12 8.88 14.61 8.53 13.99C8.33 13.67 8.21 13.3 8.14 13.06C8.04 12.69 8 12.34 8 12C8 11.66 8.04 11.31 8.13 10.97C8.21 10.7 8.33 10.33 8.55 9.98C8.88 9.39 9.39 8.88 10.01 8.53C10.24 8.38 10.55 8.25 10.94 8.13C11.67 7.94 12.34 7.95 13.02 8.12C13.44 8.24 13.74 8.37 14.01 8.54C14.6 8.87 15.11 9.38 15.46 10C15.66 10.31 15.78 10.68 15.85 10.93C15.96 11.31 16 11.66 16 12C16 12.34 15.96 12.69 15.87 13.03C15.87 13.04 15.87 13.05 15.86 13.05C15.79 13.3 15.66 13.67 15.45 14.02C15.12 14.61 14.61 15.12 13.99 15.47C13.67 15.67 13.3 15.79 13.06 15.86C12.69 15.96 12.34 16 12 16ZM12 9.5C11.79 9.5 11.57 9.53 11.35 9.59C11.11 9.66 10.93 9.74 10.78 9.83C10.37 10.06 10.06 10.37 9.85 10.75C9.74 10.93 9.66 11.12 9.58 11.38C9.53 11.57 9.5 11.78 9.5 12C9.5 12.22 9.53 12.43 9.59 12.65C9.66 12.89 9.74 13.08 9.83 13.22C10.06 13.63 10.37 13.94 10.75 14.15C10.93 14.26 11.12 14.34 11.38 14.42C11.77 14.52 12.22 14.53 12.66 14.41C12.9 14.34 13.09 14.26 13.23 14.17C13.64 13.94 13.95 13.63 14.16 13.25C14.27 13.08 14.35 12.89 14.42 12.64C14.48 12.42 14.5 12.21 14.5 12C14.5 11.78 14.47 11.57 14.41 11.35C14.34 11.11 14.26 10.92 14.17 10.78C13.94 10.37 13.63 10.06 13.25 9.85C13.07 9.74 12.88 9.66 12.62 9.58C12.43 9.53 12.21 9.5 12 9.5Z" fill="#121331"/>
</g>
<defs>
<clipPath id="clip0_480_529">
<rect width="24" height="24" fill="white"/>
</clipPath>
</defs>
</svg>
