<svg width="17" height="16" viewBox="0 0 17 16" fill="none" xmlns="http://www.w3.org/2000/svg">
<path d="M15.9364 14.8364L12.5455 11.4455C13.5091 10.2364 14.0909 8.70001 14.0909 7.04547C14.0909 3.16364 10.9273 0 7.04547 0C3.16364 0 0 3.16364 0 7.04547C0 10.9273 3.16364 14.0909 7.04547 14.0909C8.77274 14.0909 10.3637 13.4637 11.6 12.4273L14.9728 15.8C15.1091 15.9364 15.2818 16 15.4546 16C15.6273 16 15.8 15.9364 15.9364 15.8C16.2 15.5364 16.2 15.1 15.9364 14.8364ZM1.36364 7.04547C1.36364 3.9091 3.9091 1.36364 7.04547 1.36364C10.1818 1.36364 12.7273 3.9091 12.7273 7.04547C12.7273 8.58183 12.1273 9.96365 11.1364 10.9818L11.1273 10.9909C11.1182 11 11.1182 11 11.1182 11.0091C10.0818 12.0727 8.63638 12.7273 7.04547 12.7273C3.9091 12.7273 1.36364 10.1818 1.36364 7.04547Z" fill="#121331"/>
</svg>
