<svg width="350" height="350" viewBox="0 0 350 350" fill="none" xmlns="http://www.w3.org/2000/svg">
<path d="M63.147 52.283H44.611V60.116H63.147V52.283Z" fill="#EBEBEB"/>
<path d="M52.808 42.406H34.272V50.239H52.808V42.406Z" fill="#EBEBEB"/>
<path d="M73.486 42.406H54.95V50.239H73.486V42.406Z" fill="#EBEBEB"/>
<path d="M305.389 42.406H286.853V50.239H305.389V42.406Z" fill="#EBEBEB"/>
<path d="M305.389 253.771H286.853V261.604H305.389V253.771Z" fill="#EBEBEB"/>
<path d="M315.728 243.894H297.192V251.727H315.728V243.894Z" fill="#EBEBEB"/>
<path d="M232.61 214.599H214.074V222.432H232.61V214.599Z" fill="#EBEBEB"/>
<path d="M52.808 253.764H34.272V261.597H52.808V253.764Z" fill="#EBEBEB"/>
<path d="M177.233 93.947H195.769V86.114H177.233V93.947Z" fill="#EBEBEB"/>
<path d="M187.572 103.824H206.108V95.991H187.572V103.824Z" fill="#EBEBEB"/>
<path d="M85.7359 46.564H39.3049V92.995H85.7359V46.564Z" fill="white"/>
<path d="M36.89 44.149V95.417H88.151V44.149H36.89ZM85.736 93.002H39.305V46.564H85.736V93.002Z" fill="#DBDBDB"/>
<path d="M82.39 84.007V67.956H46.2V84.007H82.39Z" fill="#EBEBEB"/>
<path d="M71.792 79.051V60.508H53.249V79.051H71.792Z" fill="#C7C7C7"/>
<path d="M90.132 44.149H88.151V95.417H90.132V44.149Z" fill="#C7C7C7"/>
<path d="M85.7359 112.497H39.3049V158.928H85.7359V112.497Z" fill="white"/>
<path d="M59.409 119.924H47.285V154.945H59.409V119.924Z" fill="#C7C7C7"/>
<path d="M36.89 110.082V161.343H88.151V110.082H36.89ZM85.736 158.9H39.305V112.497H85.736V158.9Z" fill="#DBDBDB"/>
<path d="M71.792 126.441H53.249V144.984H71.792V126.441Z" fill="#EBEBEB"/>
<path d="M90.132 110.082H88.151V161.35H90.132V110.082Z" fill="#C7C7C7"/>
<path d="M85.7359 178.43H39.3049V224.861H85.7359V178.43Z" fill="white"/>
<path d="M69.937 184.758H44.457V199.99H69.937V184.758Z" fill="#EBEBEB"/>
<path d="M36.89 176.015V227.276H88.151V176.015H36.89ZM85.736 224.861H39.305V178.43H85.736V224.861Z" fill="#DBDBDB"/>
<path d="M71.792 192.374H53.249V210.917H71.792V192.374Z" fill="#C7C7C7"/>
<path d="M90.132 176.015H88.151V227.283H90.132V176.015Z" fill="#C7C7C7"/>
<path d="M224.819 81.2L316.085 81.2V75.782L224.819 75.782V81.2Z" fill="#EBEBEB"/>
<path d="M309.155 81.2H303.737V99.12H309.155V81.2Z" fill="#EBEBEB"/>
<path d="M309.155 81.2H303.737V86.737H309.155V81.2Z" fill="#DBDBDB"/>
<path d="M237.16 81.2H231.742V99.12H237.16V81.2Z" fill="#EBEBEB"/>
<path d="M237.16 81.2H231.742V86.737H237.16V81.2Z" fill="#DBDBDB"/>
<path d="M293.02 75.782V41.244H284.326V75.782H293.02Z" fill="#C7C7C7"/>
<path d="M293.02 43.19V39.396H284.326V43.19H293.02Z" fill="#DBDBDB"/>
<path d="M293.013 49.469V48.062H284.319V49.469H293.013Z" fill="#DBDBDB"/>
<path d="M293.02 71.253V67.459H283.241V71.253H293.02Z" fill="#DBDBDB"/>
<path d="M284.319 75.775V35.49H278.243V75.775H284.319Z" fill="#DBDBDB"/>
<path d="M283.129 54.782V39.284H279.482V54.782H283.129Z" fill="#EBEBEB"/>
<path d="M239.285 75.8068L267.935 47.4856L263.663 43.1645L235.014 71.4858L239.285 75.8068Z" fill="#C7C7C7"/>
<path d="M245.134 68.2813L256.156 57.3859L253.592 54.7922L242.57 65.6877L245.134 68.2813Z" fill="#DBDBDB"/>
<path d="M278.243 75.789V45.185H267.918V75.789H278.243Z" fill="#A6A6A6"/>
<path d="M278.243 72.541V69.692H267.918V72.541H278.243Z" fill="#C7C7C7"/>
<path d="M278.25 67.823V66.717H267.925V67.823H278.25Z" fill="#C7C7C7"/>
<path d="M300.146 75.789V47.033H293.013V75.789H300.146Z" fill="#A6A6A6"/>
<path d="M300.146 72.737V70.056H293.013V72.737H300.146Z" fill="#C7C7C7"/>
<path d="M300.146 55.636V52.955H293.013V55.636H300.146Z" fill="#C7C7C7"/>
<path d="M300.146 58.513V57.477H293.013V58.513H300.146Z" fill="#C7C7C7"/>
<path d="M156.716 178.913C184.072 211.876 205.303 237.713 203.861 248.913C200.62 273.959 186.991 277.529 184.548 276.983C167.895 273.245 143.843 215.6 134.785 186.312C126.7 160.153 142.1 161.329 156.716 178.913Z" fill="#FFC727"/>
<path opacity="0.1" d="M201.6 239.295C198.872 240.95 196.295 242.842 193.9 244.951C190.4 248.003 187.229 251.321 183.582 254.17C180.242 256.805 176.625 259.067 172.795 260.918C171.563 261.506 170.317 262.059 169.05 262.549C168.271 261.415 167.494 260.234 166.719 259.007C170.743 257.478 174.569 255.471 178.115 253.029C181.783 250.523 185.073 247.527 188.524 244.741C191.803 242.076 195.318 239.715 199.024 237.685C199.491 237.419 199.981 237.16 200.494 236.908C200.9 237.727 201.278 238.525 201.6 239.295ZM190.463 221.2C188.001 222.099 185.483 222.833 182.924 223.398C171.248 225.743 161.315 218.435 151.326 213.276C154.246 209.913 157.485 206.842 161 204.106C163.494 202.188 166.235 200.613 169.148 199.423C170.293 198.973 171.461 198.585 172.648 198.261L170.051 195.069C167.201 195.919 164.473 197.13 161.931 198.674C156.513 201.992 152.061 206.654 147.833 211.33L147.672 211.505L146.937 211.183C145.649 210.637 144.345 210.14 143.024 209.692C144.158 212.625 145.355 215.614 146.601 218.624C146.986 218.183 147.371 217.735 147.763 217.294L148.463 216.489C152.019 218.246 155.463 220.262 158.963 222.089C164.752 225.141 171.122 228.011 177.807 227.864C181.573 227.78 185.115 226.513 188.524 225.015L192.066 223.447C191.555 222.726 191.016 221.963 190.463 221.2ZM153.622 175.448C151.865 176.432 150.054 177.315 148.197 178.094C143.374 180.145 137.998 179.97 132.965 178.794C132.718 177.343 132.58 175.876 132.552 174.405C133.781 174.729 135.027 174.988 136.283 175.182C138.836 175.547 141.426 175.564 143.983 175.231C146.205 175.031 148.393 174.549 150.493 173.796C147.511 172.774 144.508 171.829 141.449 171.08C138.747 170.404 135.994 169.952 133.217 169.729C133.517 168.713 134.129 167.816 134.967 167.168C135.806 166.519 136.827 166.152 137.886 166.117C139.398 166.362 140.896 166.677 142.387 167.041C145.747 168.434 149.653 171.297 153.622 175.441V175.448Z" fill="black"/>
<path opacity="0.1" d="M182.959 276.444C166.404 269.626 143.563 214.648 134.785 186.284C132.055 177.457 131.985 171.752 133.707 168.728L182.959 276.444Z" fill="black"/>
<path d="M165.9 307.496L39.473 307.3C39.788 304.696 66.164 187.418 96.747 160.405C107.247 151.123 127.344 158.018 129.864 160.076C154.322 180.026 167.748 305.97 165.9 307.496Z" fill="#FFC727"/>
<path d="M165.9 307.496L39.473 307.3C39.515 306.95 40.019 304.563 40.943 300.629C40.992 300.384 41.055 300.139 41.111 299.887C41.979 296.198 43.169 291.298 44.646 285.523C45.024 284.039 45.423 282.492 45.843 280.896C49.399 267.344 54.292 250.061 60.13 232.666C60.557 231.378 60.998 230.09 61.439 228.795C61.733 227.941 62.034 227.094 62.328 226.24L63.343 223.363C67.3633 211.844 71.9969 200.549 77.224 189.525C77.84 188.265 78.4584 187.026 79.079 185.808C82.901 178.311 86.884 171.738 90.979 166.6C92.1808 165.074 93.4661 163.616 94.829 162.232C95.466 161.581 96.11 160.972 96.754 160.405C107.254 151.123 127.351 158.018 129.871 160.076C131.789 161.718 133.461 163.627 134.834 165.746C135.833 167.218 136.753 168.741 137.592 170.31C138.46 171.92 139.314 173.654 140.154 175.511C140.742 176.822 141.323 178.187 141.897 179.606C145.187 187.747 148.197 197.575 150.822 208.131C151.2 209.615 151.564 211.12 151.928 212.639C152.012 213.003 152.103 213.374 152.187 213.738C152.607 215.516 153.018 217.306 153.419 219.107C156.52 233.009 159.082 247.548 161.063 260.729C161.278 262.129 161.483 263.503 161.679 264.852C162.491 270.452 163.191 275.737 163.779 280.567C163.884 281.456 163.996 282.331 164.094 283.192C165.774 297.416 166.411 307.083 165.9 307.496Z" fill="#FFC727"/>
<path opacity="0.1" d="M164.094 283.171C161.805 284.102 159.579 285.18 157.36 286.272C153.384 288.239 149.345 290.374 145.019 291.473C140.994 292.531 136.765 292.543 132.734 291.508C125.37 289.569 119.434 284.508 113.617 279.797C110.103 276.804 106.294 274.175 102.249 271.95L101.843 272.223C96.2431 276.059 91.0981 280.469 85.8761 284.774C80.6541 289.079 75.1731 293.391 69.0761 296.436C62.5661 299.684 55.5731 301.679 48.2441 301.476C45.7918 301.404 43.3508 301.113 40.9501 300.608C40.9991 300.363 41.0621 300.118 41.1181 299.866C45.8632 300.702 50.7244 300.624 55.4401 299.635C62.3001 298.158 68.2711 294.63 73.8501 290.5C82.2501 284.2 89.5161 276.353 97.9511 270.095C96.4171 269.54 94.8419 269.107 93.2401 268.8C84.8401 267.225 75.9501 268.863 68.3551 272.692C60.9701 276.416 54.3551 281.526 46.7041 284.746C46.0041 285.026 45.3461 285.292 44.6461 285.53C45.0241 284.046 45.4231 282.499 45.8431 280.903C48.3628 279.668 50.8183 278.306 53.2001 276.822C60.2981 272.538 67.1581 267.764 75.2711 265.622C83.8251 263.326 93.0301 263.522 101.283 266.854C101.57 266.973 101.85 267.092 102.123 267.218C103.264 266.518 104.426 265.818 105.623 265.118C112.308 261.455 119.842 259.622 127.463 259.805C136.661 259.994 145.761 262.262 154.987 261.625C157.031 261.483 159.06 261.181 161.056 260.722C161.271 262.122 161.476 263.496 161.672 264.845L160.832 265.02C156.337 265.848 151.752 266.083 147.196 265.72C138.096 265.111 128.814 262.92 119.693 264.439C115.004 265.291 110.501 266.964 106.393 269.381C111.293 272.293 115.619 276.143 120.064 279.664C125.559 284.004 131.775 288.232 139.062 288.134C147.756 288.022 155.449 283.234 163.513 280.63L163.786 280.546C163.884 281.435 163.996 282.31 164.094 283.171ZM152.194 213.717L151.34 213.269L151.935 212.618C151.571 211.099 151.235 209.594 150.829 208.11C149.821 209.174 148.827 210.252 147.854 211.33L147.693 211.505L146.958 211.183C140.065 208.227 132.616 206.795 125.118 206.983C117.838 207.179 110.859 209.083 104.118 211.82C97.5101 214.501 91.1261 217.707 84.4061 220.108C78.4607 222.294 72.1766 223.415 65.8421 223.419C65.0021 223.419 64.1691 223.384 63.3291 223.335L62.3001 226.219C67.723 227.048 73.2487 226.93 78.6311 225.869C85.6871 224.434 92.2461 221.459 98.7981 218.582C105.35 215.705 112 212.842 119.098 211.715C126.359 210.576 133.785 211.127 140.798 213.325C142.142 213.738 143.451 214.242 144.746 214.781C141.575 218.472 138.171 221.956 134.554 225.211C129.473 229.733 123.265 232.797 116.585 234.08C100.128 237.181 83.7691 230.769 67.5431 229.117C65.5271 228.914 63.4831 228.795 61.4391 228.774C60.9981 230.069 60.5571 231.357 60.1301 232.645C61.3551 232.645 62.5801 232.743 63.8121 232.848C80.4371 234.304 96.8311 240.513 113.673 238.665C121.034 237.965 128.07 235.291 134.036 230.923C139.223 227.038 143.521 222.152 147.77 217.294L148.47 216.489C150.136 217.308 151.774 218.19 153.37 219.086C153.001 217.289 152.605 215.5 152.18 213.717H152.194ZM141.904 179.585C138.606 179.786 135.296 179.453 132.104 178.598C126.742 177.24 121.716 174.881 116.704 172.578C114.506 173.467 112.357 174.482 110.264 175.553C105.168 178.164 100.282 181.153 95.1861 183.778C90.1295 186.488 84.6621 188.349 79.0021 189.287C78.4281 189.371 77.8541 189.448 77.2801 189.504C77.8961 188.244 78.5144 187.005 79.1351 185.787C80.5933 185.445 82.0326 185.027 83.4471 184.534C93.4431 181.034 102.032 174.783 111.545 170.296C108.041 168.747 104.383 167.574 100.632 166.796C97.4549 166.193 94.1992 166.127 91.0001 166.6C92.2018 165.074 93.4871 163.616 94.8501 162.232C98.2775 162.177 101.694 162.635 104.986 163.59C109.017 164.808 112.952 166.322 116.76 168.119C120.876 166.556 125.22 165.679 129.619 165.522C131.367 165.488 133.116 165.563 134.855 165.746C135.854 167.218 136.774 168.741 137.613 170.31C133.647 169.58 129.588 169.492 125.594 170.051C124.537 170.212 123.494 170.436 122.465 170.695C126.959 172.69 131.439 174.489 136.311 175.224C137.59 175.415 138.882 175.511 140.175 175.511C140.744 176.808 141.316 178.166 141.89 179.585H141.904Z" fill="black"/>
<path d="M125.664 193.032C125.664 193.032 102.9 173.649 89.145 175.077L78.141 186.277C78.141 186.277 74.382 187.803 73.024 185.444C69.664 179.62 68.075 165.074 79.968 154.749C90.86 145.292 109.711 144.641 125.685 147.7C141.029 150.633 154.784 159.733 150.836 169.883C146.888 180.033 125.664 193.032 125.664 193.032Z" fill="#FFC727"/>
<path opacity="0.1" d="M126.854 188.3C126.854 188.3 143.29 174.776 144.571 167.3C145.852 159.824 130.725 153.909 121.1 151.816C106.169 148.589 96.2571 150.213 88.5921 158.592C80.9271 166.971 126.854 188.3 126.854 188.3Z" fill="black"/>
<path d="M125.209 187.397C117.712 187.635 107.66 174.209 104.608 164.367C104.405 163.667 106.638 157.479 108.99 149.8C110.39 145.138 111.867 139.909 112.854 135.044C113.05 134.05 141.862 148.666 141.862 148.666C141.862 148.666 136.787 158.249 135.114 166.747C134.985 167.418 134.92 168.1 134.918 168.784C134.924 168.896 134.924 169.008 134.918 169.12C134.743 173.04 132.454 187.159 125.209 187.397Z" fill="#D3766A"/>
<path d="M114.702 135.555C114.45 144.067 115.521 164.955 131.733 168.658C132.77 168.903 133.826 169.06 134.89 169.127C134.902 169.013 134.902 168.898 134.89 168.784C134.896 168.101 134.959 167.42 135.079 166.747C136.752 158.242 141.834 148.652 141.834 148.652C141.834 148.652 121.1 138.11 114.702 135.555Z" fill="#263238"/>
<path d="M120.316 95.704C113.701 105.168 109.41 137.305 114.716 146.496C122.36 159.796 139.79 166.502 152.341 156.184C164.507 146.188 169.365 104.202 163.016 95.354C153.636 82.313 130.081 81.732 120.316 95.704Z" fill="#D3766A"/>
<path d="M144.011 123.9C144.011 123.816 143.829 123.991 143.822 124.075C143.675 126.259 143.122 128.73 141.099 129.255C141.036 129.255 141.029 129.381 141.099 129.374C143.535 129.248 144.2 126 144.011 123.9Z" fill="#263238"/>
<path d="M142.296 121.408C138.796 120.792 137.851 127.778 141.064 128.345C144.277 128.912 145.201 121.926 142.296 121.408Z" fill="#263238"/>
<path d="M156.1 125.629C156.1 125.552 156.254 125.755 156.24 125.846C155.869 128.002 155.806 130.529 157.64 131.516C157.696 131.551 157.64 131.656 157.605 131.635C155.295 130.97 155.4 127.61 156.1 125.629Z" fill="#263238"/>
<path d="M158.354 123.641C161.854 123.865 161.154 130.879 157.906 130.676C154.658 130.473 155.4 123.459 158.354 123.641Z" fill="#263238"/>
<path d="M139.699 115.619C140.666 115.648 141.633 115.625 142.597 115.549C143.703 115.549 144.592 115.598 145.537 114.919C145.782 114.7 145.947 114.406 146.006 114.083C146.066 113.76 146.016 113.426 145.866 113.134C145.166 111.916 143.766 111.622 142.443 111.608C141.094 111.555 139.774 112.007 138.74 112.875C137.641 113.75 138.397 115.5 139.699 115.619Z" fill="#263238"/>
<path d="M162.267 119C161.357 118.678 160.465 118.309 159.593 117.894C158.571 117.46 157.717 117.194 157.08 116.242C156.932 115.948 156.886 115.614 156.948 115.291C157.01 114.968 157.177 114.675 157.423 114.457C158.529 113.575 159.908 113.799 161.161 114.275C162.437 114.711 163.505 115.607 164.157 116.788C164.864 117.999 163.513 119.378 162.267 119Z" fill="#263238"/>
<path d="M137.585 143.5C138.033 144.081 138.453 144.851 139.23 145.026C140.037 145.122 140.854 145.048 141.631 144.809C141.647 144.799 141.666 144.795 141.684 144.799C141.703 144.803 141.719 144.814 141.729 144.83C141.739 144.846 141.743 144.865 141.739 144.883C141.735 144.902 141.724 144.918 141.708 144.928C141.339 145.311 140.874 145.586 140.361 145.726C139.848 145.865 139.308 145.863 138.796 145.719C138.377 145.538 138.021 145.238 137.772 144.856C137.522 144.474 137.392 144.026 137.396 143.57C137.347 143.402 137.522 143.381 137.585 143.5Z" fill="#263238"/>
<path d="M140.763 137.305C141.193 138.238 141.811 139.072 142.578 139.755C143.345 140.438 144.245 140.955 145.222 141.274C146.071 141.564 146.958 141.729 147.854 141.764C148.026 141.781 148.2 141.781 148.372 141.764C148.533 141.764 148.673 141.764 148.855 141.764C148.974 141.76 149.088 141.715 149.178 141.638C149.269 141.56 149.33 141.454 149.352 141.337C149.359 141.263 149.359 141.188 149.352 141.113V140.924C149.625 139.265 149.821 136.724 149.821 136.724C150.388 137.109 153.321 138.943 153.37 138.061C153.944 130.802 154.588 122.724 153.629 115.374C153.629 115.32 153.608 115.269 153.57 115.23C153.532 115.192 153.48 115.171 153.426 115.171C153.372 115.171 153.321 115.192 153.283 115.23C153.244 115.269 153.223 115.32 153.223 115.374C152.39 122.332 152.789 129.374 152.068 136.374C151.13 135.856 149.611 134.939 148.736 134.834C148.491 134.869 148.456 139.776 148.267 140.511C148.272 140.536 148.272 140.563 148.267 140.588C145.418 140.588 143.43 139.412 140.973 137.158C140.854 136.997 140.658 137.116 140.763 137.305Z" fill="#263238"/>
<path d="M147 140.784C145.919 141.844 144.584 142.608 143.122 143.003C142.314 143.194 141.465 143.123 140.7 142.8C139.034 142.1 139.216 140.511 139.72 139.202C139.996 138.507 140.353 137.847 140.784 137.235C142.423 139.052 144.602 140.296 147 140.784Z" fill="#263238"/>
<path d="M143.115 143.003C142.309 143.192 141.463 143.121 140.7 142.8C139.034 142.1 139.216 140.511 139.72 139.202C141.554 139.671 143.206 141.183 143.115 143.003Z" fill="#FF98B9"/>
<path d="M165.494 107.646C152.81 113.911 138.719 99.673 138.719 99.673C133.707 108.171 124.838 105.798 124.838 105.798C124.838 105.798 119.77 125.027 114.625 124.25C106.771 123.081 108.164 96.068 111.391 91.182C114.618 86.296 121.471 85.911 121.471 85.911C121.471 85.911 122.542 81.914 127.925 78.911C133.875 75.572 151.599 83.755 151.599 83.755C153.01 81.4301 154.948 79.4689 157.255 78.029C157.811 77.669 158.435 77.4255 159.088 77.3134C159.741 77.2012 160.41 77.2227 161.054 77.3764C161.699 77.5302 162.306 77.8131 162.838 78.208C163.37 78.6029 163.816 79.1016 164.15 79.674C162.961 80.9774 162.083 82.5329 161.581 84.224C159.831 89.824 164.507 90.482 165.214 85.281C165.544 83.3471 165.167 81.3589 164.15 79.681C166.95 76.615 170.87 76.055 172.9 78.197C176.575 82.068 176.043 102.438 165.494 107.646Z" fill="#263238"/>
<path d="M124.6 99.456C124.601 99.4191 124.595 99.3823 124.581 99.3481C124.567 99.3139 124.546 99.2831 124.519 99.2577C124.492 99.2324 124.46 99.213 124.425 99.201C124.39 99.1891 124.353 99.1847 124.317 99.1882C124.28 99.1917 124.244 99.2031 124.212 99.2215C124.18 99.2399 124.152 99.2649 124.131 99.295C124.109 99.325 124.094 99.3592 124.087 99.3955C124.08 99.4317 124.081 99.469 124.089 99.505C124.222 103.523 124.369 107.583 123.543 111.566C122.717 115.549 119.217 125.104 113.743 123.13C113.69 123.107 113.629 123.105 113.574 123.126C113.52 123.147 113.476 123.188 113.451 123.241C113.426 123.294 113.423 123.354 113.443 123.409C113.462 123.465 113.502 123.51 113.554 123.536C117.054 125.86 120.302 121.436 122.003 118.286C125.076 112.574 125.3 105.742 124.6 99.456Z" fill="#263238"/>
<path d="M172.634 77.875C172.628 77.8667 172.62 77.8609 172.61 77.8589C172.6 77.8569 172.59 77.8589 172.582 77.8645C172.573 77.8701 172.567 77.8787 172.565 77.8886C172.563 77.8984 172.565 77.9087 172.571 77.917C177.471 86.387 177.366 97.426 170.66 105.007C162.225 114.548 149.191 105.756 141.477 100.107C141.099 99.827 140.616 100.366 140.994 100.66C148.456 106.449 161.763 114.961 170.394 106.428C178.045 98.784 178.255 86.611 172.634 77.875Z" fill="#263238"/>
<path d="M123.13 86.1C115.297 85.82 109.256 88.676 107.324 96.74C105.392 104.804 107.415 113.848 112.161 120.54C112.211 120.595 112.279 120.629 112.353 120.638C112.426 120.647 112.5 120.628 112.562 120.587C112.623 120.545 112.667 120.483 112.686 120.411C112.705 120.34 112.698 120.264 112.665 120.197C109.459 114.632 107.317 108.703 107.485 102.193C107.611 97.377 108.934 92.169 112.784 88.956C115.584 86.639 119.749 86.59 123.158 86.415C123.354 86.415 123.319 86.135 123.13 86.1Z" fill="#263238"/>
<path d="M153.664 85.722C144.886 78.449 126.623 70.133 121.569 85.813C121.527 85.946 121.744 86.016 121.793 85.89C127.771 70.308 144.193 80.038 153.412 86.107C153.636 86.254 153.867 85.89 153.664 85.722Z" fill="#263238"/>
<path d="M120.855 123.389C120.855 123.389 116.935 111.433 111.713 112.539C106.491 113.645 107.352 129.5 112 133.07C112.568 133.565 113.229 133.94 113.945 134.174C114.661 134.407 115.417 134.494 116.167 134.429C116.917 134.363 117.646 134.147 118.311 133.794C118.976 133.44 119.563 132.956 120.036 132.37L120.855 123.389Z" fill="#D3766A"/>
<path d="M112.077 117.082C112.06 117.077 112.042 117.079 112.026 117.086C112.01 117.093 111.997 117.105 111.989 117.12C111.981 117.136 111.978 117.154 111.981 117.171C111.985 117.188 111.994 117.204 112.007 117.215C115.241 119.826 116.151 123.83 116.438 127.785C115.738 126.091 114.485 124.894 112.238 125.643C112.126 125.685 112.168 125.86 112.28 125.874C112.991 125.863 113.687 126.072 114.274 126.473C114.861 126.875 115.309 127.448 115.556 128.114C115.96 129.231 116.244 130.388 116.403 131.565C116.473 131.95 117.103 131.95 117.103 131.565C117.1 131.532 117.1 131.5 117.103 131.467C118.643 126.77 116.977 119.084 112.077 117.082Z" fill="#263238"/>
<path d="M126.854 188.3C126.854 188.3 107.779 160.552 86.254 159.159L89.152 175.07C89.152 175.07 101.878 174.223 125.671 193.025L126.854 188.3Z" fill="#FFC727"/>
<path d="M83.412 175.763C87.283 175.007 91.224 175.609 94.969 176.512C98.7257 177.492 102.357 178.901 105.791 180.712C109.253 182.468 112.594 184.451 115.794 186.648L120.512 190.085L125.076 193.739L125.587 194.152L126.105 193.837C129.953 191.527 133.637 188.954 137.13 186.137C138.896 184.749 140.575 183.253 142.156 181.657C143.757 180.088 145.199 178.365 146.461 176.512C143.521 179.879 139.986 182.588 136.409 185.192C134.617 186.487 132.762 187.698 130.886 188.874C129.01 190.05 127.127 191.233 125.216 192.304L126.245 192.402L121.667 188.615C120.092 187.418 118.482 186.256 116.872 185.115C115.262 183.974 113.547 182.952 111.832 181.951C110.117 180.95 108.332 180.005 106.526 179.221C102.925 177.506 99.1183 176.259 95.2 175.511C94.227 175.308 93.233 175.21 92.246 175.077C91.259 174.944 90.258 174.944 89.264 174.965C87.2821 174.896 85.3029 175.166 83.412 175.763Z" fill="#263238"/>
<path d="M78.141 186.284C80.2046 184.659 82.1573 182.898 83.986 181.013C85.8379 179.153 87.5615 177.17 89.145 175.077C87.0783 176.696 85.1254 178.454 83.3 180.341C81.4481 182.203 79.7245 184.189 78.141 186.284Z" fill="#263238"/>
<path d="M117.397 182.07C115.991 188.729 115.162 195.498 114.919 202.3C114.716 207.032 116.172 224.063 121.45 223.566C126.728 223.069 118.391 211.918 117.082 202.923C115.752 193.823 118.307 187.418 118.748 182.056L117.397 182.07Z" fill="#FFC727"/>
<g opacity="0.1">
<path opacity="0.1" d="M117.397 182.07C115.991 188.729 115.162 195.498 114.919 202.3C114.716 207.032 116.172 224.063 121.45 223.566C126.728 223.069 118.391 211.918 117.082 202.923C115.752 193.823 118.307 187.418 118.748 182.056L117.397 182.07Z" fill="black"/>
</g>
<path d="M136.668 181.391C138.353 187.315 139.524 193.374 140.168 199.5C140.658 203.77 140.427 219.275 135.625 219.156C130.823 219.037 137.648 208.418 138.257 200.2C138.88 191.856 136.157 186.256 135.457 181.433L136.668 181.391Z" fill="#FFC727"/>
<g opacity="0.1">
<path opacity="0.1" d="M136.668 181.391C138.353 187.315 139.524 193.374 140.168 199.5C140.658 203.77 140.427 219.275 135.625 219.156C130.823 219.037 137.648 208.418 138.257 200.2C138.88 191.856 136.157 186.256 135.457 181.433L136.668 181.391Z" fill="black"/>
</g>
<path d="M184.282 271.768C174.65 263.046 160.685 235.683 146.762 194.369C144.487 187.614 182.924 166.901 186.109 173.824C190.12 182.546 211.309 232.939 211.96 235.599C217.7 258.083 190.68 277.564 184.282 271.768Z" fill="#D3766A"/>
<path d="M143.017 171.724C141.442 180.159 146.629 193.907 146.629 193.907L187.866 178.185C187.866 178.185 184.457 164.738 186.067 157.542C186.536 155.442 188.531 144.417 191.156 133.833C194.131 121.814 195.713 108.836 194.999 107.527C193.599 105.007 188.909 105.917 184.996 113.526C181.083 121.135 176.022 137.326 175.462 138.194C175.248 138.468 175.014 138.725 174.762 138.964C174.349 139.181 162.211 138.523 158.753 142.793C155.295 147.063 142.8 170.177 143.017 171.724Z" fill="#D3766A"/>
<path d="M173.999 154.784C173.999 154.784 187.299 138.684 187.614 134.379C187.929 130.074 194.012 104.405 192.689 101.857C191.366 99.309 186.599 100.247 182.686 107.856C178.773 115.465 173.712 131.656 173.152 132.531C172.592 133.406 158.753 145.495 157.815 147C156.877 148.505 173.999 154.784 173.999 154.784Z" fill="#D3766A"/>
<path d="M182.756 146.79C183.785 144.746 184.73 142.667 185.682 140.588C186.149 139.543 186.597 138.49 187.026 137.431C187.236 136.899 187.453 136.367 187.649 135.821C187.747 135.555 187.838 135.268 187.929 134.988C188.009 134.697 188.075 134.403 188.125 134.106C189 129.647 189.861 125.153 190.694 120.666C191.527 116.179 192.332 111.706 193.025 107.163C193.183 106.003 193.2 104.827 193.074 103.663C193.007 103.062 192.856 102.473 192.626 101.913C192.402 101.309 191.983 100.797 191.436 100.457C191.152 100.307 190.841 100.216 190.521 100.19C190.201 100.163 189.879 100.202 189.574 100.303C189.007 100.479 188.474 100.751 187.999 101.108C187.079 101.804 186.259 102.624 185.563 103.544C186.347 102.725 187.223 101.999 188.174 101.381C188.64 101.087 189.15 100.872 189.686 100.744C189.929 100.682 190.182 100.67 190.43 100.708C190.678 100.747 190.915 100.835 191.128 100.968C191.947 101.521 192.227 102.683 192.311 103.768C192.377 104.874 192.307 105.984 192.101 107.072C191.205 111.517 190.33 116.018 189.504 120.498C188.678 124.978 187.873 129.472 187.215 134.008C187.023 135.104 186.721 136.179 186.312 137.214C185.941 138.285 185.535 139.349 185.143 140.42L182.756 146.79Z" fill="#263238"/>
<path d="M169.33 155.4C169.33 155.4 183.806 137.711 184.156 133.385C184.506 129.059 190.554 103.411 189.224 100.863C187.894 98.315 183.134 99.253 179.221 106.862C175.308 114.471 170.247 130.662 169.687 131.537C169.127 132.412 156.982 145.474 156.037 146.937C155.092 148.4 169.33 155.4 169.33 155.4Z" fill="#D3766A"/>
<path d="M178.885 148.596C180.033 146.041 181.083 143.444 182.133 140.84C182.63 139.531 183.127 138.215 183.589 136.892C183.82 136.227 184.051 135.562 184.289 134.883C184.499 134.195 184.66 133.493 184.772 132.783C185.789 127.29 186.776 121.781 187.733 116.256L189.133 107.975L189.455 105.875C189.578 105.164 189.658 104.447 189.693 103.726C189.73 102.982 189.668 102.236 189.511 101.507C189.368 100.702 188.968 99.9649 188.37 99.407C188.03 99.123 187.613 98.9475 187.173 98.903C186.762 98.8691 186.348 98.9265 185.962 99.071C185.264 99.3353 184.617 99.719 184.051 100.205C182.965 101.134 181.986 102.181 181.132 103.327C179.435 105.585 178.139 108.119 177.303 110.817C178.342 108.231 179.789 105.827 181.587 103.698C182.459 102.635 183.439 101.666 184.513 100.807C185.024 100.399 185.602 100.081 186.221 99.869C186.477 99.7632 186.757 99.7294 187.031 99.7713C187.305 99.8133 187.562 99.9294 187.775 100.107C188.184 100.546 188.448 101.101 188.531 101.696C188.642 102.343 188.68 103.001 188.643 103.656C188.559 104.958 188.23 106.365 188.006 107.737L186.557 116.004C185.612 121.52 184.66 127.036 183.834 132.58C183.753 133.26 183.627 133.933 183.456 134.596C183.281 135.296 183.092 135.933 182.889 136.598C182.483 137.928 182.042 139.258 181.601 140.581L178.885 148.596Z" fill="#263238"/>
<path d="M169.981 155.736C169.981 155.736 178.962 137.438 179.284 133.413C179.606 129.388 184.835 112.133 183.603 109.753C182.371 107.373 177.933 108.255 174.286 115.353C170.639 122.451 166.341 130.858 165.823 131.698C165.305 132.538 156.912 145.6 156.037 147C155.162 148.4 169.981 155.736 169.981 155.736Z" fill="#D3766A"/>
<path d="M173.887 151.599C175.287 148.267 176.596 144.914 177.933 141.561C178.633 139.888 179.256 138.208 179.9 136.521L180.376 135.254C180.542 134.821 180.678 134.376 180.782 133.924C181.006 133.042 181.195 132.153 181.37 131.271C182.07 127.722 182.7 124.166 183.197 120.582C183.449 118.797 183.687 117.005 183.897 115.206C183.988 114.303 184.079 113.4 184.142 112.49C184.219 111.558 184.219 110.622 184.142 109.69C184.114 109.391 184.027 109.1 183.887 108.835C183.746 108.569 183.555 108.334 183.323 108.143C182.827 107.799 182.218 107.659 181.622 107.751C180.641 107.914 179.706 108.289 178.885 108.85C177.281 109.881 175.954 111.289 175.021 112.952C173.264 116.13 171.612 119.322 169.932 122.514C168.252 125.706 166.579 128.947 165.032 132.104C164.15 133.658 163.205 135.205 162.281 136.745C161.357 138.285 160.454 139.86 159.6 141.449C161.798 138.579 163.877 135.653 165.9 132.636L170.954 123.039C172.648 119.868 174.342 116.669 176.099 113.554C176.938 112.056 178.124 110.782 179.557 109.837C180.222 109.366 180.982 109.046 181.783 108.899C181.93 108.854 182.086 108.844 182.238 108.87C182.389 108.897 182.533 108.958 182.656 109.05C182.779 109.142 182.879 109.262 182.948 109.4C183.016 109.538 183.051 109.69 183.05 109.844C183.116 110.704 183.116 111.567 183.05 112.427C182.994 113.316 182.917 114.212 182.826 115.108C182.644 116.893 182.427 118.678 182.189 120.456C181.699 124.019 181.223 127.589 180.593 131.131C180.439 132.013 180.278 132.895 180.082 133.763C179.87 134.626 179.604 135.475 179.284 136.304L177.457 141.4L173.887 151.599Z" fill="#263238"/>
<path d="M165.9 132.622C164.262 134.862 162.813 137.228 161.364 139.622C159.915 142.016 158.473 144.354 157.038 146.727C154.196 151.487 151.361 156.254 148.687 161.091C147.343 163.506 146.027 165.949 144.879 168.434C144.592 169.05 144.319 169.68 144.088 170.303C143.955 170.618 143.871 170.926 143.773 171.234C143.687 171.541 143.628 171.855 143.598 172.172C143.535 172.872 143.437 173.516 143.43 174.195L143.381 175.217V176.239C143.429 178.98 143.703 181.712 144.2 184.408C144.688 187.14 145.333 189.842 146.132 192.5C145.084 189.917 144.223 187.262 143.556 184.555C142.874 181.834 142.45 179.054 142.289 176.253C142.205 174.839 142.233 173.421 142.373 172.011C142.401 171.635 142.462 171.263 142.555 170.898C142.653 170.541 142.751 170.198 142.877 169.848C143.115 169.148 143.381 168.518 143.668 167.874C144.802 165.298 146.118 162.841 147.455 160.391C150.176 155.533 153.06 150.778 156.107 146.125C157.628 143.792 159.187 141.491 160.783 139.223C161.595 138.096 162.414 136.969 163.254 135.856C164.073 134.728 164.957 133.648 165.9 132.622Z" fill="#263238"/>
<path d="M192.017 174.342L146.706 214.2C146.706 214.2 170.576 268.891 181.853 275.842C194.922 283.892 221.984 263.382 213.563 233.842L192.017 174.342Z" fill="#FFC727"/>
<path opacity="0.1" d="M213.584 233.891C206.325 236.169 199.621 239.936 193.9 244.951C190.4 248.003 187.229 251.321 183.582 254.17C180.242 256.805 176.625 259.067 172.795 260.918C172.095 261.24 171.437 261.555 170.744 261.849C170.044 260.694 169.344 259.49 168.644 258.258C171.976 256.831 175.16 255.079 178.15 253.029C181.818 250.523 185.108 247.527 188.559 244.741C191.838 242.076 195.353 239.715 199.059 237.685C203.475 235.28 208.18 233.448 213.059 232.232L213.633 233.814L213.584 233.891ZM207.2 216.3C206.332 216.501 205.464 216.711 204.596 216.93C200.865 217.84 197.197 218.974 193.536 220.136C190.036 221.256 186.536 222.635 182.896 223.363C171.22 225.708 161.287 218.4 151.298 213.241C154.228 209.889 157.477 206.829 161 204.106C163.494 202.188 166.235 200.613 169.148 199.423C172.915 198.029 176.851 197.141 180.852 196.784C187.075 196.084 193.361 196.084 199.521 194.999L198.527 192.262C193.711 192.682 188.839 192.619 184.016 192.871C178.311 193.165 172.669 193.949 167.412 195.986L146.727 214.186C146.727 214.186 147.189 215.236 148.008 217.07C148.169 216.881 148.33 216.692 148.498 216.51C152.054 218.267 155.498 220.283 158.998 222.11C164.787 225.162 171.157 228.032 177.842 227.885C181.608 227.801 185.15 226.534 188.559 225.036C191.968 223.538 195.559 221.893 199.129 220.542C201.971 219.478 204.832 218.496 207.711 217.595L207.2 216.3ZM193.627 178.78C193.046 178.976 192.465 179.165 191.877 179.34C189.52 180.042 187.104 180.534 184.66 180.81L190.547 175.637C191.142 175.497 191.737 175.35 192.325 175.196L193.627 178.78Z" fill="black"/>
<path d="M193.62 190.302C176.932 207.424 159.901 219.835 156.583 222.782C156.422 222.915 156.219 222.649 156.38 222.516C159.789 219.8 177.779 202.685 193.403 190.015C193.585 189.868 193.781 190.134 193.62 190.302Z" fill="#263238"/>
<path d="M172.508 264.502C169.008 258.006 165.466 251.531 162.008 245C158.55 238.469 155.337 231.854 152.208 225.183C150.472 221.501 149.1 217.959 147.462 214.235C149.114 212.765 150.304 211.512 152.047 209.839C152.278 209.615 151.949 209.202 151.69 209.398C149.59 210.987 146.195 213.899 146.265 214.074C149.065 220.906 152.098 227.64 155.365 234.276C158.632 240.912 162.113 247.469 165.809 253.946C167.886 257.558 170.088 261.095 172.417 264.558C172.452 264.6 172.543 264.6 172.508 264.502Z" fill="#263238"/>
<path d="M63.2521 276.136C75.7331 272.51 105.252 235.158 122.437 192.416C125.097 185.808 90.5031 160.132 86.3801 166.516C81.2001 174.615 51.8001 219.52 50.7501 222.068C41.9231 243.516 54.7891 278.6 63.2521 276.136Z" fill="#D3766A"/>
<path d="M129.409 170.66C129.759 179.235 122.654 192.101 122.654 192.101L84.0911 170.646C84.0911 170.646 89.3831 157.822 88.8231 150.472C88.6551 148.337 88.2561 137.13 87.1781 126.28C85.9461 113.96 86.2331 100.891 87.1291 99.68C88.8511 97.384 93.3871 98.98 96.1661 107.051C98.9451 115.122 101.654 131.866 102.081 132.825C102.26 133.128 102.464 133.416 102.69 133.686C103.068 133.959 115.171 135.044 117.985 139.762C120.799 144.48 129.864 169.169 129.409 170.66Z" fill="#D3766A"/>
<path d="M101.164 149.471C101.164 149.471 90.3 131.656 90.601 127.323C90.902 122.99 88.55 96.747 90.23 94.423C91.91 92.099 96.481 93.723 99.274 101.794C102.067 109.865 104.755 126.609 105.182 127.575C105.609 128.541 117.6 142.457 118.3 144.074C119 145.691 101.164 149.471 101.164 149.471Z" fill="#D3766A"/>
<path d="M93.639 140.301C92.939 138.138 92.239 135.947 91.623 133.749C91.315 132.65 91.028 131.544 90.748 130.431C90.615 129.871 90.482 129.318 90.363 128.751C90.3 128.471 90.258 128.17 90.202 127.883C90.1631 127.583 90.1398 127.282 90.132 126.98C89.908 122.444 89.698 117.88 89.509 113.316C89.32 108.752 89.173 104.216 89.131 99.617C89.139 98.4361 89.2918 97.2607 89.586 96.117C89.7407 95.5318 89.9763 94.9711 90.286 94.451C90.5998 93.8856 91.0921 93.44 91.686 93.184C91.9874 93.0752 92.3077 93.0285 92.6277 93.0465C92.9477 93.0646 93.2607 93.1471 93.548 93.289C94.085 93.5453 94.573 93.8936 94.99 94.318C95.8021 95.1352 96.4971 96.061 97.055 97.069C96.3942 96.1479 95.631 95.3049 94.78 94.556C94.3618 94.2022 93.889 93.9185 93.38 93.716C93.1489 93.6168 92.9 93.5657 92.6485 93.5657C92.397 93.5657 92.1481 93.6168 91.917 93.716C91.028 94.143 90.58 95.256 90.349 96.292C90.1268 97.3761 90.0375 98.4833 90.083 99.589C90.335 104.118 90.559 108.689 90.734 113.253C90.909 117.817 91.07 122.353 91.07 126.952C91.1078 128.062 91.2532 129.167 91.504 130.249C91.721 131.362 91.973 132.475 92.204 133.588L93.639 140.301Z" fill="#263238"/>
<path d="M105.7 150.759C105.7 150.759 93.898 131.159 94.171 126.854C94.444 122.549 92.127 96.271 93.8 93.954C95.473 91.637 100.058 93.254 102.844 101.325C105.63 109.396 108.325 126.133 108.752 127.099C109.179 128.065 119.343 142.716 120.057 144.333C120.771 145.95 105.7 150.759 105.7 150.759Z" fill="#D3766A"/>
<path d="M97.209 142.646C96.439 139.951 95.774 137.228 95.109 134.505C94.801 133.138 94.5093 131.766 94.234 130.389C94.094 129.689 93.968 128.989 93.863 128.289C93.7547 127.58 93.6939 126.864 93.681 126.147C93.4617 120.547 93.2727 114.947 93.114 109.347L92.925 100.947V98.847C92.9034 98.1252 92.9268 97.4028 92.995 96.684C93.0703 95.9422 93.2397 95.213 93.499 94.514C93.7533 93.7514 94.2436 93.0894 94.899 92.624C95.274 92.3905 95.7107 92.2759 96.152 92.295C96.5634 92.3225 96.9642 92.437 97.328 92.631C97.9831 92.994 98.5705 93.4676 99.064 94.031C100.004 95.1035 100.821 96.2774 101.5 97.531C102.863 100.006 103.784 102.699 104.223 105.49C103.565 102.767 102.476 100.168 100.996 97.79C100.29 96.6124 99.4589 95.5141 98.518 94.514C98.0714 94.0357 97.5457 93.6378 96.964 93.338C96.7258 93.1962 96.4537 93.1214 96.1765 93.1214C95.8993 93.1214 95.6272 93.1962 95.389 93.338C94.9218 93.7138 94.582 94.2248 94.416 94.801C94.2097 95.4249 94.0782 96.0711 94.024 96.726C93.919 98.035 94.024 99.47 94.066 100.856L94.318 109.256C94.465 114.856 94.619 120.456 94.647 126.056C94.629 126.738 94.657 127.421 94.731 128.1C94.808 128.8 94.906 129.5 95.011 130.2C95.221 131.6 95.466 132.951 95.711 134.323L97.209 142.646Z" fill="#263238"/>
<path d="M105 150.983C105 150.983 98.7 131.586 98.98 127.561C99.26 123.536 96.53 105.707 98.091 103.53C99.652 101.353 103.915 102.83 106.491 110.39C109.067 117.95 112.133 126.875 112.532 127.778C112.931 128.681 119.364 142.814 120.029 144.319C120.694 145.824 105 150.983 105 150.983Z" fill="#D3766A"/>
<path d="M101.731 146.3C100.835 142.8 100.002 139.3 99.1551 135.8C98.7257 134.05 98.3174 132.293 97.9301 130.529L97.6361 129.206C97.5371 128.744 97.467 128.277 97.4261 127.806C97.3351 126.896 97.2721 125.993 97.2231 125.09C97.0341 121.478 96.9221 117.873 96.9431 114.254C96.9431 112.448 96.9431 110.642 97.0411 108.836C97.0411 107.926 97.1111 107.023 97.1741 106.113C97.2196 105.171 97.3437 104.234 97.5451 103.313C97.6945 102.729 98.0663 102.227 98.5811 101.913C99.1201 101.645 99.742 101.594 100.317 101.773C101.265 102.071 102.136 102.575 102.865 103.25C104.306 104.5 105.418 106.084 106.106 107.863C107.387 111.258 108.577 114.653 109.781 118.055C110.985 121.457 112.182 124.901 113.281 128.247C113.932 129.913 114.681 131.579 115.339 133.238C115.997 134.897 116.697 136.584 117.32 138.278C115.556 135.114 113.911 131.922 112.343 128.646L108.71 118.433C107.478 115.045 106.26 111.643 104.972 108.304C104.352 106.706 103.361 105.278 102.081 104.139C101.482 103.572 100.765 103.144 99.9811 102.886C99.8412 102.818 99.6873 102.784 99.5319 102.788C99.3765 102.791 99.2241 102.831 99.0873 102.905C98.9506 102.979 98.8333 103.084 98.7453 103.213C98.6573 103.341 98.601 103.488 98.5811 103.642C98.3952 104.485 98.2781 105.342 98.2311 106.204C98.1541 107.093 98.1121 107.989 98.0701 108.885C97.9931 110.677 97.9511 112.476 97.9301 114.275C97.9301 117.866 97.8671 121.471 97.9861 125.062C97.9861 125.958 98.0491 126.854 98.1191 127.743C98.2044 128.626 98.347 129.503 98.5461 130.368L99.5961 135.674L101.731 146.3Z" fill="#263238"/>
<path d="M112.553 127.778L116.312 135.534C117.551 138.124 118.776 140.721 119.966 143.339C122.353 148.568 124.635 153.839 126.728 159.208C127.75 161.903 128.744 164.605 129.528 167.426C129.726 168.144 129.881 168.873 129.99 169.61C130.047 170.004 130.066 170.402 130.046 170.8L129.969 171.899C129.824 173.352 129.59 174.794 129.269 176.218C128.671 179.053 127.835 181.832 126.77 184.527C126.241 185.872 125.64 187.187 124.971 188.468C124.334 189.765 123.549 190.984 122.633 192.101C124.14 189.663 125.317 187.036 126.133 184.289C126.581 182.931 126.98 181.566 127.316 180.18C127.652 178.794 127.96 177.38 128.205 175.98C128.45 174.58 128.618 173.18 128.723 171.78L128.772 170.73C128.78 170.411 128.756 170.092 128.702 169.778C128.59 169.113 128.415 168.434 128.233 167.755C127.47 165.039 126.448 162.358 125.433 159.691C123.382 154.343 121.163 149.051 118.986 143.745C116.809 138.439 114.555 133.175 112.553 127.778Z" fill="#263238"/>
<path d="M80.458 166.222L115.864 222.222C115.864 222.222 75.061 273.406 62.923 278.698C48.846 284.9 36.925 248.129 49.42 220.073L80.458 166.222Z" fill="#FFC727"/>
<path opacity="0.1" d="M79.219 264.719C77.203 266.819 75.257 268.758 73.423 270.508C71.6888 271.116 69.9959 271.837 68.355 272.664C64.589 274.561 61.026 276.822 57.421 279.006C55.9848 278.489 54.68 277.662 53.599 276.584C60.557 272.384 67.312 267.722 75.299 265.587C76.573 265.237 77.889 264.943 79.219 264.719ZM108.29 210.266C106.89 210.742 105.49 211.267 104.132 211.827C97.524 214.508 91.14 217.714 84.42 220.115C78.4746 222.301 72.1905 223.422 65.856 223.426C60.1972 223.379 54.5858 222.39 49.252 220.5C49 221.067 48.762 221.634 48.552 222.208C52.2057 223.867 56.0426 225.089 59.983 225.848C66.1503 227.082 72.4993 227.099 78.673 225.897C85.729 224.462 92.288 221.487 98.84 218.61C102.683 216.923 106.54 215.229 110.579 213.899L108.29 210.266ZM67.543 229.117C60.2841 228.298 52.9361 228.844 45.878 230.727C45.5887 231.954 45.3413 233.179 45.136 234.402C51.2245 232.807 57.5436 232.281 63.812 232.848C76.657 233.968 89.362 237.937 102.235 238.826C103.383 237.461 104.489 236.145 105.532 234.885C92.799 234.542 80.129 230.398 67.543 229.117ZM92.4 185.115C88.1407 187.149 83.6126 188.563 78.953 189.315C75.0239 189.889 71.0354 189.931 67.095 189.441L68.495 186.977C73.5578 187.036 78.5927 186.219 83.377 184.562C85.7055 183.737 87.9864 182.784 90.209 181.706L92.4 185.115ZM82.222 169.015C80.6236 169.663 79.0687 170.414 77.567 171.262L80.465 166.236L82.222 169.015Z" fill="black"/>
<path d="M103.124 226.436C88.816 207.284 79.212 188.524 76.818 184.786C76.706 184.611 77 184.45 77.105 184.632C79.261 188.419 93.359 208.859 103.446 226.268C103.6 226.464 103.264 226.618 103.124 226.436Z" fill="#263238"/>
<path d="M112.035 215.152C111.992 215.084 111.923 215.036 111.845 215.018C111.766 215 111.683 215.013 111.615 215.056C111.546 215.098 111.496 215.165 111.477 215.243C111.457 215.322 111.469 215.404 111.51 215.474C112.455 217.133 114.73 221.389 114.758 221.774C114.758 222.026 107.947 230.363 105.707 233.198C101.269 238.835 96.7144 244.377 92.0431 249.823C87.3717 255.269 82.5627 260.661 77.6161 266C75.3551 268.436 73.1291 270.949 70.6861 273.21C68.5021 275.226 66.0101 277.06 63.0841 277.809C57.8831 279.153 52.1501 276.115 49.7351 271.439C49.4342 270.842 49.1882 270.219 49.0001 269.577C49.0001 269.514 48.8811 269.528 48.8951 269.577C49.7631 275.093 54.9221 279.195 60.4171 279.335C67.0251 279.503 72.0021 274.022 76.1531 269.605C81.2864 264.159 86.2961 258.608 91.1821 252.952C96.0681 247.296 100.858 241.521 105.553 235.627C107.87 232.708 116.186 221.879 116.256 221.627C116.326 221.375 112.574 215.971 112.035 215.152Z" fill="#263238"/>
<path d="M83.6711 170.709C83.4471 170.268 80.4091 165.347 80.3041 165.522C78.7291 168.112 77.1401 170.982 75.6841 173.642C74.9841 174.958 74.2281 176.267 73.5211 177.597C72.7792 178.879 72.1154 180.204 71.5331 181.566C71.5331 181.629 71.6101 181.678 71.6451 181.629C72.4917 180.447 73.2632 179.212 73.9551 177.933C74.7321 176.617 75.4811 175.28 76.2441 173.95C77.6441 171.458 79.1701 168.833 80.4441 166.733C80.8711 167.433 83.0131 170.478 83.3281 170.891C83.3522 170.936 83.3934 170.971 83.4427 170.986C83.4919 171.001 83.5451 170.996 83.5906 170.972C83.6361 170.947 83.6701 170.906 83.6852 170.857C83.7003 170.808 83.6952 170.754 83.6711 170.709Z" fill="#263238"/>
<path d="M245.175 302.463H141.4V307.118H245.175V302.463Z" fill="#455A64"/>
<path d="M193.634 302.47H141.4V307.125H193.634V302.47Z" fill="#263238"/>
<path d="M197.673 307.118L298.816 307.097L313.089 238.406L211.953 238.42L197.673 307.118Z" fill="#263238"/>
<path d="M202.559 307.118L303.695 307.097L317.975 238.406L216.832 238.42L202.559 307.118Z" fill="#37474F"/>
<path d="M247.541 274.295C247.429 275.147 247.502 276.013 247.756 276.834C248.009 277.654 248.437 278.411 249.01 279.051C249.583 279.691 250.288 280.2 251.076 280.542C251.863 280.885 252.716 281.053 253.575 281.036C255.418 280.99 257.183 280.284 258.55 279.047C259.916 277.81 260.794 276.124 261.023 274.295C261.136 273.443 261.064 272.577 260.811 271.755C260.558 270.934 260.13 270.177 259.557 269.537C258.983 268.896 258.278 268.387 257.49 268.045C256.701 267.703 255.848 267.535 254.989 267.554C253.146 267.6 251.381 268.306 250.014 269.543C248.648 270.78 247.77 272.466 247.541 274.295Z" fill="white"/>
<path d="M296.443 283.5C296.443 283.5 301.7 264.6 305.9 258.188C310.1 251.776 317.954 244.706 317.954 244.706C317.954 244.706 317.8 273.868 296.443 283.5Z" fill="#FFC727"/>
<path d="M296.8 283.199C298.576 280.24 300.179 277.18 301.602 274.036C302.206 270.655 303.082 267.329 304.22 264.089C304.22 264.026 304.325 264.089 304.311 264.124C303.611 267.113 302.799 270.074 302.064 273.049C304.164 268.45 306.208 263.788 308.742 259.434C309.327 257.333 310.147 255.304 311.185 253.386C311.185 253.33 311.304 253.386 311.276 253.386C310.636 254.865 310.089 256.382 309.638 257.929C310.83 255.987 312.169 254.138 313.642 252.399C313.733 252.287 313.915 252.399 313.824 252.525C310.457 256.9 308.119 261.8 305.9 266.777C308.295 264.179 310.506 261.417 312.515 258.51C312.515 258.51 312.578 258.51 312.557 258.545C310.463 261.799 308.095 264.869 305.48 267.722C303.856 271.369 302.26 275.03 300.328 278.502C304.192 275.24 307.167 271.012 310.128 266.938C310.143 266.924 310.162 266.916 310.182 266.914C310.203 266.913 310.223 266.918 310.24 266.929C310.257 266.941 310.269 266.957 310.276 266.977C310.282 266.996 310.282 267.017 310.275 267.036C307.328 271.509 304.283 275.723 300.048 279.034C299.199 280.558 298.264 282.033 297.248 283.451C297.215 283.51 297.159 283.554 297.093 283.572C297.028 283.591 296.957 283.582 296.898 283.549C296.839 283.516 296.795 283.46 296.776 283.394C296.758 283.329 296.767 283.258 296.8 283.199Z" fill="#263238"/>
<path d="M294.812 285.229C294.812 285.229 304.283 267.785 301.532 250.88C298.781 233.975 295.834 227.948 295.834 227.948C295.834 227.948 280.945 254.247 294.812 285.229Z" fill="#FFC727"/>
<path d="M290.92 257.81C291.724 262.603 292.949 267.316 294.581 271.894C294.581 265.685 294.721 259.483 294.889 253.274C293.823 249.512 293.224 245.633 293.104 241.724C293.104 241.605 293.265 241.612 293.279 241.724C293.575 245.077 294.129 248.403 294.938 251.671C295.078 246.547 295.253 241.43 295.435 236.313C295.44 236.299 295.448 236.287 295.46 236.278C295.472 236.27 295.487 236.265 295.501 236.265C295.516 236.265 295.531 236.27 295.542 236.278C295.554 236.287 295.563 236.299 295.568 236.313C295.568 244.307 295.568 252.301 295.519 260.302C296.671 257.208 297.583 254.03 298.249 250.796H298.305C297.921 254.519 296.977 258.163 295.505 261.604C295.505 266.714 295.414 271.824 295.302 276.934C296.905 271.502 298.613 266.238 299.075 260.498C299.075 260.421 299.201 260.421 299.194 260.498C299.075 266.833 297.437 273.259 295.351 279.216C295.33 279.274 295.294 279.325 295.246 279.363C295.197 281.232 295.148 283.101 295.085 284.963C295.085 285.019 295.063 285.072 295.023 285.111C294.984 285.151 294.931 285.173 294.875 285.173C294.819 285.173 294.766 285.151 294.726 285.111C294.687 285.072 294.665 285.019 294.665 284.963C294.595 281.141 294.565 277.319 294.574 273.497C292.509 268.493 291.247 263.194 290.836 257.796C290.836 257.775 290.913 257.761 290.92 257.81Z" fill="#263238"/>
<path d="M291.571 255.115C291.902 256.632 292.122 258.172 292.229 259.721C292.229 259.77 292.152 259.777 292.145 259.721C291.775 258.211 291.513 256.676 291.361 255.129C291.347 255.017 291.55 254.996 291.571 255.115Z" fill="#263238"/>
<path d="M297.108 242.368C297.108 242.312 297.199 242.326 297.199 242.368C297.187 243.444 297.027 244.514 296.723 245.546C296.723 245.63 296.576 245.588 296.597 245.504C296.8 244.468 296.933 243.418 297.108 242.368Z" fill="#263238"/>
<path d="M291.354 286.559C291.354 286.559 291.739 268.359 286.517 259.308C283.112 253.661 278.338 248.963 272.636 245.651C272.636 245.651 276.129 277.739 291.354 286.559Z" fill="#FFC727"/>
<path d="M281.841 270.991C283.937 274.172 286.3 277.17 288.904 279.951C287.859 276.218 286.655 272.559 285.292 268.975C282.366 266.406 279.461 263.746 277.662 260.232C277.662 260.176 277.718 260.127 277.746 260.183C279.678 263.291 282.261 265.783 284.977 268.177C282.883 262.755 280.456 257.467 277.711 252.343C277.704 252.33 277.699 252.316 277.697 252.301C277.695 252.287 277.696 252.272 277.7 252.257C277.708 252.228 277.727 252.204 277.753 252.189C277.779 252.174 277.81 252.17 277.839 252.178C277.868 252.186 277.892 252.205 277.907 252.231C279.578 254.916 281.102 257.689 282.471 260.54C281.981 258.594 281.589 256.599 281.071 254.674C281.071 254.663 281.075 254.652 281.083 254.644C281.091 254.636 281.102 254.632 281.113 254.632C281.124 254.632 281.135 254.636 281.143 254.644C281.151 254.652 281.155 254.663 281.155 254.674C282.178 257.145 282.897 259.73 283.297 262.374C285.125 266.412 286.662 270.576 287.896 274.834C287.763 272.104 287.588 269.388 287.308 266.665C287.308 266.616 287.392 266.602 287.399 266.665C287.984 269.685 288.249 272.759 288.19 275.835C288.946 278.551 289.578 281.293 290.087 284.06C290.087 284.137 289.989 284.165 289.975 284.095C289.688 282.933 289.38 281.785 289.065 280.637C289.065 280.637 289.023 280.637 289.009 280.637C286.096 277.863 283.66 274.627 281.799 271.061C281.799 271.061 281.827 270.977 281.841 270.991Z" fill="#263238"/>
<path d="M275.8 256.2C276.381 256.83 276.92 257.488 277.48 258.139C278.026 258.685 278.53 259.272 278.985 259.896C278.985 259.896 278.985 259.952 278.943 259.938C278.29 259.446 277.706 258.87 277.207 258.223C276.655 257.613 276.156 256.958 275.716 256.263C275.713 256.252 275.713 256.24 275.716 256.23C275.72 256.219 275.727 256.209 275.736 256.202C275.745 256.195 275.756 256.192 275.768 256.191C275.779 256.191 275.79 256.194 275.8 256.2Z" fill="#263238"/>
<path d="M306.873 284.34L306.215 290.178L304.227 307.818H286.93L284.942 290.178L284.284 284.34H306.873Z" fill="#DBDBDB"/>
<path d="M306.873 284.34L306.215 290.178H284.942L284.284 284.34H306.873Z" fill="#A6A6A6"/>
<path d="M282.751 286.72H308.406V280.112H282.751V286.72Z" fill="#DBDBDB"/>
<path d="M314.027 120.827V212.541H275.849L268.163 227.948L260.484 212.541H222.306V120.827H314.027Z" fill="white"/>
<path d="M314.027 120.827L314.174 166.628L314.251 212.541V212.8H314.027L275.849 212.842L276.094 212.695L268.429 228.095L268.163 228.62L267.897 228.095L260.197 212.695L260.477 212.87H222.299H221.963V212.527L222.075 120.827V120.603H222.299L268.219 120.68L314.027 120.827ZM314.027 120.827L268.107 120.981L222.306 121.058L222.53 120.827L222.642 212.527L222.306 212.191H260.484H260.68L260.764 212.366L268.464 227.766H267.932L275.632 212.366L275.709 212.212H275.877L314.055 212.261L313.831 212.485L313.908 166.691L314.027 120.827Z" fill="#263238"/>
<path d="M241.486 162.743L265.146 168.42L294.847 165.396L267.855 160.664L241.486 162.743Z" fill="#FFC727"/>
<path opacity="0.3" d="M241.486 162.743L265.146 168.42L294.847 165.396L267.855 160.664L241.486 162.743Z" fill="black"/>
<path d="M245.077 195.132L241.486 162.743L265.146 168.42V202.153L245.077 195.132Z" fill="#FFC727"/>
<path opacity="0.1" d="M245.077 195.132L241.486 162.743L265.146 168.42V202.153L245.077 195.132Z" fill="black"/>
<path d="M251.573 197.407L257.299 199.409L255.311 166.061L248.78 164.493L251.573 197.407Z" fill="#37474F"/>
<path d="M265.146 168.42V202.153L290.843 197.554L294.847 165.396L265.146 168.42Z" fill="#FFC727"/>
<path d="M275.317 200.333L281.82 199.171L284.949 166.411L276.941 167.223L275.317 200.333Z" fill="#455A64"/>
<path d="M296.324 144.774L270.907 149.513L271.383 140.294L297.444 136.556L296.324 144.774Z" fill="#FFC727"/>
<path opacity="0.2" d="M296.324 144.774L270.907 149.513L271.383 140.294L297.444 136.556L296.324 144.774Z" fill="black"/>
<path d="M239.477 144.662L238.889 135.996L271.383 140.294L270.907 149.513L239.477 144.662Z" fill="#FFC727"/>
<path opacity="0.1" d="M239.477 144.662L238.889 135.996L271.383 140.294L270.907 149.513L239.477 144.662Z" fill="black"/>
<path d="M287.91 146.342L280.364 147.749L281.211 138.88L288.911 137.774L287.91 146.342Z" fill="#37474F"/>
<path d="M259.609 147.763L250.509 146.363L250.068 137.48L259.637 138.74L259.609 147.763Z" fill="#455A64"/>
<path d="M297.444 136.556L271.383 140.294L238.889 135.996L267.974 134.078L297.444 136.556Z" fill="#FFC727"/>
<path d="M288.911 137.774L258.629 134.694L252.231 135.121L281.211 138.88L288.911 137.774Z" fill="#455A64"/>
<path d="M259.637 138.74L250.068 137.48L277.872 134.911L285.502 135.555L259.637 138.74Z" fill="#455A64"/>
<path d="M276.192 134.323C276.192 134.323 281.407 133.056 284.557 135.401C287.707 137.746 288.911 140.868 290.024 141.617C291.137 142.366 295.057 142.24 295.057 142.24L291.557 149.436C291.557 149.436 289.282 150.136 286.923 147.175C284.564 144.214 283.661 140.126 281.211 138.271C278.761 136.416 275.212 136.066 275.212 136.066L276.192 134.323Z" fill="#455A64"/>
<path d="M282.8 140C283.473 138.415 283.859 136.722 283.941 135.002C280.77 133.21 276.185 134.302 276.185 134.302L275.226 136.045C275.226 136.045 278.782 136.402 281.225 138.25C281.846 138.739 282.379 139.331 282.8 140Z" fill="#37474F"/>
<path d="M268.1 134.736C268.1 134.736 262.983 132.839 259.245 134.652C255.507 136.465 253.568 139.006 252.245 139.552C250.922 140.098 246.89 139.188 246.89 139.188L249.074 147.371C249.074 147.371 251.293 148.561 254.338 145.971C257.383 143.381 259.14 139.293 262.038 137.858C264.936 136.423 268.702 136.724 268.702 136.724L268.1 134.736Z" fill="#455A64"/>
<path d="M257.11 142.919C258.727 140.868 260.141 138.782 262.059 137.837C264.971 136.437 268.723 136.703 268.723 136.703L268.093 134.736C268.093 134.736 262.976 132.839 259.238 134.652C258.489 135.012 257.766 135.423 257.075 135.884C256.687 138.214 256.699 140.593 257.11 142.919Z" fill="#37474F"/>
<path d="M257.11 142.919C256.653 143.725 256.093 144.469 255.444 145.131C255.123 145.467 254.776 145.778 254.408 146.062C254.041 146.346 253.639 146.582 253.211 146.762C254.625 145.6 255.78 144.2 257.11 142.919Z" fill="#263238"/>
<path d="M255.535 137.004C255.157 137.361 254.8 137.739 254.415 138.103C254.042 138.472 253.647 138.818 253.232 139.139C253.011 139.307 252.777 139.457 252.532 139.587C252.286 139.721 252.014 139.8 251.734 139.818C251.204 139.87 250.668 139.83 250.152 139.699C250.669 139.697 251.184 139.648 251.692 139.552C252.179 139.433 252.627 139.192 252.994 138.852L254.24 137.9C254.647 137.567 255.08 137.267 255.535 137.004Z" fill="#263238"/>
<path d="M259 134.722C259.133 135.989 265.146 137.445 269.038 135.982C269.038 135.982 266.07 133.182 263.123 133.077C260.176 132.972 258.958 134.169 259 134.722Z" fill="#263238"/>
<path d="M269.052 135.982V134.862C266.742 130.494 262.563 128.618 262.241 128.618C261.919 128.618 260.232 130.018 259.511 131.418C259.051 132.457 258.88 133.601 259.014 134.729C259.063 134.316 260.246 133.224 262.514 133.329C264.782 133.434 268.541 135.387 269.052 135.982Z" fill="#455A64"/>
<path d="M269.052 135.548V135.051C268.549 134.248 267.887 133.557 267.106 133.021C267.484 133.427 267.841 133.84 268.184 134.267C267.235 133.55 266.215 132.933 265.139 132.426C265.097 132.426 265.055 132.475 265.104 132.496C266.531 133.36 267.856 134.384 269.052 135.548Z" fill="#263238"/>
<path d="M261.541 144.242C262.808 145.04 267.484 141.134 268.961 136.465C268.961 136.465 265.272 136.535 262.997 139.167C260.722 141.799 260.988 143.892 261.541 144.242Z" fill="#263238"/>
<path d="M268.961 136.5V135.023C263.228 133.973 258.461 136.479 258.209 136.78C257.957 137.081 258.027 139.657 258.804 141.344C259.581 143.031 261.849 144.571 261.506 144.221C261.163 143.871 261.016 141.981 262.759 139.944C264.441 138.209 266.599 137.01 268.961 136.5Z" fill="#455A64"/>
<path d="M268.968 135.926V135.576C267.143 135.633 265.354 136.097 263.732 136.934C263.683 136.934 263.732 137.039 263.767 137.018C264.689 136.651 265.643 136.37 266.616 136.178C267.393 136.039 268.179 135.955 268.968 135.926Z" fill="#263238"/>
<path d="M259.63 142.548C259.338 142.382 259.096 142.14 258.93 141.848C258.843 141.71 258.773 141.562 258.72 141.407C258.67 141.246 258.651 141.078 258.664 140.91C258.87 141.145 259.057 141.395 259.224 141.659C259.399 141.936 259.535 142.235 259.63 142.548Z" fill="#263238"/>
<path d="M281.4 134.855C281.253 136.122 275.219 137.508 271.348 135.996C271.348 135.996 274.351 133.259 277.305 133.161C280.259 133.063 281.442 134.309 281.4 134.855Z" fill="#263238"/>
<path d="M280.924 131.544C280.224 130.144 278.544 128.744 278.222 128.744C277.9 128.744 273.7 130.564 271.341 134.904V136.024C271.859 135.436 275.632 133.49 277.907 133.427C280.182 133.364 281.351 134.47 281.407 134.883C281.553 133.747 281.386 132.592 280.924 131.544Z" fill="#455A64"/>
<path d="M275.499 131.81C274.433 132.335 273.451 133.017 272.587 133.833C272.147 134.238 271.731 134.668 271.341 135.121V135.716C271.766 135.146 272.234 134.61 272.741 134.113C273.612 133.294 274.564 132.567 275.583 131.943C275.601 131.932 275.613 131.914 275.618 131.894C275.622 131.873 275.619 131.852 275.608 131.835C275.596 131.817 275.579 131.804 275.558 131.8C275.538 131.795 275.517 131.799 275.499 131.81Z" fill="#263238"/>
<path d="M278.754 144.333C277.473 145.124 272.839 141.169 271.411 136.479C271.411 136.479 275.1 136.591 277.347 139.279C279.594 141.967 279.3 143.99 278.754 144.333Z" fill="#263238"/>
<path d="M282.156 136.892C281.925 136.591 277.165 134.022 271.418 135.002V136.5C273.771 137.036 275.913 138.253 277.578 140C279.293 142.065 279.118 143.955 278.775 144.298C278.432 144.641 280.714 143.136 281.512 141.456C282.31 139.776 282.38 137.2 282.156 136.892Z" fill="#455A64"/>
<path d="M277.2 137.97C276.48 137.154 275.543 136.56 274.498 136.255C273.735 135.995 272.95 135.805 272.153 135.688C272.647 135.66 273.143 135.66 273.637 135.688C274.524 135.789 275.397 135.986 276.241 136.276C276.297 136.276 276.318 136.206 276.276 136.178C274.974 135.345 273.021 135.268 271.453 135.478V135.954C272.322 136.047 273.184 136.207 274.029 136.43C275.186 136.684 276.256 137.234 277.137 138.026C277.137 138.026 277.2 138.005 277.2 137.97Z" fill="#263238"/>
<path d="M272.153 135.226C272.153 134.925 272.055 133.826 271.642 133.651C271.229 133.476 270.501 133.728 270.312 133.728C270.123 133.728 269.402 133.462 268.989 133.63C268.576 133.798 268.471 134.904 268.457 135.205C268.443 135.506 268.457 136.675 268.849 136.808C269.335 136.853 269.824 136.817 270.298 136.703C270.769 136.822 271.256 136.864 271.74 136.829C272.125 136.696 272.153 135.527 272.153 135.226Z" fill="#455A64"/>
<path d="M296.618 156.933L309.4 154.357L309.491 157.605L296.618 156.933Z" fill="#FFC727"/>
<path d="M295.652 151.879L301 145.796L302.575 147.56L295.652 151.879Z" fill="#FFC727"/>
<path d="M295.393 158.102L302.575 161.644L301.497 163.828L295.393 158.102Z" fill="#FFC727"/>
<path d="M239.715 152.698L226.933 155.267L226.842 152.019L239.715 152.698Z" fill="#FFC727"/>
<path d="M240.681 157.745L235.333 163.828L233.758 162.064L240.681 157.745Z" fill="#FFC727"/>
<path d="M240.94 151.529L233.758 147.98L234.829 145.796L240.94 151.529Z" fill="#FFC727"/>
<path d="M118.139 70.693L100.73 51.905L106.078 48.419L118.139 70.693Z" fill="#455A64"/>
<path d="M112.812 76.776L97.146 74.053L98.483 69.601L112.812 76.776Z" fill="#455A64"/>
<path d="M121.625 68.348L120.204 52.675L124.964 52.241L121.625 68.348Z" fill="#455A64"/>
<path d="M32.025 307.349L67.774 307.181L103.516 307.118L175 307.006L246.484 307.118L282.233 307.181L317.975 307.349L282.233 307.524L246.484 307.587L175 307.699L103.516 307.587L67.774 307.524L32.025 307.349Z" fill="#263238"/>
</svg>
