<svg width="21" height="21" viewBox="0 0 21 21" fill="none" xmlns="http://www.w3.org/2000/svg">
<path d="M17.7454 2.90035C15.7087 0.968604 13.0525 -0.0602616 10.2494 0.00273016C7.44625 0.0762205 4.8321 1.23107 2.90035 3.2573C0.968604 5.29404 -0.0602616 7.95019 0.00273016 10.7533C0.0762205 13.5565 1.23107 16.1706 3.2573 18.1024C3.34129 18.1863 3.42528 18.2598 3.51977 18.3333C5.45151 20.0656 7.89769 21 10.4909 21H10.7533C13.2625 20.937 15.6247 20.0026 17.4829 18.3333C17.6929 18.1548 17.9029 17.9554 18.1024 17.7454C19.9816 15.7717 21 13.21 21 10.4909V10.2494C20.9265 7.44625 19.7716 4.8321 17.7454 2.90035ZM10.7218 19.4252C8.6011 19.4672 6.57487 18.7848 4.94758 17.4724C5.42002 16.1496 6.71135 15.2362 8.13916 15.2362H12.8635C14.2914 15.2362 15.5827 16.1496 16.0551 17.4724C14.5433 18.7008 12.6956 19.3727 10.7218 19.4252ZM17.2625 16.3071C16.4121 14.7218 14.7323 13.6614 12.8635 13.6614H8.13916C6.27041 13.6614 4.58013 14.7218 3.74024 16.3176C2.38592 14.7638 1.63002 12.811 1.57752 10.7218C1.52503 8.33864 2.39642 6.07093 4.0447 4.34916C5.68248 2.61689 7.89769 1.64052 10.2809 1.57752H10.5119C12.811 1.57752 14.9843 2.44891 16.6535 4.0447C17.5144 4.86359 18.1968 5.82947 18.6693 6.87933C19.1312 7.93969 19.3937 9.09454 19.4252 10.2809C19.4777 12.5066 18.7218 14.6378 17.2625 16.3071Z" fill="#BDBDBD"/>
<path d="M13.3885 12.0761H10.2389C8.35966 12.0761 6.82686 10.5433 6.82686 8.66405V6.56433C6.82686 4.68508 8.35966 3.15228 10.2389 3.15228H10.7638C12.6431 3.15228 14.1759 4.68508 14.1759 6.56433V11.2887C14.1759 11.7192 13.8189 12.0761 13.3885 12.0761ZM10.2389 4.72707C9.23104 4.72707 8.40165 5.55646 8.40165 6.56433V8.66405C8.40165 9.67192 9.23104 10.5013 10.2389 10.5013H12.6011V6.56433C12.6011 5.55646 11.7717 4.72707 10.7638 4.72707H10.2389Z" fill="#BDBDBD"/>
</svg>
