<svg width="19" height="16" viewBox="0 0 19 16" fill="none" xmlns="http://www.w3.org/2000/svg">
<path d="M16 6.84236V5.30824C16 2.38118 13.6188 0 10.6918 0H5.30824C2.38118 0 0 2.38118 0 5.30824V11.5294C0 11.9153 0.32 12.2353 0.705883 12.2353H5.6753C5.92942 14.353 7.72707 16 9.9106 16H18.1177C18.5035 16 18.8235 15.68 18.8235 15.2941V10.8518C18.8235 9.00707 17.6471 7.42589 16 6.84236ZM1.41177 10.8235V5.30824C1.41177 3.16236 3.16236 1.41177 5.30824 1.41177H10.6918C12.8377 1.41177 14.5882 3.16236 14.5882 5.30824V6.92706C14.5882 7.30353 14.5318 7.66118 14.4282 8.00001C13.9671 9.62824 12.4612 10.8235 10.6918 10.8235H1.41177ZM17.4118 14.5882H9.9106C8.50824 14.5882 7.34118 13.5718 7.10589 12.2353H10.6918C13.1482 12.2353 15.2094 10.56 15.8212 8.30118C16.7624 8.76236 17.4118 9.73177 17.4118 10.8518V14.5882Z" fill="#333333"/>
<path d="M4.23531 7.05895C4.11296 7.05895 3.9906 7.04013 3.87766 6.98366C3.76472 6.9366 3.66119 6.87071 3.56707 6.78601C3.39766 6.60719 3.29413 6.36248 3.29413 6.11777C3.29413 5.87307 3.39766 5.62836 3.56707 5.44954C3.66119 5.36483 3.75531 5.29895 3.87766 5.25189C4.21649 5.1013 4.64002 5.18601 4.90355 5.44954C5.07296 5.62836 5.17649 5.87307 5.17649 6.11777C5.17649 6.36248 5.07296 6.60719 4.90355 6.78601C4.85649 6.82366 4.80943 6.8613 4.75296 6.89895C4.7059 6.9366 4.64943 6.96483 4.59296 6.98366C4.53649 7.01189 4.48002 7.03071 4.42355 7.04013C4.35766 7.04954 4.30119 7.05895 4.23531 7.05895Z" fill="#333333"/>
<path d="M8.00003 7.05895C7.87768 7.05895 7.75533 7.04013 7.64238 6.98366C7.52003 6.9366 7.42591 6.87071 7.3318 6.78601C7.16238 6.60719 7.05886 6.36248 7.05886 6.11777C7.05886 5.87307 7.16238 5.62836 7.3318 5.44954C7.42591 5.36483 7.52003 5.29895 7.64238 5.25189C7.98121 5.1013 8.40474 5.18601 8.66827 5.44954C8.83768 5.62836 8.94121 5.87307 8.94121 6.11777C8.94121 6.36248 8.83768 6.60719 8.66827 6.78601C8.48944 6.95542 8.24474 7.05895 8.00003 7.05895Z" fill="#333333"/>
<path d="M11.7647 7.05896C11.52 7.05896 11.2753 6.95543 11.0965 6.78602C10.9271 6.60719 10.8236 6.36249 10.8236 6.11778C10.8236 5.87307 10.9271 5.62837 11.0965 5.44954C11.4447 5.10131 12.0753 5.10131 12.433 5.44954C12.6024 5.62837 12.7059 5.87307 12.7059 6.11778C12.7059 6.36249 12.6024 6.60719 12.433 6.78602C12.3859 6.82366 12.3389 6.87072 12.2824 6.89896C12.2353 6.9366 12.1789 6.96484 12.1224 6.98366C12.0659 7.0119 12.0094 7.03072 11.9436 7.04013C11.8871 7.04955 11.8212 7.05896 11.7647 7.05896Z" fill="#333333"/>
</svg>
