<svg width="376" height="19" viewBox="0 0 376 19" fill="none" xmlns="http://www.w3.org/2000/svg">
<path d="M55.628 17.2732H52.9034C51.5229 17.2732 50.4058 16.1561 50.4058 14.7756V11.5968C50.4058 11.4697 50.3059 11.3698 50.1787 11.3698H47.9082C47.7811 11.3698 47.6812 11.4697 47.6812 11.5968V14.7756C47.6812 16.1561 46.5641 17.2732 45.1836 17.2732H42.4589C41.5871 17.2732 40.8696 16.5557 40.8696 15.6838V7.07394C40.8696 6.55626 41.1239 6.06583 41.5507 5.7752L48.1353 1.17964C48.6802 0.798193 49.4068 0.798193 49.9517 1.17964L56.5362 5.76612C56.9631 6.06583 57.2174 6.55626 57.2174 7.07394V15.6838C57.2174 16.5557 56.4999 17.2732 55.628 17.2732ZM47.9082 10.0075H50.1787C51.0506 10.0075 51.7681 10.725 51.7681 11.5968V14.7756C51.7681 15.4022 52.2767 15.9108 52.9034 15.9108H55.628C55.7552 15.9108 55.8551 15.8109 55.8551 15.6838V7.07394C55.8551 7.00128 55.8187 6.92863 55.7552 6.88322L49.1706 2.29674C49.0889 2.24225 48.989 2.24225 48.9072 2.29674L42.3318 6.8923C42.2682 6.92863 42.2319 7.00128 42.2319 7.07394V15.6838C42.2319 15.8109 42.3318 15.9108 42.4589 15.9108H45.1836C45.8102 15.9108 46.3188 15.4022 46.3188 14.7756V11.5968C46.3188 10.725 47.0363 10.0075 47.9082 10.0075Z" fill="#BDBDBD"/>
<path d="M152.201 16.8031H140.848C139.467 16.8031 138.35 15.686 138.35 14.3055V10.2185C138.35 9.84618 138.659 9.53738 139.031 9.53738C139.404 9.53738 139.713 9.84618 139.713 10.2185V14.3055C139.713 14.9322 140.221 15.4408 140.848 15.4408H152.201C152.827 15.4408 153.336 14.9322 153.336 14.3055V10.2185C153.336 9.84618 153.645 9.53738 154.017 9.53738C154.389 9.53738 154.698 9.84618 154.698 10.2185V14.3055C154.698 15.686 153.581 16.8031 152.201 16.8031Z" fill="#333333"/>
<path d="M150.865 5.42319L147.006 1.56328C146.942 1.49971 146.869 1.4543 146.788 1.41797C146.706 1.38164 146.615 1.36348 146.524 1.36348C146.433 1.36348 146.343 1.38164 146.261 1.41797C146.179 1.4543 146.106 1.49971 146.043 1.56328L142.183 5.42319C141.92 5.68657 141.92 6.12251 142.183 6.38589C142.446 6.64927 142.882 6.64927 143.146 6.38589L145.843 3.6885V12.4891C145.843 12.8614 146.152 13.1702 146.524 13.1702C146.897 13.1702 147.205 12.8614 147.205 12.4891V3.6885L149.903 6.38589C150.166 6.64927 150.602 6.64927 150.865 6.38589C151.129 6.12251 151.129 5.68657 150.865 5.42319Z" fill="#333333"/>
<path d="M332.315 2.50903C330.553 0.837917 328.255 -0.052131 325.83 0.0023618C323.405 0.0659367 321.144 1.06497 319.473 2.81782C317.802 4.57975 316.912 6.87753 316.966 9.30246C317.03 11.7274 318.029 13.9888 319.782 15.6599C319.854 15.7326 319.927 15.7962 320.009 15.8598C321.68 17.3583 323.796 18.1666 326.039 18.1666H326.266C328.437 18.1121 330.48 17.3038 332.088 15.8598C332.27 15.7054 332.451 15.5328 332.624 15.3512C334.249 13.6437 335.13 11.4277 335.13 9.07541V8.86652C335.067 6.44159 334.068 4.18014 332.315 2.50903ZM326.239 16.8043C324.404 16.8406 322.652 16.2503 321.244 15.115C321.653 13.9707 322.77 13.1805 324.005 13.1805H328.092C329.327 13.1805 330.444 13.9707 330.853 15.115C329.545 16.1776 327.946 16.7589 326.239 16.8043ZM331.897 14.1069C331.162 12.7355 329.708 11.8182 328.092 11.8182H324.005C322.388 11.8182 320.926 12.7355 320.199 14.116C319.028 12.7718 318.374 11.0826 318.328 9.27521C318.283 7.21357 319.037 5.25183 320.463 3.76236C321.88 2.26381 323.796 1.41917 325.858 1.36468H326.057C328.046 1.36468 329.926 2.1185 331.37 3.49898C332.115 4.20739 332.706 5.04294 333.114 5.95115C333.514 6.86845 333.741 7.86748 333.768 8.89376C333.814 10.8192 333.16 12.6628 331.897 14.1069Z" fill="#BDBDBD"/>
<path d="M328.546 10.4468H325.821C324.196 10.4468 322.87 9.12083 322.87 7.49513V5.67871C322.87 4.05301 324.196 2.72702 325.821 2.72702H326.275C327.901 2.72702 329.227 4.05301 329.227 5.67871V9.76566C329.227 10.138 328.918 10.4468 328.546 10.4468ZM325.821 4.08934C324.949 4.08934 324.232 4.80682 324.232 5.67871V7.49513C324.232 8.36702 324.949 9.0845 325.821 9.0845H327.865V5.67871C327.865 4.80682 327.147 4.08934 326.275 4.08934H325.821Z" fill="#BDBDBD"/>
</svg>
