<svg width="17" height="17" viewBox="0 0 17 17" fill="none" xmlns="http://www.w3.org/2000/svg">
<path d="M0.705885 16.9411H4.94118C4.96941 16.9411 4.98823 16.9411 5.01647 16.9317C5.0447 16.9411 5.07294 16.9411 5.10117 16.9411H13.28C14.5129 16.9411 15.5765 16.0659 15.8212 14.8611L16.9506 9.21409C17.1012 8.45174 16.9035 7.67057 16.4141 7.06821C15.9153 6.46586 15.1906 6.11763 14.4094 6.11763H10.9647L11.7176 3.31292C11.9341 2.51293 11.7647 1.68469 11.2659 1.02587C10.7671 0.376457 10.0047 -1.38436e-05 9.17646 -1.38436e-05C8.94117 -1.38436e-05 8.7247 0.112928 8.59294 0.301163L4.56471 6.11763H0.705885C0.320003 6.11763 3.95531e-06 6.43763 3.95531e-06 6.82351V16.2353C3.95531e-06 16.6211 0.320003 16.9411 0.705885 16.9411ZM9.51529 1.45881C9.75999 1.52469 9.98588 1.67528 10.1459 1.89175C10.3812 2.19293 10.4565 2.5694 10.3529 2.93646L9.35529 6.63527C9.29882 6.85174 9.34588 7.07763 9.47764 7.25645C9.60941 7.42586 9.81646 7.52939 10.0423 7.52939H14.4094C14.767 7.52939 15.0965 7.68939 15.3223 7.96233C15.5388 8.23527 15.6329 8.59292 15.567 8.94115L14.4376 14.5882C14.3247 15.1341 13.8353 15.5294 13.28 15.5294H5.64706V7.04939L9.51529 1.45881ZM1.41177 7.52939H4.23529V15.5294H1.41177V7.52939Z" fill="#333333"/>
</svg>
