<svg width="17" height="16" viewBox="0 0 17 16" fill="none" xmlns="http://www.w3.org/2000/svg">
<path d="M14.3529 16H2.58823C1.15765 16 0 14.8424 0 13.4118V9.17647C0 8.79059 0.32 8.47059 0.705882 8.47059C1.09176 8.47059 1.41176 8.79059 1.41176 9.17647V13.4118C1.41176 14.0612 1.93882 14.5882 2.58823 14.5882H14.3529C15.0023 14.5882 15.5294 14.0612 15.5294 13.4118V9.17647C15.5294 8.79059 15.8494 8.47059 16.2353 8.47059C16.6212 8.47059 16.9412 8.79059 16.9412 9.17647V13.4118C16.9412 14.8424 15.7835 16 14.3529 16Z" fill="#BDBDBD"/>
<path d="M12.9694 4.20706L8.9694 0.207059C8.90351 0.141176 8.82822 0.0941176 8.74351 0.0564705C8.65881 0.0188235 8.56469 0 8.47057 0C8.37646 0 8.28234 0.0188235 8.19763 0.0564705C8.11293 0.0941176 8.03763 0.141176 7.97175 0.207059L3.97175 4.20706C3.69881 4.48 3.69881 4.93176 3.97175 5.2047C4.24469 5.47765 4.69646 5.47765 4.9694 5.2047L7.76469 2.40941V11.5294C7.76469 11.9153 8.08469 12.2353 8.47057 12.2353C8.85645 12.2353 9.17645 11.9153 9.17645 11.5294V2.40941L11.9717 5.2047C12.2447 5.47765 12.6965 5.47765 12.9694 5.2047C13.2423 4.93176 13.2423 4.48 12.9694 4.20706Z" fill="#BDBDBD"/>
</svg>
