<svg width="376" height="19" viewBox="0 0 376 19" fill="none" xmlns="http://www.w3.org/2000/svg">
<path d="M55.628 17.273H52.9033C51.5229 17.273 50.4058 16.1559 50.4058 14.7755V11.5967C50.4058 11.4696 50.3059 11.3697 50.1787 11.3697H47.9082C47.781 11.3697 47.6811 11.4696 47.6811 11.5967V14.7755C47.6811 16.1559 46.564 17.273 45.1835 17.273H42.4589C41.587 17.273 40.8695 16.5556 40.8695 15.6837V7.07382C40.8695 6.55614 41.1238 6.0657 41.5507 5.77508L48.1352 1.17952C48.6802 0.798071 49.4067 0.798071 49.9517 1.17952L56.5362 5.76599C56.9631 6.0657 57.2174 6.55614 57.2174 7.07382V15.6837C57.2174 16.5556 56.4999 17.273 55.628 17.273ZM47.9082 10.0073H50.1787C51.0506 10.0073 51.7681 10.7248 51.7681 11.5967V14.7755C51.7681 15.4021 52.2767 15.9107 52.9033 15.9107H55.628C55.7551 15.9107 55.855 15.8108 55.855 15.6837V7.07382C55.855 7.00116 55.8187 6.92851 55.7551 6.88309L49.1706 2.29662C49.0889 2.24213 48.989 2.24213 48.9072 2.29662L42.3318 6.89218C42.2682 6.9285 42.2319 7.00116 42.2319 7.07382V15.6837C42.2319 15.8108 42.3318 15.9107 42.4589 15.9107H45.1835C45.8102 15.9107 46.3188 15.4021 46.3188 14.7755V11.5967C46.3188 10.7248 47.0363 10.0073 47.9082 10.0073Z" fill="#333333"/>
<path d="M152.2 16.8031H140.848C139.467 16.8031 138.35 15.686 138.35 14.3056V10.2186C138.35 9.84624 138.659 9.53745 139.031 9.53745C139.404 9.53745 139.713 9.84624 139.713 10.2186V14.3056C139.713 14.9322 140.221 15.4408 140.848 15.4408H152.2C152.827 15.4408 153.336 14.9322 153.336 14.3056V10.2186C153.336 9.84624 153.645 9.53745 154.017 9.53745C154.389 9.53745 154.698 9.84624 154.698 10.2186V14.3056C154.698 15.686 153.581 16.8031 152.2 16.8031Z" fill="#BDBDBD"/>
<path d="M150.865 5.42325L147.005 1.56335C146.942 1.49977 146.869 1.45436 146.787 1.41803C146.706 1.3817 146.615 1.36354 146.524 1.36354C146.433 1.36354 146.342 1.3817 146.261 1.41803C146.179 1.45436 146.106 1.49977 146.043 1.56335L142.183 5.42325C141.919 5.68663 141.919 6.12257 142.183 6.38595C142.446 6.64934 142.882 6.64934 143.146 6.38595L145.843 3.68856V12.4891C145.843 12.8615 146.152 13.1703 146.524 13.1703C146.896 13.1703 147.205 12.8615 147.205 12.4891V3.68856L149.903 6.38595C150.166 6.64934 150.602 6.64934 150.865 6.38595C151.129 6.12257 151.129 5.68663 150.865 5.42325Z" fill="#BDBDBD"/>
<path d="M332.315 2.50903C330.553 0.837917 328.255 -0.052131 325.83 0.0023618C323.405 0.0659367 321.144 1.06497 319.473 2.81782C317.802 4.57975 316.912 6.87753 316.966 9.30246C317.03 11.7274 318.029 13.9888 319.782 15.6599C319.854 15.7326 319.927 15.7962 320.009 15.8598C321.68 17.3583 323.796 18.1666 326.039 18.1666H326.266C328.437 18.1121 330.48 17.3038 332.088 15.8598C332.27 15.7054 332.451 15.5328 332.624 15.3512C334.249 13.6437 335.13 11.4277 335.13 9.07541V8.86652C335.067 6.44159 334.068 4.18014 332.315 2.50903ZM326.239 16.8043C324.404 16.8406 322.652 16.2503 321.244 15.115C321.653 13.9707 322.77 13.1805 324.005 13.1805H328.092C329.327 13.1805 330.444 13.9707 330.853 15.115C329.545 16.1776 327.947 16.7589 326.239 16.8043ZM331.897 14.1069C331.162 12.7355 329.708 11.8182 328.092 11.8182H324.005C322.388 11.8182 320.926 12.7355 320.199 14.116C319.028 12.7718 318.374 11.0826 318.329 9.27521C318.283 7.21357 319.037 5.25183 320.463 3.76236C321.88 2.26381 323.796 1.41917 325.858 1.36468H326.057C328.046 1.36468 329.926 2.1185 331.37 3.49898C332.115 4.20739 332.706 5.04294 333.114 5.95115C333.514 6.86845 333.741 7.86748 333.768 8.89376C333.814 10.8192 333.16 12.6628 331.897 14.1069Z" fill="#BDBDBD"/>
<path d="M328.546 10.4468H325.821C324.196 10.4468 322.87 9.12077 322.87 7.49507V5.67865C322.87 4.05295 324.196 2.72696 325.821 2.72696H326.275C327.901 2.72696 329.227 4.05295 329.227 5.67865V9.7656C329.227 10.138 328.918 10.4468 328.546 10.4468ZM325.821 4.08927C324.949 4.08927 324.232 4.80676 324.232 5.67865V7.49507C324.232 8.36696 324.949 9.08444 325.821 9.08444H327.865V5.67865C327.865 4.80676 327.147 4.08927 326.275 4.08927H325.821Z" fill="#BDBDBD"/>
</svg>
