<?xml version="1.0" standalone="no"?>
<!DOCTYPE svg PUBLIC "-//W3C//DTD SVG 20010904//EN"
 "http://www.w3.org/TR/2001/REC-SVG-20010904/DTD/svg10.dtd">
<svg version="1.0" xmlns="http://www.w3.org/2000/svg"
 width="306.000000pt" height="279.000000pt" viewBox="0 0 102.000000 93.000000"
 preserveAspectRatio="xMidYMid meet">

<g transform="translate(0.000000,93.000000) scale(0.100000,-0.100000)"
fill="#000000" stroke="none">
<path d="M377 764 c-8 -8 1 -24 14 -24 5 0 9 7 9 15 0 15 -12 20 -23 9z"/>
<path d="M710 751 c0 -10 -7 -24 -15 -31 -20 -17 -19 -39 3 -47 9 -4 24 -16
34 -27 15 -19 18 -20 35 -5 10 9 26 19 36 22 14 5 16 14 11 49 -4 24 -9 45
-11 47 -2 3 -24 6 -48 7 -38 3 -45 0 -45 -15z m70 -28 c0 -6 3 -18 6 -26 7
-19 -35 -30 -52 -13 -20 21 -7 54 22 52 13 0 24 -6 24 -13z"/>
<path d="M555 740 c-3 -5 -17 -10 -30 -10 -21 0 -23 -4 -22 -46 0 -33 5 -47
16 -51 9 -3 26 -9 38 -15 23 -11 43 -4 43 15 0 7 10 21 22 31 21 19 21 19 2
35 -11 9 -23 24 -27 34 -7 19 -32 23 -42 7z m34 -42 c10 -16 10 -23 2 -26 -6
-2 -11 -11 -11 -19 0 -12 -3 -13 -15 -3 -8 6 -19 9 -25 5 -18 -11 -11 37 8 51
23 18 25 17 41 -8z"/>
<path d="M330 715 c0 -8 7 -15 15 -15 8 0 15 7 15 15 0 8 -7 15 -15 15 -8 0
-15 -7 -15 -15z"/>
<path d="M420 716 c0 -9 7 -16 16 -16 17 0 14 22 -4 28 -7 2 -12 -3 -12 -12z"/>
<path d="M375 680 c-7 -12 2 -30 16 -30 5 0 9 9 9 20 0 21 -15 27 -25 10z"/>
<path d="M631 603 c-57 -61 -35 -71 25 -12 24 24 44 47 44 51 0 20 -29 3 -69
-39z"/>
<path d="M363 618 c-15 -24 -162 -452 -157 -459 2 -4 89 22 192 58 103 36 204
71 224 77 21 6 43 17 49 23 15 15 3 64 -27 108 -28 41 -30 55 -9 55 8 0 15 5
15 10 0 6 -15 10 -33 10 -42 0 -67 26 -67 68 0 18 -4 32 -10 32 -5 0 -10 -7
-10 -15 0 -17 -25 -20 -35 -5 -10 15 -82 50 -104 50 -11 0 -23 -6 -28 -12z
m100 -48 c48 -30 56 -47 35 -68 -9 -9 -9 -15 -1 -23 8 -8 15 -5 26 11 10 14
17 18 22 10 4 -6 -1 -20 -10 -30 -18 -20 -7 -34 15 -19 27 16 40 9 70 -38 58
-92 28 -110 -66 -39 -165 122 -244 293 -91 196z m-41 -110 c38 -48 105 -107
147 -129 28 -15 18 -27 -31 -36 -33 -6 -37 -4 -50 21 -7 15 -26 35 -41 43 -15
9 -33 27 -40 40 -7 14 -25 32 -42 41 -31 18 -33 29 -13 79 9 24 11 25 22 7 6
-10 28 -40 48 -66z m-33 -82 c6 -18 21 -33 39 -39 17 -6 32 -21 39 -39 10 -26
9 -30 -10 -36 -13 -4 -25 -1 -32 9 -6 9 -24 21 -38 26 -15 6 -32 23 -38 38 -5
14 -17 32 -26 38 -10 7 -13 19 -9 32 6 19 10 20 36 10 18 -7 33 -22 39 -39z
m-58 -60 c9 -20 23 -35 39 -38 32 -7 38 -36 10 -43 -37 -10 -78 12 -90 47 -20
63 15 92 41 34z m-51 -116 c-18 -7 -34 -11 -36 -9 -2 2 1 18 7 36 l11 32 25
-23 25 -23 -32 -13z"/>
<path d="M702 570 c-12 -10 -27 -20 -33 -22 -8 -3 -7 -17 4 -48 14 -42 16 -44
56 -46 32 -2 44 2 48 14 2 10 9 27 15 39 11 23 4 43 -15 43 -7 0 -18 9 -25 20
-15 24 -21 25 -50 0z m49 -33 c22 -17 4 -51 -28 -54 -27 -3 -36 36 -13 54 19
15 21 15 41 0z"/>
<path d="M755 410 c-4 -6 -3 -16 3 -22 6 -6 12 -6 17 2 4 6 3 16 -3 22 -6 6
-12 6 -17 -2z"/>
<path d="M710 360 c0 -5 7 -10 15 -10 8 0 15 5 15 10 0 6 -7 10 -15 10 -8 0
-15 -4 -15 -10z"/>
<path d="M790 360 c0 -5 7 -10 15 -10 8 0 15 5 15 10 0 6 -7 10 -15 10 -8 0
-15 -4 -15 -10z"/>
<path d="M755 330 c-4 -6 -3 -16 3 -22 6 -6 12 -6 17 2 4 6 3 16 -3 22 -6 6
-12 6 -17 -2z"/>
</g>
</svg>
