<svg width="17" height="17" viewBox="0 0 17 17" fill="none" xmlns="http://www.w3.org/2000/svg">
<path d="M15.3174 17H12.4896C11.0568 17 9.89742 15.8406 9.89742 14.4078V11.1087C9.89742 10.9767 9.79373 10.873 9.66177 10.873H7.30524C7.17327 10.873 7.06959 10.9767 7.06959 11.1087V14.4078C7.06959 15.8406 5.91017 17 4.4774 17H1.64957C0.744663 17 0 16.2553 0 15.3504V6.41447C0 5.87718 0.263931 5.36817 0.706959 5.06654L7.54089 0.296923C8.10646 -0.0989742 8.86055 -0.0989742 9.42612 0.296923L16.26 5.05711C16.7031 5.36817 16.967 5.87718 16.967 6.41447V15.3504C16.967 16.2553 16.2223 17 15.3174 17ZM7.30524 9.45911H9.66177C10.5667 9.45911 11.3113 10.2038 11.3113 11.1087V14.4078C11.3113 15.0582 11.8392 15.5861 12.4896 15.5861H15.3174C15.4494 15.5861 15.5531 15.4824 15.5531 15.3504V6.41447C15.5531 6.33906 15.5154 6.26365 15.4494 6.21652L8.61547 1.45633C8.53064 1.39978 8.42695 1.39978 8.34211 1.45633L1.5176 6.22595C1.45162 6.26365 1.41392 6.33906 1.41392 6.41447V15.3504C1.41392 15.4824 1.5176 15.5861 1.64957 15.5861H4.4774C5.12781 15.5861 5.65567 15.0582 5.65567 14.4078V11.1087C5.65567 10.2038 6.40033 9.45911 7.30524 9.45911Z" fill="#333333"/>
</svg>
