<svg width="18" height="17" viewBox="0 0 18 17" fill="none" xmlns="http://www.w3.org/2000/svg">
<path d="M15.25 17H2.75C1.23 17 0 15.77 0 14.25V9.75C0 9.34 0.34 9 0.75 9C1.16 9 1.5 9.34 1.5 9.75V14.25C1.5 14.94 2.06 15.5 2.75 15.5H15.25C15.94 15.5 16.5 14.94 16.5 14.25V9.75C16.5 9.34 16.84 9 17.25 9C17.66 9 18 9.34 18 9.75V14.25C18 15.77 16.77 17 15.25 17Z" fill="#BDBDBD"/>
<path d="M13.7799 4.47L9.52994 0.22C9.45994 0.15 9.37994 0.0999999 9.28994 0.0599999C9.19994 0.0199999 9.09994 0 8.99994 0C8.89994 0 8.79994 0.0199999 8.70994 0.0599999C8.61994 0.0999999 8.53994 0.15 8.46994 0.22L4.21994 4.47C3.92994 4.76 3.92994 5.24 4.21994 5.53C4.50994 5.82 4.98994 5.82 5.27994 5.53L8.24994 2.56V12.25C8.24994 12.66 8.58994 13 8.99994 13C9.40994 13 9.74994 12.66 9.74994 12.25V2.56L12.7199 5.53C13.0099 5.82 13.4899 5.82 13.7799 5.53C14.0699 5.24 14.0699 4.76 13.7799 4.47Z" fill="#BDBDBD"/>
</svg>
